<svg xmlns="http://www.w3.org/2000/svg" width="240.478" height="233.676" viewBox="0 0 240.478 233.676">
  <g id="logo-en" transform="translate(-125 -539.001)">
    <path id="Path_850" data-name="Path 850" d="M16.1,171.438H8.022v13.7H.125v-38.1H16.693q5.728,0,9.135,2.947t3.406,9.124q0,6.747-3.406,9.538T16.1,171.438m3.716-7.936a5.518,5.518,0,0,0,1.549-4.343q0-2.971-1.562-4.238a6.768,6.768,0,0,0-4.374-1.267H8.022v11.218h7.406a6.462,6.462,0,0,0,4.387-1.369" transform="translate(125 552.535)" fill="#265665"/>
    <path id="Path_852" data-name="Path 852" d="M60.645,170.455V147.036h8.077v23.419q0,6.074-1.884,9.462-3.509,6.2-13.393,6.2t-13.418-6.2q-1.884-3.388-1.884-9.462V147.036H46.22v23.419a13.247,13.247,0,0,0,.929,5.739q1.443,3.206,6.3,3.205,4.826,0,6.271-3.205a13.247,13.247,0,0,0,.929-5.739" transform="translate(128.5 552.535)" fill="#265665"/>
    <path id="Path_854" data-name="Path 854" d="M95.133,170.2H86.928v14.94H79.16v-38.1H97.818a17.349,17.349,0,0,1,6.154.983,9.6,9.6,0,0,1,3.652,2.662,11.791,11.791,0,0,1,1.961,3.205,10.464,10.464,0,0,1,.723,4.007,11.428,11.428,0,0,1-1.368,5.337,7.646,7.646,0,0,1-4.516,3.71,7.1,7.1,0,0,1,3.728,3.012,12.548,12.548,0,0,1,1.1,5.958v2.559a19.507,19.507,0,0,0,.206,3.542,3.181,3.181,0,0,0,1.445,2.171v.957h-8.748q-.36-1.266-.515-2.042a18.71,18.71,0,0,1-.335-3.283l-.051-3.542q-.052-3.645-1.33-4.86T95.133,170.2m4.826-6.928q2.374-1.086,2.374-4.291,0-3.465-2.3-4.653a8.674,8.674,0,0,0-3.871-.672H86.928V163.89h9.005a10.018,10.018,0,0,0,4.026-.62" transform="translate(132.276 552.535)" fill="#265665"/>
    <path id="Path_856" data-name="Path 856" d="M146.3,168.491H127.828v9.8h21.057v6.85H120.06v-38.1h27.9v6.747H127.828v8.09H146.3Z" transform="translate(136.041 552.535)" fill="#265665"/>
    <path id="Path_858" data-name="Path 858" d="M185,153.778H165.927v8.763h16.7v6.618h-16.7v15.975h-7.9V147.084H185Z" transform="translate(139.536 552.54)" fill="#265665"/>
    <path id="Path_860" data-name="Path 860" d="M219.952,169.4H201.476v9.8h21.057v6.849H193.708v-38.1h27.9v6.747H201.476v8.091h18.476Zm-16.464-24.5,4.955-7.728h8.206l-7.844,7.728Z" transform="translate(142.82 551.627)" fill="#265665"/>
    <g id="Group_800" data-name="Group 800">
      <path id="Path_851" data-name="Path 851" d="M16.1,171.438H8.022v13.7H.125v-38.1H16.693q5.728,0,9.135,2.947t3.406,9.124q0,6.747-3.406,9.538T16.1,171.438Zm3.716-7.936a5.518,5.518,0,0,0,1.549-4.343q0-2.971-1.562-4.238a6.768,6.768,0,0,0-4.374-1.267H8.022v11.218h7.406A6.462,6.462,0,0,0,19.815,163.5Z" transform="translate(125 552.535)" fill="#265665" stroke="#224554" stroke-linecap="round" stroke-linejoin="round" stroke-width="0.25"/>
      <path id="Path_853" data-name="Path 853" d="M60.645,170.455V147.036h8.077v23.419q0,6.074-1.884,9.462-3.509,6.2-13.393,6.2t-13.418-6.2q-1.884-3.388-1.884-9.462V147.036H46.22v23.419a13.247,13.247,0,0,0,.929,5.739q1.443,3.206,6.3,3.205,4.826,0,6.271-3.205A13.247,13.247,0,0,0,60.645,170.455Z" transform="translate(128.5 552.535)" fill="#265665" stroke="#224554" stroke-linecap="round" stroke-linejoin="round" stroke-width="0.25"/>
      <path id="Path_855" data-name="Path 855" d="M95.133,170.2H86.928v14.94H79.16v-38.1H97.818a17.349,17.349,0,0,1,6.154.983,9.6,9.6,0,0,1,3.652,2.662,11.791,11.791,0,0,1,1.961,3.205,10.464,10.464,0,0,1,.723,4.007,11.428,11.428,0,0,1-1.368,5.337,7.646,7.646,0,0,1-4.516,3.71,7.1,7.1,0,0,1,3.728,3.012,12.548,12.548,0,0,1,1.1,5.958v2.559a19.507,19.507,0,0,0,.206,3.542,3.181,3.181,0,0,0,1.445,2.171v.957h-8.748q-.36-1.266-.515-2.042a18.71,18.71,0,0,1-.335-3.283l-.051-3.542q-.052-3.645-1.33-4.86T95.133,170.2Zm4.826-6.928q2.374-1.086,2.374-4.291,0-3.465-2.3-4.653a8.674,8.674,0,0,0-3.871-.672H86.928V163.89h9.005A10.018,10.018,0,0,0,99.959,163.269Z" transform="translate(132.276 552.535)" fill="#265665" stroke="#224554" stroke-linecap="round" stroke-linejoin="round" stroke-width="0.25"/>
      <path id="Path_857" data-name="Path 857" d="M146.3,168.491H127.828v9.8h21.057v6.85H120.06v-38.1h27.9v6.747H127.828v8.09H146.3Z" transform="translate(136.041 552.535)" fill="#265665" stroke="#224554" stroke-linecap="round" stroke-linejoin="round" stroke-width="0.25"/>
      <path id="Path_859" data-name="Path 859" d="M185,153.778H165.927v8.763h16.7v6.618h-16.7v15.975h-7.9V147.084H185Z" transform="translate(139.536 552.54)" fill="#265665" stroke="#224554" stroke-linecap="round" stroke-linejoin="round" stroke-width="0.25"/>
      <path id="Path_861" data-name="Path 861" d="M219.952,169.4H201.476v9.8h21.057v6.849H193.708v-38.1h27.9v6.747H201.476v8.091h18.476Zm-16.464-24.5,4.955-7.728h8.206l-7.844,7.728Z" transform="translate(142.82 551.627)" fill="#265665" stroke="#224554" stroke-linecap="round" stroke-linejoin="round" stroke-width="0.25"/>
    </g>
    <path id="Path_862" data-name="Path 862" d="M136.55,96.855a1.131,1.131,0,0,0-2.211.016,14.191,14.191,0,0,1-10.218,10.382,16.322,16.322,0,0,0-12,11.021c-.016.066-.033.1-.033.115a1.1,1.1,0,0,0,.49,1.2,11.086,11.086,0,0,0,1.7.834h12.2a16.037,16.037,0,0,0,3.9-2.145A16.231,16.231,0,0,0,133,115.884c6.091-6.927,3.651-18.538,3.554-19.029m-5.257,17.571a14.238,14.238,0,0,1-5.436,3.848,14.707,14.707,0,0,1-8.4.786c.9-.246,1.753-.508,2.538-.786,8.319-2.915,10.972-7.7,11.1-7.959a1.094,1.094,0,0,0-.475-1.473,1.131,1.131,0,0,0-1.522.458c-.033.05-3.324,5.847-14.263,8.123a14.488,14.488,0,0,1,9.842-8.041,15.886,15.886,0,0,0,10.153-7.745c.147,3.767-.328,9.137-3.537,12.789" transform="translate(135.303 547.834)" fill="#c65439"/>
    <path id="Path_863" data-name="Path 863" d="M108.258,119.77a19.037,19.037,0,0,0-.606-1.85c-1.309-3.472-4.994-10.644-13.1-10.89-10.53-.328-12.135-4.7-12.38-6.042-.214-1.229-1.13-1.179-1.327-1.163-1.13.131-1.065,1.376-1.032,1.851a19.514,19.514,0,0,0,4.962,11.118,21.552,21.552,0,0,0,6.779,5.126,27.663,27.663,0,0,0,5.977,2.145h10.759a1.623,1.623,0,0,0-.033-.295M98.2,117.92a22.052,22.052,0,0,1-11.611-6.435,18.118,18.118,0,0,1-3.341-5.29c2.113,1.54,5.585,2.867,11.234,3.046,5.993.18,9.186,5.241,10.628,8.45-3.423-.77-9.2-4.815-11.316-6.452a1.153,1.153,0,0,0-1.588.18,1.1,1.1,0,0,0,.2,1.555,62.716,62.716,0,0,0,7.548,4.946c.328.18.672.36,1,.524-.95-.147-1.866-.311-2.751-.524" transform="translate(132.334 548.189)" fill="#c65439"/>
    <path id="Path_864" data-name="Path 864" d="M122.145,79.982a.918.918,0,0,0-.28-.278,1.156,1.156,0,0,0-.982-.18,1.136,1.136,0,0,0-.819,1.065v.131c-.033.9-.426,6.173-4.487,8.45l-.311.164c-4.945,2.767-16.1,8.973-8.58,30.458.246.7.508,1.408.786,2.145H110.7a13.162,13.162,0,0,1,.213-2.145,9.61,9.61,0,0,1,3.668-6.19,31.333,31.333,0,0,0,9.481-13.232c1.883-5.059,3.095-12.707-1.915-20.388m-8.925,31.851a11.323,11.323,0,0,0-3.144,3.554c-.164-3.554.049-9.137,2.423-12.953a26.065,26.065,0,0,1,4.815-5.683A12.321,12.321,0,0,0,120.2,93.3a1.088,1.088,0,0,0-.491-1.49,1.17,1.17,0,0,0-1.523.491,9.816,9.816,0,0,1-2.423,2.833,28.556,28.556,0,0,0-5.174,6.141c-2.849,4.569-2.964,11.021-2.718,14.82-4.979-17.309,3.929-22.288,8.515-24.826l.311-.18a11.061,11.061,0,0,0,5.126-7.025c5.371,12.135-4.11,24.4-8.6,27.773" transform="translate(134.577 546.317)" fill="#c65439"/>
    <path id="Path_865" data-name="Path 865" d="M116.727,81.34a9.317,9.317,0,0,0-1.966-2.161c-5.338-4.356-13.968-13.739-12.511-21.141a1.092,1.092,0,0,0-.737-1.261,1.165,1.165,0,0,0-1.376.557,54.76,54.76,0,0,0-4.83,19.732q-.1,1.843-.049,3.734a39.282,39.282,0,0,0,7.058,21.944,1.125,1.125,0,0,0,.916.459,1,1,0,0,0,.311-.033,1.139,1.139,0,0,0,.819-1.016,15.878,15.878,0,0,1,9.629-12.9,5.863,5.863,0,0,0,3.095-2.866,5.064,5.064,0,0,0-.359-5.044m-1.687,4.127a3.358,3.358,0,0,1-.393.622,1.92,1.92,0,0,1-.246.262,4.518,4.518,0,0,1-1.342.885,19.485,19.485,0,0,0-3.881,2.276c-.016,0-.016-.016-.033-.016a6.571,6.571,0,0,1-1.163-.442,5.975,5.975,0,0,1-1.016-.655,9.462,9.462,0,0,1-2.62-3.554,18.442,18.442,0,0,1-1.147-3.357,29.751,29.751,0,0,1-.834-6.042,1.126,1.126,0,0,0-1.13-1.1l-.426.082-.2.1-.164.147A1.558,1.558,0,0,0,100.2,75a1.1,1.1,0,0,0-.1.459c0,.066.016.311.033.7.033.573.1,1.457.246,2.538.049.36.1.737.164,1.13.049.229.082.459.131.687a24.545,24.545,0,0,0,.966,3.554c1.016,2.916,2.718,5.765,5.616,7.091a18.026,18.026,0,0,0-4.635,7.943,35.2,35.2,0,0,1-3.405-7.7c-.229-.736-.426-1.473-.606-2.194-.251-1.027-.437-2.049-.6-3.066-.063-.406-.118-.81-.167-1.214-.063-.494-.111-.985-.156-1.475-.034-.4-.07-.794-.093-1.187a31.469,31.469,0,0,1-.082-3.5,45.21,45.21,0,0,1,.344-5.061,1.779,1.779,0,0,1,.033-.294c.082-.655.18-1.278.278-1.9.016-.131.049-.246.066-.36.1-.59.213-1.147.328-1.7a3.271,3.271,0,0,1,.082-.426c.115-.524.229-1.016.344-1.507.408-1.67.851-3.144,1.277-4.421,2.162,8.613,11.758,16.719,13.051,17.783a7.821,7.821,0,0,1,1.114,1.081,3.172,3.172,0,0,1,.835,2.849,3.471,3.471,0,0,1-.229.655" transform="translate(133.756 544.222)" fill="#c65439"/>
    <path id="Path_866" data-name="Path 866" d="M84.085,95.815a4.055,4.055,0,0,0-.194-1.478,6.833,6.833,0,0,1,2.139,1.131,1.12,1.12,0,0,0,.379.18c5.979,12.3,16.726,13.806,16.883,13.824a1.212,1.212,0,0,0,.139.009,1.106,1.106,0,0,0,.14-2.2,19.65,19.65,0,0,1-11.111-6.359,1.1,1.1,0,0,0-.067-.278c-1.564-3.36-1.344-5.592-.9-6.867.022,0,.04.009.062.01a4.129,4.129,0,1,0-3.935-4.371,4.088,4.088,0,0,0,1.764,3.606,8.421,8.421,0,0,0-.46,2.861,30.746,30.746,0,0,1-2.116-5.026c0-.017.007-.033,0-.05a8.125,8.125,0,0,0-.551-1.828c-.226-.853-.437-1.735-.617-2.67-.031-.858.06-3.38,2.036-4.732a4.1,4.1,0,1,0-1.285-3.206,3.981,3.981,0,0,0,.146,1.294,6.274,6.274,0,0,0-1.588,1.459q-.224-2.685-.19-5.746a4.207,4.207,0,1,0-2.242-.238,57.365,57.365,0,0,0,.719,10.227,6.44,6.44,0,0,0-1.274-.585,4.039,4.039,0,0,0-.162-1.4,4.208,4.208,0,0,0-5.234-2.753,4.117,4.117,0,0,0-2.8,5.148A4.209,4.209,0,0,0,79,88.529a4.147,4.147,0,0,0,2.253-1.661c2.7.909,3.3,4.115,3.335,4.294a1.09,1.09,0,0,0,.154.394c.094.285.2.55.3.827a6.533,6.533,0,0,0-3.141-.429,4.192,4.192,0,0,0-6.2,3.36,4.2,4.2,0,0,0,8.382.5" transform="translate(131.762 545.185)" fill="#c65439"/>
    <path id="Path_867" data-name="Path 867" d="M143.129,89.948a4.241,4.241,0,0,0-5.805,1.221,4.059,4.059,0,0,0-.518,1.2,6.4,6.4,0,0,0-1.713.348,30.606,30.606,0,0,0,1.585-11.963,5.185,5.185,0,0,1,2.033-4.156,4.1,4.1,0,1,0-1.285-3.2,4.02,4.02,0,0,0,.149,1.3A6.264,6.264,0,0,0,136.1,76a48.689,48.689,0,0,0-2.91-9.62,4.1,4.1,0,0,0,1.946-3.226,4.2,4.2,0,1,0-4.446,3.87c.115.007.223-.011.335-.013a52,52,0,0,1,1.862,5.193,7.936,7.936,0,0,0-3.985-.4,4.1,4.1,0,1,0,.447,2.173c1.16-.152,3.344-.146,4.405,1.775.01.017.029.023.04.04a36.453,36.453,0,0,1,.65,4.586,7.891,7.891,0,0,0,.02,1.516,1.05,1.05,0,0,0,.07.219,29.057,29.057,0,0,1-.455,5.942,4.122,4.122,0,0,0-1.759-1.693,3.64,3.64,0,1,0-.531,2.37,3.034,3.034,0,0,1,.23.229,4.779,4.779,0,0,1,.814,3.6,25.75,25.75,0,0,1-1.207,2.72,8.457,8.457,0,0,0-1.128,1.855.921.921,0,0,0-.033.162,24.928,24.928,0,0,1-7.8,7.841,1.1,1.1,0,0,0-.408,1.511,1.136,1.136,0,0,0,1.535.4,27.49,27.49,0,0,0,9.387-10.043c.042-.075.081-.158.122-.234a5.058,5.058,0,0,1,3.545-2.2,4.1,4.1,0,0,0,1.725,2.3,4.241,4.241,0,0,0,5.805-1.221,4.087,4.087,0,0,0-1.242-5.709" transform="translate(136.124 544.41)" fill="#c65439"/>
    <path id="Path_868" data-name="Path 868" d="M134.238,68.865c-.1,0-.212.016-.327.016a4.126,4.126,0,0,1-2.293-.852,20,20,0,0,1-1.359,3.783,4.342,4.342,0,0,1,1.866,1.85c.2-.016.393-.048.59-.064h.016a23.57,23.57,0,0,0,1.671-4.34c-.049-.131-.116-.262-.165-.393m.95-8.09c-.016-.36-.066-.7-.115-1.048a20.867,20.867,0,0,0-.557-2.882,22.826,22.826,0,0,0-1.178-3.472,24.6,24.6,0,0,0-3.619-5.879,25.582,25.582,0,0,0-2.048-2.178,23.768,23.768,0,0,0-2.734-2.228,23.364,23.364,0,0,0-2.538-1.571,24.9,24.9,0,0,0-3.373-1.507,23.947,23.947,0,0,0-2.866-.819,24.607,24.607,0,0,0-5.568-.638c-.213,0-.425,0-.621.016a23.693,23.693,0,0,0-5.83.834,24.563,24.563,0,0,0-3.947,1.409,25.587,25.587,0,0,0-2.636,1.425,24.077,24.077,0,0,0-3.93,2.98,22.9,22.9,0,0,0-2.047,2.161,22.552,22.552,0,0,0-2.44,3.488,20.107,20.107,0,0,0-1.327,2.653,22.519,22.519,0,0,0-1.13,3.308,20.936,20.936,0,0,0-.556,2.9,21.753,21.753,0,0,0-.214,3.112,23.806,23.806,0,0,0,4.93,14.524,24.707,24.707,0,0,0,5.272,5.11,24.019,24.019,0,0,0,2.31,1.474h.033a31.475,31.475,0,0,1-.082-3.5.016.016,0,0,1-.016-.017,19.752,19.752,0,0,1-2.194-1.686,21.072,21.072,0,0,1-7.255-15.9,21.693,21.693,0,0,1,43.28-1.736,15.222,15.222,0,0,1,.082,1.736,20.864,20.864,0,0,1-.655,5.191,20,20,0,0,1-1.359,3.783,21.693,21.693,0,0,1-12.675,11.2,15.211,15.211,0,0,1-2.292.622,3.171,3.171,0,0,1,.835,2.849c.786-.18,1.571-.393,2.325-.639a25.264,25.264,0,0,0,3.291-1.36,17.567,17.567,0,0,0,1.8-1.015,23.84,23.84,0,0,0,4.83-3.832h.016a23.965,23.965,0,0,0,4.323-6.042h.016a24.176,24.176,0,0,0,2.554-10.759q0-1.032-.1-2.064m-33.652,21.42a24.583,24.583,0,0,0,.966,3.554,19.467,19.467,0,0,0,2.7.77,18.5,18.5,0,0,1-1.147-3.357,17.443,17.443,0,0,1-2.522-.966" transform="translate(132.897 542.549)" fill="#c65439"/>
    <path id="Path_869" data-name="Path 869" d="M129.8,58.662a1.493,1.493,0,0,1-1.472-1.2,1.474,1.474,0,0,1,1.2-1.721l16.328-3.021a1.5,1.5,0,0,1,1.751,1.177,1.475,1.475,0,0,1-1.2,1.722l-16.328,3.02a1.51,1.51,0,0,1-.278.026" transform="translate(136.799 543.851)" fill="#c65439"/>
    <path id="Path_870" data-name="Path 870" d="M124.4,49.566a1.5,1.5,0,0,1-1.132-.509,1.457,1.457,0,0,1,.15-2.08l21.213-18.117a1.515,1.515,0,0,1,2.115.147,1.458,1.458,0,0,1-.149,2.08L125.385,49.2a1.514,1.514,0,0,1-.983.361" transform="translate(136.302 541.623)" fill="#c65439"/>
    <path id="Path_871" data-name="Path 871" d="M114.766,45.468a1.45,1.45,0,0,1-.359-.044,1.472,1.472,0,0,1-1.1-1.783l9.584-38.4a1.5,1.5,0,0,1,1.814-1.081,1.473,1.473,0,0,1,1.1,1.784l-9.584,38.4a1.5,1.5,0,0,1-1.455,1.124" transform="translate(135.415 539.379)" fill="#c65439"/>
    <path id="Path_872" data-name="Path 872" d="M105.186,45.176a1.494,1.494,0,0,1-1.457-1.128L94.223,5.437a1.473,1.473,0,0,1,1.1-1.781,1.5,1.5,0,0,1,1.811,1.087l9.507,38.611a1.473,1.473,0,0,1-1.1,1.781,1.528,1.528,0,0,1-.355.042" transform="translate(133.658 539.333)" fill="#c65439"/>
    <path id="Path_873" data-name="Path 873" d="M88.856,58.666a1.521,1.521,0,0,1-.287-.027l-16.05-3.06a1.476,1.476,0,0,1-1.187-1.73,1.5,1.5,0,0,1,1.758-1.166l16.05,3.06a1.475,1.475,0,0,1,1.187,1.729,1.494,1.494,0,0,1-1.471,1.195" transform="translate(131.552 543.847)" fill="#c65439"/>
    <path id="Path_874" data-name="Path 874" d="M94.487,49.309a1.514,1.514,0,0,1-1.007-.38L72.757,30.5a1.461,1.461,0,0,1-.107-2.085,1.523,1.523,0,0,1,2.121-.1L95.494,46.738a1.461,1.461,0,0,1,.107,2.085,1.514,1.514,0,0,1-1.114.486" transform="translate(131.641 541.571)" fill="#c65439"/>
    <path id="Path_875" data-name="Path 875" d="M109.419,43.725h-.033a1.487,1.487,0,0,1-1.468-1.507l.629-29.337a1.489,1.489,0,0,1,1.5-1.444h.032a1.487,1.487,0,0,1,1.468,1.507l-.628,29.337a1.489,1.489,0,0,1-1.5,1.444" transform="translate(134.923 540.053)" fill="#c65439"/>
    <path id="Path_876" data-name="Path 876" d="M99.466,45.4a1.506,1.506,0,0,1-1.283-.709L84.373,22.354a1.462,1.462,0,0,1,.5-2.027,1.517,1.517,0,0,1,2.062.494l13.809,22.334a1.462,1.462,0,0,1-.5,2.027,1.5,1.5,0,0,1-.778.215" transform="translate(132.735 540.851)" fill="#c65439"/>
    <path id="Path_877" data-name="Path 877" d="M90.594,53.71a1.516,1.516,0,0,1-.657-.15L75.6,46.663a1.467,1.467,0,0,1-.689-1.974,1.513,1.513,0,0,1,2.007-.677l14.341,6.9a1.467,1.467,0,0,1,.689,1.974,1.505,1.505,0,0,1-1.35.827" transform="translate(131.87 543.038)" fill="#c65439"/>
    <path id="Path_878" data-name="Path 878" d="M128.4,53.35a1.506,1.506,0,0,1-1.332-.793,1.464,1.464,0,0,1,.637-1.991l13.818-7.1a1.514,1.514,0,0,1,2.025.625,1.465,1.465,0,0,1-.637,1.992l-13.817,7.1a1.515,1.515,0,0,1-.693.167" transform="translate(136.67 542.986)" fill="#c65439"/>
    <path id="Path_879" data-name="Path 879" d="M120.247,46.035a1.5,1.5,0,0,1-.776-.215,1.46,1.46,0,0,1-.5-2.026L132.6,21.71a1.511,1.511,0,0,1,2.06-.5,1.46,1.46,0,0,1,.5,2.026L121.531,45.326a1.5,1.5,0,0,1-1.283.71" transform="translate(135.92 540.933)" fill="#c65439"/>
    <path id="Path_880" data-name="Path 880" d="M97.41,80.842c.023.393.058.791.093,1.187-.037-.394-.1-.8-.126-1.187-.066-1.2-.1-2.358-.066-3.521a41.289,41.289,0,0,1,.36-5.044,45.21,45.21,0,0,0-.344,5.061,31.469,31.469,0,0,0,.082,3.5" transform="translate(133.945 545.653)" fill="#c65439"/>
    <path id="Path_881" data-name="Path 881" d="M97.642,82.682q-.092-.742-.156-1.475c.045.49.093.981.156,1.475" transform="translate(133.963 546.475)" fill="#c65439"/>
    <path id="Path_882" data-name="Path 882" d="M97.8,83.772c-.064-.407-.115-.81-.167-1.214.05.4.1.808.167,1.214" transform="translate(133.976 546.6)" fill="#c65439"/>
    <path id="Path_883" data-name="Path 883" d="M98.382,86.736c-.25-1.03-.442-2.052-.6-3.066.163,1.018.348,2.04.6,3.066" transform="translate(133.99 546.702)" fill="#c65439"/>
    <path id="Path_884" data-name="Path 884" d="M99.712,73.888v.033c0,.066,0,.311.016.7-.016-.393-.034-.639-.034-.7a1.116,1.116,0,0,1,.1-.459,1.255,1.255,0,0,0-.081.426" transform="translate(134.166 545.762)" fill="#c65439"/>
    <path id="Path_885" data-name="Path 885" d="M111.884,84.664A20.419,20.419,0,0,0,108,86.94a19.59,19.59,0,0,1,3.881-2.276" transform="translate(134.931 546.794)" fill="#c65439"/>
    <path id="Path_886" data-name="Path 886" d="M112.178,0C89.087,0,70.305,18.472,70.305,41.186v88.068h83.761V41.186C154.066,18.472,135.267,0,112.178,0m39.71,127.108H72.483V41.186a39.6,39.6,0,0,1,.786-7.811c.213-.966.442-1.932.72-2.866A39.367,39.367,0,0,1,96.375,5.388a26.657,26.657,0,0,1,2.571-1,40.112,40.112,0,0,1,28.2.654c.9.344,1.786.737,2.636,1.163a39.355,39.355,0,0,1,20.781,24.924q.369,1.374.639,2.8a37.827,37.827,0,0,1,.688,7.255Z" transform="translate(131.46 539)" fill="#c65439"/>
    <g id="Group_798" data-name="Group 798" transform="translate(178.125 762.31)">
      <g id="Group_799" data-name="Group 799">
        <path id="Path_981" data-name="Path 981" d="M0,.289A8.986,8.986,0,0,1,1.7.138a2.963,2.963,0,0,1,1.98.527,1.5,1.5,0,0,1,.6,1.271A1.712,1.712,0,0,1,3.062,3.52v.022a1.859,1.859,0,0,1,1.489,1.81A1.95,1.95,0,0,1,3.94,6.8a3.626,3.626,0,0,1-2.494.675A10.822,10.822,0,0,1,0,7.384ZM.931,3.243h.847c.984,0,1.561-.515,1.561-1.209C3.339,1.186,2.7.856,1.757.856A4.125,4.125,0,0,0,.931.918Zm0,3.457a5.092,5.092,0,0,0,.78.043c.965,0,1.853-.354,1.853-1.4,0-.984-.845-1.391-1.862-1.391H.931Z" transform="translate(0 0.192)" fill="#b85b41"/>
        <path id="Path_982" data-name="Path 982" d="M5.963,6.652l-.077-.7H5.855a1.891,1.891,0,0,1-1.582.828,1.533,1.533,0,0,1-1.587-1.6C2.686,3.835,3.8,3.1,5.8,3.113V3A1.118,1.118,0,0,0,4.625,1.708a2.456,2.456,0,0,0-1.348.414l-.215-.669a3.053,3.053,0,0,1,1.7-.491c1.585,0,1.97,1.16,1.97,2.277V5.32a8.652,8.652,0,0,0,.084,1.333Zm-.139-2.84c-1.029-.023-2.2.172-2.2,1.253a.866.866,0,0,0,.888.967A1.3,1.3,0,0,0,5.772,5.1a1.254,1.254,0,0,0,.053-.322Z" transform="translate(3.744 1.341)" fill="#b85b41"/>
        <path id="Path_983" data-name="Path 983" d="M6.392,4.795h.022c.127-.182.309-.407.46-.589l1.52-1.788H9.527l-2,2.13L9.805,7.6H8.659L6.873,5.116l-.481.536V7.6H5.458V0h.934Z" transform="translate(7.607)" fill="#b85b41"/>
        <path id="Path_984" data-name="Path 984" d="M8.746,4.056A1.72,1.72,0,0,0,10.52,5.988,3.214,3.214,0,0,0,11.954,5.7l.163.726a3.977,3.977,0,0,1-1.724.345A2.5,2.5,0,0,1,7.846,3.963c0-1.68.919-3,2.427-3,1.692,0,2.142,1.6,2.142,2.622a3.812,3.812,0,0,1-.034.473Zm2.76-.726c.01-.643-.249-1.647-1.307-1.647-.95,0-1.369.944-1.443,1.647Z" transform="translate(10.936 1.339)" fill="#b85b41"/>
        <path id="Path_985" data-name="Path 985" d="M10.714,2.826c0-.657-.01-1.221-.043-1.739h.823l.034,1.1h.041A1.581,1.581,0,0,1,13,.961a.921.921,0,0,1,.266.033V1.95a1.3,1.3,0,0,0-.318-.033c-.668,0-1.135.541-1.266,1.3a3.417,3.417,0,0,0-.038.471V6.663h-.934Z" transform="translate(15.931 1.339)" fill="#b85b41"/>
        <path id="Path_986" data-name="Path 986" d="M13.453,1.01l1.135,3.062c.115.342.244.749.328,1.06h.024c.1-.311.2-.709.333-1.082L16.3,1.01h1L15.883,4.7A7.854,7.854,0,0,1,14.1,7.945a2.562,2.562,0,0,1-1.154.61l-.237-.792a2.427,2.427,0,0,0,.823-.46,2.831,2.831,0,0,0,.792-1.048A.668.668,0,0,0,14.4,6.03a.8.8,0,0,0-.062-.247L12.424,1.01Z" transform="translate(18.571 1.812)" fill="#b85b41"/>
        <path id="Path_987" data-name="Path 987" d="M19.764,6.652l-.077-.7h-.031a1.891,1.891,0,0,1-1.582.828,1.533,1.533,0,0,1-1.587-1.6c0-1.345,1.113-2.081,3.114-2.068V3a1.118,1.118,0,0,0-1.175-1.289,2.456,2.456,0,0,0-1.348.414l-.215-.669a3.053,3.053,0,0,1,1.7-.491c1.585,0,1.97,1.16,1.97,2.277V5.32a8.652,8.652,0,0,0,.084,1.333Zm-.139-2.84c-1.029-.023-2.2.172-2.2,1.253a.866.866,0,0,0,.888.967A1.3,1.3,0,0,0,19.573,5.1a1.253,1.253,0,0,0,.053-.322Z" transform="translate(24.634 1.341)" fill="#b85b41"/>
        <path id="Path_988" data-name="Path 988" d="M19.284,2.6c0-.577-.01-1.049-.043-1.51h.835l.055.922h.019A1.891,1.891,0,0,1,21.865.961c.716,0,1.829.461,1.829,2.373V6.663h-.941V3.45c0-.9-.311-1.649-1.2-1.649a1.355,1.355,0,0,0-1.262,1.038,1.474,1.474,0,0,0-.065.471V6.663h-.943Z" transform="translate(28.754 1.339)" fill="#b85b41"/>
        <path id="Path_989" data-name="Path 989" d="M26.881,0V6.26c0,.462.007.986.041,1.338h-.845l-.043-.9h-.022a1.92,1.92,0,0,1-1.764,1.017,2.364,2.364,0,0,1-2.217-2.636A2.478,2.478,0,0,1,24.353,2.3a1.734,1.734,0,0,1,1.563.792h.022V0Zm-.943,4.527a1.741,1.741,0,0,0-.043-.4,1.386,1.386,0,0,0-1.36-1.092c-.972,0-1.551.857-1.551,2,0,1.048.512,1.915,1.53,1.915a1.416,1.416,0,0,0,1.381-1.125,1.672,1.672,0,0,0,.043-.407Z" transform="translate(32.931)" fill="#b85b41"/>
        <path id="Path_990" data-name="Path 990" d="M26.576,2.6c0-.577-.01-1.049-.043-1.51h.823l.045.9h.029A1.78,1.78,0,0,1,29.058.961a1.546,1.546,0,0,1,1.467,1.118h.022a2.261,2.261,0,0,1,.577-.727A1.7,1.7,0,0,1,32.271.961c.685,0,1.7.484,1.7,2.419V6.663h-.922V3.507c0-1.069-.364-1.716-1.125-1.716a1.239,1.239,0,0,0-1.111.92,1.791,1.791,0,0,0-.077.508V6.663h-.922V3.324c0-.886-.361-1.533-1.08-1.533a1.314,1.314,0,0,0-1.166,1.015A1.507,1.507,0,0,0,27.5,3.3V6.663h-.922Z" transform="translate(39.717 1.339)" fill="#b85b41"/>
        <path id="Path_991" data-name="Path 991" d="M35.078,5.065c0,.577.012,1.082.045,1.52h-.835l-.055-.909h-.019A1.935,1.935,0,0,1,32.5,6.714c-.814,0-1.788-.484-1.788-2.442V1.01h.941V4.1c0,1.059.3,1.773,1.159,1.773a1.37,1.37,0,0,0,1.24-.92,1.561,1.561,0,0,0,.084-.52V1.01h.943Z" transform="translate(45.895 1.408)" fill="#b85b41"/>
        <path id="Path_992" data-name="Path 992" d="M37.548,6.442a3.269,3.269,0,0,1-1.489.322,2.561,2.561,0,0,1-2.578-2.841A2.734,2.734,0,0,1,36.263.966a2.967,2.967,0,0,1,1.307.288l-.215.782a2.051,2.051,0,0,0-1.092-.265,1.876,1.876,0,0,0-1.831,2.1,1.857,1.857,0,0,0,1.8,2.084,2.535,2.535,0,0,0,1.156-.278Z" transform="translate(50.025 1.346)" fill="#b85b41"/>
        <path id="Path_993" data-name="Path 993" d="M36.086,0h.943V3.232h.019a1.736,1.736,0,0,1,.677-.663,1.932,1.932,0,0,1,.962-.268c.694,0,1.807.428,1.807,2.217V7.6h-.941V4.625c0-.835-.311-1.542-1.2-1.542a1.348,1.348,0,0,0-1.262.941,1.117,1.117,0,0,0-.065.45V7.6h-.943Z" transform="translate(53.926)" fill="#b85b41"/>
        <path id="Path_994" data-name="Path 994" d="M40.434,2.6c0-.577-.01-1.049-.043-1.51h.823l.045.9h.029A1.78,1.78,0,0,1,42.916.961a1.546,1.546,0,0,1,1.467,1.118h.022a2.261,2.261,0,0,1,.577-.727A1.7,1.7,0,0,1,46.129.961c.685,0,1.7.484,1.7,2.419V6.663h-.922V3.507c0-1.069-.364-1.716-1.125-1.716a1.239,1.239,0,0,0-1.111.92,1.791,1.791,0,0,0-.077.508V6.663h-.922V3.324c0-.886-.361-1.533-1.08-1.533A1.314,1.314,0,0,0,41.43,2.806a1.507,1.507,0,0,0-.074.492V6.663h-.922Z" transform="translate(60.461 1.339)" fill="#b85b41"/>
        <path id="Path_995" data-name="Path 995" d="M49.49,3.825a2.635,2.635,0,0,1-2.578,2.956,2.569,2.569,0,0,1-2.482-2.863C44.429,2.055,45.561.962,47,.962A2.559,2.559,0,0,1,49.49,3.825m-4.11.057c0,1.219.654,2.14,1.573,2.14.9,0,1.573-.908,1.573-2.163,0-.942-.436-2.138-1.549-2.138s-1.6,1.1-1.6,2.161" transform="translate(67.151 1.341)" fill="#b85b41"/>
        <path id="Path_996" data-name="Path 996" d="M47.511,2.826c0-.657-.01-1.221-.043-1.739h.823l.034,1.1h.041A1.581,1.581,0,0,1,49.8.961a.921.921,0,0,1,.266.033V1.95a1.3,1.3,0,0,0-.318-.033c-.665,0-1.135.541-1.264,1.3a3.045,3.045,0,0,0-.043.471V6.663h-.931Z" transform="translate(71.386 1.339)" fill="#b85b41"/>
        <path id="Path_997" data-name="Path 997" d="M50.1,4.056a1.721,1.721,0,0,0,1.776,1.932A3.21,3.21,0,0,0,53.3,5.7l.163.726a3.976,3.976,0,0,1-1.724.345,2.5,2.5,0,0,1-2.547-2.807c0-1.68.919-3,2.427-3,1.692,0,2.142,1.6,2.142,2.622a3.811,3.811,0,0,1-.034.473Zm2.76-.726c.01-.643-.249-1.647-1.307-1.647-.95,0-1.369.944-1.443,1.647Z" transform="translate(73.793 1.339)" fill="#b85b41"/>
        <path id="Path_998" data-name="Path 998" d="M51.89,3.335a.633.633,0,0,1,.644-.675.624.624,0,0,1,.63.675.638.638,0,1,1-1.274,0" transform="translate(77.55 4.006)" fill="#b85b41"/>
        <path id="Path_999" data-name="Path 999" d="M53.263,3.335a.633.633,0,0,1,.644-.675.624.624,0,0,1,.63.675.638.638,0,1,1-1.274,0" transform="translate(79.463 4.006)" fill="#b85b41"/>
      </g>
    </g>
  </g>
</svg>
