<?xml version="1.0" encoding="UTF-8" standalone="no"?>
<!-- Created with Inkscape (http://www.inkscape.org/) -->

<svg

   xmlns="http://www.w3.org/2000/svg"
   version="1.1"
   id="svg2"
   xml:space="preserve"
   width="379"
   height="92"
   viewBox="0 0 379 92">
   <defs
     id="defs6"><clipPath
       clipPathUnits="userSpaceOnUse"
       id="clipPath18"><path
         d="M 0,283.465 H 283.465 V 0 H 0 Z"
         id="path16"
         /></clipPath></defs><sodipodiNamedview
     pagecolor="#ffffff"
     bordercolor="#666666"
     id="namedview4" /><g
     id="g10"
     transform="matrix(1.3333333,0,0,-1.3333333,0,92.00022)"><g
       id="g12"
       transform="matrix(1.2049714,0,0,1.2049714,-24.818097,-148.59599)"><g
         id="g14"
         clip-path="url(#clipPath18)"><g
           id="g20"
           transform="translate(30.244,158.6474)"><path
             d="M 0,0 C 0.08,0 0.302,0.179 0.667,0.538 1.099,0.937 1.348,1.159 1.415,1.206 L 3.766,-0.09 C 2.843,-1.278 2.281,-1.873 2.082,-1.873 c -0.06,0 -0.432,0.18 -1.115,0.538 -0.685,0.359 -1.09,0.582 -1.216,0.668 -0.385,-0.359 -0.784,-0.751 -1.195,-1.176 -0.279,0.08 -0.688,0.263 -1.226,0.548 -0.564,0.293 -0.936,0.531 -1.116,0.717 0.664,0.738 1.229,1.322 1.694,1.754 C -1.933,1.017 -1.583,0.78 -1.046,0.469 -0.508,0.156 -0.159,0 0,0 M 6.515,-9.234 C 6.382,-9.573 6.16,-10.045 5.848,-10.649 5.502,-11.34 5.25,-11.775 5.09,-11.954 h -9.643 c -0.79,0 -1.418,0.272 -1.883,0.817 -0.444,0.511 -0.667,1.169 -0.667,1.972 0,0.578 0.203,1.548 0.608,2.909 0.458,1.514 0.873,2.271 1.245,2.271 -0.213,-0.823 -0.319,-1.557 -0.319,-2.201 0,-0.797 0.203,-1.435 0.608,-1.913 0.544,-0.617 1.219,-0.926 2.022,-0.926 h 7.84 L 4.862,-8.557 C 4.695,-7.953 4.35,-7.318 3.826,-6.655 l 1.504,2.84 c 0.982,-1.322 1.474,-2.398 1.474,-3.228 0,-0.611 -0.096,-1.341 -0.289,-2.191"
             style="fill:#44171b;fill-opacity:1;fill-rule:nonzero;stroke:none"
             id="path22"
             inkscapeConnector-curvature="0" /></g><g
           id="g24"
           transform="translate(38.3333,155.1908)"><path
             d="m 0,0 c 0,0.173 0.272,0.747 0.817,1.723 0.511,0.917 0.87,1.505 1.076,1.763 0.113,0 0.315,-1.45 0.607,-4.353 0.114,-1.129 0.17,-2.215 0.17,-3.258 0,-1.806 -0.505,-3.35 -1.515,-4.632 z"
             style="fill:#44171b;fill-opacity:1;fill-rule:nonzero;stroke:none"
             id="path26"
             inkscapeConnector-curvature="0" /></g><g
           id="g28"
           transform="translate(44.1512,150.9569)"><path
             d="M 0,0 C 0.319,0.771 0.681,1.657 1.086,2.66 1.451,2.507 2.049,1.904 2.879,0.852 3.709,-0.201 4.125,-0.91 4.125,-1.275 4.125,-3.826 3.298,-5.833 1.644,-7.302 0.987,-7.886 0.501,-8.179 0.189,-8.179 c -1.474,0 -3.29,0.502 -5.449,1.505 -0.279,0.178 -0.568,0.358 -0.866,0.537 0.717,-0.166 1.391,-0.248 2.022,-0.248 0.817,0 1.783,0.146 2.898,0.438 1.349,0.352 2.634,1.484 3.856,3.397 -0.253,0.411 -0.644,0.843 -1.175,1.295 z"
             style="fill:#44171b;fill-opacity:1;fill-rule:nonzero;stroke:none"
             id="path30"
             inkscapeConnector-curvature="0" /></g><g
           id="g32"
           transform="translate(49.6903,157.2333)"><path
             d="M 0,0 C 0.385,0.558 0.973,1.341 1.763,2.351 1.836,1.507 1.932,0.388 2.052,-1.006 L 2.451,-5.25 C 2.497,-5.862 2.546,-6.476 2.6,-7.093 2.646,-7.405 2.813,-7.578 3.098,-7.611 H 4.841 V -10.54 H 0.896 c -0.033,0.033 -0.133,1.019 -0.298,2.958 z"
             style="fill:#44171b;fill-opacity:1;fill-rule:nonzero;stroke:none"
             id="path34"
             inkscapeConnector-curvature="0" /></g><g
           id="g36"
           transform="translate(60.4588,144.3021)"><path
             d="m 0,0 c -0.67,-1.029 -1.175,-1.628 -1.514,-1.794 l -1.983,1.166 c -0.225,-0.205 -0.577,-0.58 -1.056,-1.125 -0.816,0.371 -1.49,0.774 -2.022,1.205 0.22,0.393 0.704,0.977 1.455,1.754 0.896,-0.704 1.501,-1.07 1.812,-1.098 0.161,0.081 0.37,0.258 0.628,0.529 0.313,0.326 0.518,0.529 0.618,0.608 z m 1.176,2.391 h -2.102 c -0.771,0 -1.299,0.545 -1.584,1.634 L -3.497,2.391 H -7.551 V 5.25 h 4.692 c 0.067,0.186 0.1,0.571 0.1,1.156 0,0.71 0.206,1.318 0.617,1.823 0.445,0.458 0.9,0.92 1.365,1.385 V 8.368 L -1.026,6.306 C -1.092,5.748 -0.724,5.396 0.08,5.25 h 1.096 z"
             style="fill:#44171b;fill-opacity:1;fill-rule:nonzero;stroke:none"
             id="path38"
             inkscapeConnector-curvature="0" /></g><g
           id="g40"
           transform="translate(63.3284,147.1713)"><path
             d="m 0,0 c -0.226,-0.319 -0.515,-0.478 -0.867,-0.478 h -1.175 v 2.929 h 1.783 c 0.319,0 0.478,0.332 0.478,0.996 0.465,0.797 0.737,1.255 0.817,1.374 0.431,0.684 0.747,1.066 0.946,1.146 0,-0.611 -0.275,-1.783 -0.827,-3.516 h 3.059 c 0.292,0 0.434,0.236 0.428,0.707 0,0.066 -0.006,0.139 -0.02,0.219 v 0.14 C 5.439,4.865 6.08,5.675 6.544,5.947 6.544,5.768 6.536,5.494 6.52,5.125 6.503,4.757 6.495,4.483 6.495,4.304 6.495,3.918 6.392,3.301 6.186,2.451 h 1.823 c 0.119,0 0.179,0.195 0.179,0.588 V 3.327 C 8.182,3.44 8.179,3.533 8.179,3.606 8.982,4.987 9.53,5.679 9.822,5.679 L 9.992,3.566 C 10.018,3.341 10.12,3.099 10.295,2.839 10.471,2.581 10.666,2.451 10.878,2.451 h 0.867 V -0.478 H 9.653 C 9.573,-0.306 9.454,-0.043 9.294,0.309 L 8.766,-0.478 H 5.37 C 5.143,-0.153 4.961,0.01 4.822,0.01 4.781,0.01 4.683,-0.071 4.527,-0.234 4.372,-0.397 4.257,-0.478 4.184,-0.478 H 0.528 C 0.295,-0.16 0.119,0 0,0"
             style="fill:#44171b;fill-opacity:1;fill-rule:nonzero;stroke:none"
             id="path42"
             inkscapeConnector-curvature="0" /></g><g
           id="g44"
           transform="translate(80.0643,156.3466)"><path
             d="M 0,0 C -0.186,-0.326 -0.512,-0.748 -0.977,-1.266 -1.481,-1.823 -1.82,-2.232 -1.992,-2.491 l -0.03,-0.289 0.289,-3.347 C -1.693,-6.532 -1.79,-7.189 -2.022,-8.1 -2.295,-9.135 -2.586,-9.653 -2.899,-9.653 h -3.467 v 2.859 h 2.8 c 0.053,0.285 0.08,0.421 0.08,0.408 0,0.718 -0.11,1.647 -0.329,2.789 -0.186,0.93 -0.369,1.864 -0.548,2.8 -0.206,0.159 -0.479,0.411 -0.817,0.757 0.179,0.445 0.472,1.003 0.876,1.673 0.491,0.798 0.867,1.252 1.126,1.365 V 2.789 C -3.205,2.218 -2.819,1.653 -2.022,1.096 -1.883,1.002 -1.209,0.638 0,0"
             style="fill:#44171b;fill-opacity:1;fill-rule:nonzero;stroke:none"
             id="path46"
             inkscapeConnector-curvature="0" /></g><g
           id="g48"
           transform="translate(81.5584,155.1908)"><path
             d="m 0,0 c 0,0.173 0.272,0.747 0.817,1.723 0.511,0.917 0.87,1.505 1.076,1.763 0.113,0 0.315,-1.45 0.607,-4.353 0.114,-1.129 0.17,-2.215 0.17,-3.258 0,-1.806 -0.505,-3.35 -1.515,-4.632 z"
             style="fill:#44171b;fill-opacity:1;fill-rule:nonzero;stroke:none"
             id="path50"
             inkscapeConnector-curvature="0" /></g><g
           id="g52"
           transform="translate(104.013,144.3412)"><path
             d="m 0,0 c -0.166,-0.259 -0.405,-0.583 -0.717,-0.976 -0.412,-0.517 -0.671,-0.776 -0.778,-0.776 -0.119,0 -0.786,0.382 -2.002,1.146 -0.239,-0.22 -0.578,-0.587 -1.016,-1.107 h -0.119 c -0.094,0 -0.422,0.18 -0.986,0.539 l -0.329,0.209 c -0.26,0.165 -0.475,0.319 -0.648,0.458 0.465,0.584 0.963,1.169 1.494,1.754 0.2,-0.187 0.492,-0.409 0.877,-0.669 0.465,-0.312 0.764,-0.468 0.897,-0.468 0.046,0 0.249,0.176 0.607,0.529 0.126,0.126 0.339,0.345 0.638,0.657 z m 1.056,2.352 h -2.022 c -0.731,0 -1.309,0.571 -1.734,1.713 L -3.656,2.392 h -4.922 c -0.298,0 -0.651,0.109 -1.055,0.329 -0.83,-1.422 -1.402,-2.328 -1.714,-2.721 -0.843,-1.055 -1.707,-1.583 -2.59,-1.583 -0.637,0 -1.62,0.302 -2.949,0.907 -1.387,0.624 -2.221,1.178 -2.5,1.663 0.245,-0.026 0.648,-0.169 1.205,-0.428 0.472,-0.22 0.933,-0.329 1.385,-0.329 0.584,0 1.687,0.456 3.308,1.365 1.54,0.863 2.311,1.554 2.311,2.072 0,0.06 -0.011,0.12 -0.03,0.179 -0.147,0.372 -0.648,1.119 -1.504,2.242 l 1.444,2.301 C -11.015,8.03 -10.56,7.386 -9.902,6.456 -9.318,5.653 -8.684,5.251 -8,5.251 h 4.972 c 0.086,0.186 0.129,0.634 0.129,1.345 0,0.584 0.216,1.149 0.648,1.693 l 1.285,1.325 0.06,-0.647 -0.26,-2.66 c 0,-0.518 0.402,-0.884 1.206,-1.096 h 1.016 z"
             style="fill:#44171b;fill-opacity:1;fill-rule:nonzero;stroke:none"
             id="path54"
             inkscapeConnector-curvature="0" /></g><g
           id="g56"
           transform="translate(109.2933,143.7045)"><path
             d="m 0,0 c 0,0.112 0.347,0.518 1.041,1.215 0.694,0.698 1.101,1.046 1.22,1.046 0.04,0 0.49,-0.26 1.35,-0.782 C 4.471,0.958 4.951,0.697 5.051,0.697 4.745,0.3 4.439,-0.105 4.134,-0.518 3.41,-1.321 2.985,-1.725 2.859,-1.725 0.953,-0.7 0,-0.125 0,0 m -3.108,7.083 c 0.398,0.797 0.873,1.511 1.424,2.142 0.764,0.85 1.468,1.275 2.112,1.275 0.883,0 1.803,-0.252 2.76,-0.757 C 3.805,9.391 4.755,8.886 6.037,8.229 6.675,7.923 7.524,7.604 8.587,7.272 9.384,7.026 9.962,6.904 10.321,6.904 9.928,6.333 9.328,5.493 8.518,4.383 6.65,4.563 5.196,4.652 4.154,4.652 3.609,4.652 2.807,4.375 1.748,3.82 0.689,3.266 -0.09,2.989 -0.588,2.989 l -4.523,-0.02 v 2.948 h 5.101 c 1.042,0 1.812,0.14 2.311,0.419 C 2.128,6.508 1.609,6.791 0.742,7.183 -0.125,7.574 -0.677,7.771 -0.917,7.771 -1.462,7.771 -1.873,7.717 -2.152,7.611 -2.471,7.432 -2.79,7.256 -3.108,7.083"
             style="fill:#44171b;fill-opacity:1;fill-rule:nonzero;stroke:none"
             id="path58"
             inkscapeConnector-curvature="0" /></g><g
           id="g60"
           transform="translate(125.8607,146.6933)"><path
             d="m 0,0 h -3.856 l -0.857,10.261 c 0.353,0.531 0.917,1.272 1.694,2.221 0.16,-1.102 0.322,-2.673 0.488,-4.711 0.173,-2.219 0.323,-3.803 0.449,-4.753 0.066,-0.079 0.371,-0.133 0.916,-0.159 H 0 Z m -1.773,13.957 c -0.141,-0.299 -0.299,-0.551 -0.478,-0.758 h -0.081 c -0.65,0.014 -1.507,-0.331 -2.57,-1.035 0.013,0.172 0.15,0.361 0.409,0.567 0.193,0.146 0.391,0.289 0.597,0.429 -0.259,0.039 -0.627,0.175 -1.106,0.408 v 0.06 c -0.026,0.478 0.137,0.915 0.489,1.31 0.352,0.395 0.773,0.593 1.264,0.593 0.466,0 0.699,-0.159 0.699,-0.479 0,0.014 -0.143,-0.209 -0.429,-0.667 -0.399,0.273 -0.638,0.408 -0.717,0.408 -0.08,0 -0.326,-0.116 -0.737,-0.348 0.258,-0.273 0.687,-0.428 1.285,-0.468 0.464,-0.014 0.922,-0.02 1.375,-0.02"
             style="fill:#44171b;fill-opacity:1;fill-rule:nonzero;stroke:none"
             id="path62"
             inkscapeConnector-curvature="0" /></g><g
           id="g64"
           transform="translate(132.1561,157.9105)"><path
             d="m 0,0 c -0.817,-1.169 -1.362,-1.753 -1.634,-1.753 -0.114,0 -0.854,0.381 -2.222,1.145 -0.272,-0.286 -0.667,-0.654 -1.185,-1.105 -0.206,0.012 -0.588,0.179 -1.146,0.498 -0.458,0.265 -0.816,0.501 -1.076,0.707 0.326,0.425 0.581,0.731 0.767,0.917 0.319,0.344 0.615,0.611 0.888,0.797 1.002,-0.745 1.653,-1.117 1.952,-1.117 0.066,0 0.292,0.17 0.677,0.509 0.471,0.418 0.707,0.634 0.707,0.647 z m 0.896,-8.358 v -2.859 h -1.833 c -0.903,0 -1.524,0.571 -1.862,1.713 l -0.976,-1.713 h -4.026 v 2.859 h 4.653 c 0.1,0.232 0.152,0.637 0.159,1.215 0.007,0.578 0.043,0.927 0.109,1.046 0.147,0.326 0.426,0.701 0.838,1.126 0.325,0.339 0.651,0.678 0.976,1.016 V -5.32 c 0,-0.219 -0.04,-0.546 -0.12,-0.981 -0.08,-0.435 -0.12,-0.756 -0.12,-0.962 0,-0.663 0.482,-1.029 1.445,-1.095 z"
             style="fill:#44171b;fill-opacity:1;fill-rule:nonzero;stroke:none"
             id="path66"
             inkscapeConnector-curvature="0" /></g><g
           id="g68"
           transform="translate(138.7113,156.3466)"><path
             d="M 0,0 C -0.187,-0.326 -0.511,-0.748 -0.977,-1.266 -1.481,-1.823 -1.82,-2.232 -1.993,-2.491 l -0.03,-0.289 0.289,-3.347 C -1.694,-6.532 -1.79,-7.189 -2.023,-8.1 -2.295,-9.135 -2.587,-9.653 -2.899,-9.653 h -3.467 v 2.859 h 2.799 c 0.054,0.285 0.08,0.421 0.08,0.408 0,0.718 -0.109,1.647 -0.329,2.789 -0.186,0.93 -0.369,1.864 -0.548,2.8 -0.206,0.159 -0.478,0.411 -0.817,0.757 0.179,0.445 0.472,1.003 0.877,1.673 0.492,0.798 0.866,1.252 1.125,1.365 V 2.789 C -3.205,2.218 -2.82,1.653 -2.023,1.096 -1.883,1.002 -1.209,0.638 0,0"
             style="fill:#44171b;fill-opacity:1;fill-rule:nonzero;stroke:none"
             id="path70"
             inkscapeConnector-curvature="0" /></g><g
           id="g72"
           transform="translate(150.8343,144.2826)"><path
             d="m 0,0 c 0,-0.12 -0.256,-0.384 -0.767,-0.793 -0.511,-0.408 -0.85,-0.611 -1.016,-0.611 -0.107,0 -0.416,0.21 -0.927,0.632 -0.511,0.422 -0.767,0.679 -0.767,0.772 0,0.1 0.256,0.391 0.767,0.871 0.511,0.482 0.82,0.723 0.927,0.723 0.086,0 0.405,-0.248 0.956,-0.743 C -0.275,0.356 0,0.073 0,0 M 6.097,5.27 V 2.411 H 4.194 c -0.883,0 -1.501,0.557 -1.853,1.673 L 1.385,2.411 h -7.94 c -0.691,0 -1.269,0.285 -1.733,0.856 -0.419,0.532 -0.628,1.149 -0.628,1.853 0,0.571 0.203,1.471 0.607,2.7 0.439,1.342 0.848,2.095 1.226,2.261 -0.18,-0.856 -0.269,-1.557 -0.269,-2.102 0,-0.69 0.186,-1.301 0.558,-1.833 C -6.362,5.562 -5.808,5.27 -5.13,5.27 h 7.142 c 0.1,0.186 0.15,0.634 0.15,1.344 0,0.612 0.209,1.183 0.628,1.714 0.424,0.452 0.853,0.9 1.285,1.345 L 4.134,9.085 3.895,6.345 C 3.835,5.748 4.283,5.389 5.24,5.27 Z"
             style="fill:#44171b;fill-opacity:1;fill-rule:nonzero;stroke:none"
             id="path74"
             inkscapeConnector-curvature="0" /></g><g
           id="g76"
           transform="translate(162.45,152.83)"><path
             d="m 0,0 c -0.146,0.232 -0.335,0.471 -0.567,0.717 -0.299,0.312 -0.546,0.469 -0.739,0.469 -0.298,0 -0.59,-0.23 -0.876,-0.688 0.505,-0.425 0.947,-0.638 1.326,-0.638 0.026,0 0.312,0.047 0.856,0.14 M 1.146,6.027 C 0.887,5.714 0.627,5.399 0.369,5.081 0.043,4.715 -0.256,4.443 -0.528,4.264 L -2.749,5.409 -3.955,4.313 c -0.312,0.014 -1.066,0.412 -2.261,1.196 0.285,0.398 0.843,0.986 1.673,1.763 0.106,-0.126 0.432,-0.349 0.977,-0.668 0.544,-0.318 0.883,-0.484 1.016,-0.498 0.299,0.273 0.76,0.662 1.384,1.166 z m 1.893,-8.408 c 0,-0.505 -0.067,-1.146 -0.2,-1.923 -0.14,-0.843 -0.296,-1.454 -0.468,-1.833 h -9.364 v 2.859 h 8.278 c 0,0.027 0.007,0.067 0.02,0.12 0,0.664 -0.169,1.222 -0.508,1.674 -0.625,-0.857 -1.461,-1.286 -2.51,-1.286 -0.545,0 -1.077,0.163 -1.594,0.489 -0.572,0.352 -0.858,0.786 -0.858,1.304 0,0.831 0.488,1.78 1.46,2.85 0.973,1.069 1.875,1.604 2.705,1.604 0.87,0 1.627,-0.784 2.271,-2.352 0.511,-1.274 0.768,-2.444 0.768,-3.506"
             style="fill:#44171b;fill-opacity:1;fill-rule:nonzero;stroke:none"
             id="path78"
             inkscapeConnector-curvature="0" /></g><g
           id="g80"
           transform="translate(167.9095,157.2333)"><path
             d="M 0,0 C 0.385,0.558 0.973,1.341 1.763,2.351 1.836,1.507 1.933,0.388 2.052,-1.006 L 2.45,-5.25 C 2.497,-5.862 2.547,-6.476 2.6,-7.093 2.646,-7.405 2.813,-7.578 3.098,-7.611 H 4.842 V -10.54 H 0.897 c -0.034,0.033 -0.133,1.019 -0.299,2.958 z"
             style="fill:#44171b;fill-opacity:1;fill-rule:nonzero;stroke:none"
             id="path82"
             inkscapeConnector-curvature="0" /></g><g
           id="g84"
           transform="translate(176.8651,158.5082)"><path
             d="m 0,0 c 0,-0.126 -0.224,-0.359 -0.672,-0.697 -0.449,-0.339 -0.736,-0.509 -0.862,-0.509 -0.186,0 -0.747,0.376 -1.684,1.126 0.067,0.299 0.588,0.827 1.564,1.584 0.14,-0.079 0.45,-0.334 0.932,-0.762 C -0.241,0.313 0,0.066 0,0 M 2.042,-2.222 C 1.976,-2.414 1.735,-2.776 1.321,-3.308 0.905,-3.839 0.634,-4.104 0.509,-4.104 c -0.041,0 -0.38,0.197 -1.017,0.592 -0.638,0.395 -0.993,0.593 -1.066,0.593 -0.259,-0.246 -0.624,-0.627 -1.096,-1.145 h -0.12 c -0.272,0 -0.959,0.415 -2.062,1.245 0.405,0.611 0.927,1.215 1.564,1.813 l 0.927,-0.648 c 0.459,-0.325 0.771,-0.488 0.937,-0.488 0.106,0 0.322,0.176 0.648,0.528 0.398,0.392 0.63,0.611 0.696,0.657 z m 1.266,-9.593 H 1.404 c -0.909,0 -1.507,0.558 -1.792,1.673 -0.187,-0.285 -0.525,-0.843 -1.017,-1.673 h -4.024 v 2.859 h 4.653 c 0.099,0.186 0.149,0.654 0.149,1.405 0,0.597 0.215,1.149 0.648,1.654 0.424,0.451 0.846,0.899 1.264,1.344 0.053,-0.245 0.073,-0.448 0.06,-0.607 L 1.105,-7.84 C 1.046,-8.425 1.468,-8.797 2.371,-8.956 h 0.937 z"
             style="fill:#44171b;fill-opacity:1;fill-rule:nonzero;stroke:none"
             id="path86"
             inkscapeConnector-curvature="0" /></g><g
           id="g88"
           transform="translate(185.7117,156.3466)"><path
             d="M 0,0 C -0.187,-0.326 -0.511,-0.748 -0.976,-1.266 -1.481,-1.823 -1.82,-2.232 -1.993,-2.491 l -0.03,-0.289 0.289,-3.347 C -1.694,-6.532 -1.79,-7.189 -2.023,-8.1 -2.295,-9.135 -2.587,-9.653 -2.899,-9.653 h -3.467 v 2.859 h 2.799 c 0.054,0.285 0.08,0.421 0.08,0.408 0,0.718 -0.109,1.647 -0.329,2.789 -0.186,0.93 -0.368,1.864 -0.548,2.8 -0.206,0.159 -0.478,0.411 -0.817,0.757 0.18,0.445 0.472,1.003 0.877,1.673 0.492,0.798 0.866,1.252 1.125,1.365 V 2.789 C -3.205,2.218 -2.82,1.653 -2.023,1.096 -1.883,1.002 -1.209,0.638 0,0"
             style="fill:#44171b;fill-opacity:1;fill-rule:nonzero;stroke:none"
             id="path90"
             inkscapeConnector-curvature="0" /></g><g
           id="g92"
           transform="translate(187.2064,155.1908)"><path
             d="m 0,0 c 0,0.173 0.272,0.747 0.816,1.723 0.512,0.917 0.871,1.505 1.077,1.763 0.112,0 0.315,-1.45 0.607,-4.353 0.113,-1.129 0.17,-2.215 0.17,-3.258 0,-1.806 -0.505,-3.35 -1.514,-4.632 z"
             style="fill:#44171b;fill-opacity:1;fill-rule:nonzero;stroke:none"
             id="path94"
             inkscapeConnector-curvature="0" /></g><g
           id="g96"
           transform="translate(29.075,131.5853)"><path
             d="M 0,0 -0.911,2.856 C -1.135,3.562 -1.325,4.353 -1.496,5.023 H -1.531 C -1.703,4.353 -1.875,3.544 -2.082,2.856 L -2.976,0 Z M -3.32,-1.6 -4.318,-4.887 H -6.503 L -2.787,6.71 h 2.702 L 3.683,-4.887 H 1.412 L 0.362,-1.6 Z"
             style="fill:#bf9671;fill-opacity:1;fill-rule:nonzero;stroke:none"
             id="path98"
             inkscapeConnector-curvature="0" /></g><g
           id="g100"
           transform="translate(34.3724,138.2953)"><path
             d="m 0,0 h 2.116 v -9.824 h 4.766 v -1.773 H 0 Z"
             style="fill:#bf9671;fill-opacity:1;fill-rule:nonzero;stroke:none"
             id="path102"
             inkscapeConnector-curvature="0" /></g><g
           id="g104"
           transform="translate(43.4046,136.5238)"><path
             d="M 0,0 H -3.304 V 1.771 H 5.454 V 0 H 2.117 V -9.825 H 0 Z"
             style="fill:#bf9671;fill-opacity:1;fill-rule:nonzero;stroke:none"
             id="path106"
             inkscapeConnector-curvature="0" /></g><g
           id="g108"
           transform="translate(52.3328,138.2953)"><path
             d="M 0,0 V -4.646 H 4.903 V 0 H 7.02 V -11.597 H 4.903 v 5.111 H 0 v -5.111 H -2.116 V 0 Z"
             style="fill:#bf9671;fill-opacity:1;fill-rule:nonzero;stroke:none"
             id="path110"
             inkscapeConnector-curvature="0" /></g><g
           id="g112"
           transform="translate(67.4203,131.5853)"><path
             d="M 0,0 -0.912,2.856 C -1.136,3.562 -1.325,4.353 -1.497,5.023 H -1.531 C -1.703,4.353 -1.875,3.544 -2.082,2.856 L -2.977,0 Z M -3.321,-1.6 -4.319,-4.887 H -6.503 L -2.788,6.71 h 2.702 L 3.682,-4.887 H 1.411 L 0.361,-1.6 Z"
             style="fill:#bf9671;fill-opacity:1;fill-rule:nonzero;stroke:none"
             id="path114"
             inkscapeConnector-curvature="0" /></g><g
           id="g116"
           transform="translate(72.7176,138.2953)"><path
             d="M 0,0 H 2.099 V -5.334 H 2.15 c 0.276,0.448 0.568,0.86 0.844,1.257 L 6.022,0 h 2.615 l -3.991,-4.937 4.249,-6.66 H 6.417 L 3.131,-6.28 2.099,-7.519 v -4.078 H 0 Z"
             style="fill:#bf9671;fill-opacity:1;fill-rule:nonzero;stroke:none"
             id="path118"
             inkscapeConnector-curvature="0" /></g><g
           id="g120"
           transform="translate(89.2157,131.8432)"><path
             d="M 0,0 H -4.371 V -3.407 H 0.516 V -5.145 H -6.486 V 6.452 H 0.258 V 4.714 H -4.371 V 1.721 H 0 Z"
             style="fill:#bf9671;fill-opacity:1;fill-rule:nonzero;stroke:none"
             id="path122"
             inkscapeConnector-curvature="0" /></g><g
           id="g124"
           transform="translate(93.6873,128.2299)"><path
             d="m 0,0 c 0.275,-0.034 0.636,-0.052 1.118,-0.052 1.36,0 2.564,0.517 2.564,1.945 0,1.342 -1.17,1.892 -2.632,1.892 H 0 Z m 0,5.334 h 1.084 c 1.462,0 2.289,0.687 2.289,1.669 0,1.084 -0.827,1.583 -2.168,1.583 C 0.585,8.586 0.224,8.552 0,8.5 Z M -2.099,9.91 c 0.671,0.138 1.892,0.241 3.08,0.241 1.565,0 2.529,-0.189 3.32,-0.739 C 5.024,8.981 5.506,8.224 5.506,7.243 5.506,6.177 4.835,5.196 3.579,4.731 V 4.697 C 4.8,4.388 5.918,3.424 5.918,1.824 5.918,0.792 5.471,-0.017 4.8,-0.567 3.974,-1.29 2.615,-1.651 0.499,-1.651 c -1.17,0 -2.065,0.086 -2.598,0.155 z"
             style="fill:#bf9671;fill-opacity:1;fill-rule:nonzero;stroke:none"
             id="path126"
             inkscapeConnector-curvature="0" /></g><g
           id="g128"
           transform="translate(107.1571,133.0131)"><path
             d="m 0,0 h 1.255 c 1.429,0 2.323,0.758 2.323,1.909 0,1.274 -0.894,1.86 -2.271,1.86 C 0.636,3.769 0.206,3.717 0,3.665 Z m -2.099,5.127 c 0.791,0.138 1.978,0.241 3.2,0.241 1.669,0 2.805,-0.275 3.578,-0.929 0.637,-0.533 0.999,-1.341 0.999,-2.323 0,-1.497 -1.015,-2.512 -2.1,-2.907 v -0.052 c 0.826,-0.31 1.325,-1.118 1.618,-2.236 0.362,-1.446 0.671,-2.788 0.912,-3.235 H 3.923 C 3.75,-5.97 3.476,-5.023 3.148,-3.578 2.821,-2.064 2.271,-1.583 1.066,-1.548 H 0 v -4.766 h -2.099 z"
             style="fill:#bf9671;fill-opacity:1;fill-rule:nonzero;stroke:none"
             id="path130"
             inkscapeConnector-curvature="0" /></g><g
           id="g132"
           transform="translate(121.3319,131.8432)"><path
             d="M 0,0 H -4.37 V -3.407 H 0.516 V -5.145 H -6.486 V 6.452 H 0.258 V 4.714 H -4.37 V 1.721 H 0 Z"
             style="fill:#bf9671;fill-opacity:1;fill-rule:nonzero;stroke:none"
             id="path134"
             inkscapeConnector-curvature="0" /></g><g
           id="g136"
           transform="translate(123.7044,126.6986)"><path
             d="M 0,0 V 11.597 H 2.409 L 5.402,6.624 C 6.177,5.334 6.848,3.992 7.382,2.736 H 7.416 C 7.278,4.284 7.227,5.782 7.227,7.553 v 4.044 h 1.96 L 9.187,0 H 7.002 L 3.975,5.093 C 3.235,6.366 2.46,7.794 1.893,9.103 L 1.841,9.085 C 1.927,7.588 1.944,6.057 1.944,4.147 V 0 Z"
             style="fill:#bf9671;fill-opacity:1;fill-rule:nonzero;stroke:none"
             id="path138"
             inkscapeConnector-curvature="0" /></g><g
           id="g140"
           transform="translate(137.5531,136.5238)"><path
             d="M 0,0 H -3.304 V 1.771 H 5.454 V 0 H 2.116 V -9.825 H 0 Z"
             style="fill:#bf9671;fill-opacity:1;fill-rule:nonzero;stroke:none"
             id="path142"
             inkscapeConnector-curvature="0" /></g><g
           id="g144"
           transform="translate(153.5687,131.5853)"><path
             d="M 0,0 -0.912,2.856 C -1.135,3.562 -1.324,4.353 -1.497,5.023 H -1.531 C -1.704,4.353 -1.875,3.544 -2.082,2.856 L -2.976,0 Z M -3.32,-1.6 -4.318,-4.887 H -6.503 L -2.787,6.71 h 2.701 L 3.682,-4.887 H 1.411 L 0.361,-1.6 Z"
             style="fill:#bf9671;fill-opacity:1;fill-rule:nonzero;stroke:none"
             id="path146"
             inkscapeConnector-curvature="0" /></g><g
           id="g148"
           transform="translate(170.7371,127.0434)"><path
             d="m 0,0 c -0.499,-0.259 -1.6,-0.517 -2.994,-0.517 -3.681,0 -5.919,2.306 -5.919,5.833 0,3.82 2.65,6.125 6.194,6.125 1.394,0 2.392,-0.293 2.823,-0.516 L -0.361,9.239 c -0.551,0.241 -1.307,0.448 -2.271,0.448 -2.358,0 -4.061,-1.48 -4.061,-4.268 0,-2.546 1.497,-4.181 4.043,-4.181 0.861,0 1.755,0.173 2.306,0.431 z"
             style="fill:#bf9671;fill-opacity:1;fill-rule:nonzero;stroke:none"
             id="path150"
             inkscapeConnector-curvature="0" /></g><g
           id="g152"
           transform="translate(178.305,131.5853)"><path
             d="M 0,0 -0.912,2.856 C -1.135,3.562 -1.324,4.353 -1.496,5.023 H -1.531 C -1.703,4.353 -1.875,3.544 -2.082,2.856 L -2.976,0 Z M -3.32,-1.6 -4.318,-4.887 H -6.503 L -2.787,6.71 h 2.702 L 3.682,-4.887 H 1.411 L 0.362,-1.6 Z"
             style="fill:#bf9671;fill-opacity:1;fill-rule:nonzero;stroke:none"
             id="path154"
             inkscapeConnector-curvature="0" /></g><g
           id="g156"
           transform="translate(185.702,133.0131)"><path
             d="m 0,0 h 1.256 c 1.428,0 2.323,0.758 2.323,1.909 0,1.274 -0.895,1.86 -2.271,1.86 C 0.637,3.769 0.207,3.717 0,3.665 Z m -2.099,5.127 c 0.791,0.138 1.978,0.241 3.2,0.241 1.67,0 2.805,-0.275 3.579,-0.929 0.636,-0.533 0.998,-1.341 0.998,-2.323 0,-1.497 -1.015,-2.512 -2.099,-2.907 v -0.052 c 0.825,-0.31 1.324,-1.118 1.617,-2.236 0.362,-1.446 0.671,-2.788 0.912,-3.235 H 3.923 C 3.751,-5.97 3.476,-5.023 3.149,-3.578 2.821,-2.064 2.271,-1.583 1.067,-1.548 H 0 v -4.766 h -2.099 z"
             style="fill:#bf9671;fill-opacity:1;fill-rule:nonzero;stroke:none"
             id="path158"
             inkscapeConnector-curvature="0" /></g><g
           id="g160"
           transform="translate(244.2503,156.9242)"><path
             d="m 0,0 c 0.088,-0.281 0.179,-0.558 0.261,-0.837 0.134,-0.456 0.262,-0.913 0.393,-1.371 0.245,-0.857 0.49,-1.715 0.734,-2.573 0.226,-0.794 0.458,-1.586 0.677,-2.382 0.233,-0.843 0.455,-1.691 0.681,-2.536 0.273,-1.023 0.551,-2.044 0.817,-3.069 0.286,-1.096 0.562,-2.196 0.839,-3.294 0.279,-1.108 0.556,-2.215 0.832,-3.324 0.207,-0.833 0.418,-1.665 0.612,-2.501 0.07,-0.3 0.142,-0.6 0.216,-0.899 0.11,-0.437 0.298,-0.838 0.599,-1.173 0.282,-0.313 0.633,-0.514 1.065,-0.553 0.132,-0.012 0.263,-0.041 0.394,-0.068 0.331,-0.066 0.628,0.018 0.906,0.193 0.19,0.119 0.317,0.294 0.431,0.482 0.235,0.386 0.422,0.799 0.627,1.201 0.035,0.067 0.065,0.137 0.103,0.202 0.024,0.043 0.056,0.083 0.087,0.121 0.022,0.027 0.055,0.049 0.087,0.029 0.027,-0.015 0.054,-0.044 0.061,-0.073 0.014,-0.047 0.014,-0.098 0.016,-0.148 0.017,-0.311 -0.014,-0.619 -0.054,-0.926 -0.018,-0.14 -0.064,-0.276 -0.105,-0.412 -0.11,-0.367 -0.222,-0.735 -0.337,-1.101 -0.14,-0.445 -0.274,-0.893 -0.428,-1.335 -0.201,-0.575 -0.4,-1.151 -0.652,-1.707 -0.212,-0.466 -0.48,-0.898 -0.809,-1.294 -0.293,-0.351 -0.644,-0.631 -1.009,-0.899 -0.08,-0.06 -0.157,-0.123 -0.236,-0.186 -0.181,-0.142 -0.373,-0.193 -0.608,-0.14 -0.405,0.091 -0.736,0.304 -1.054,0.555 -0.361,0.286 -0.616,0.66 -0.889,1.017 -0.291,0.38 -0.53,0.791 -0.742,1.221 -0.227,0.459 -0.39,0.94 -0.521,1.433 -0.168,0.628 -0.335,1.257 -0.521,1.88 -0.24,0.807 -0.469,1.617 -0.698,2.428 -0.229,0.81 -0.456,1.621 -0.676,2.435 -0.163,0.602 -0.317,1.208 -0.472,1.814 -0.212,0.832 -0.421,1.664 -0.631,2.497 -0.155,0.614 -0.318,1.227 -0.461,1.844 -0.144,0.625 -0.312,1.245 -0.455,1.87 -0.157,0.682 -0.331,1.36 -0.498,2.04 -0.156,0.64 -0.311,1.279 -0.474,1.917 -0.192,0.76 -0.392,1.517 -0.588,2.276 -0.104,0.403 -0.205,0.807 -0.309,1.211 -0.162,0.63 -0.325,1.259 -0.488,1.888 -0.021,0.081 -0.044,0.161 -0.066,0.242 -0.015,0.054 10e-4,0.1 0.046,0.132 0.101,0.074 0.207,0.142 0.306,0.218 0.43,0.334 0.886,0.632 1.345,0.922 0.489,0.31 1.008,0.559 1.566,0.723 0.022,0.007 0.047,0.006 0.08,0.01"
             style="fill:#bf9671;fill-opacity:1;fill-rule:nonzero;stroke:none"
             id="path162"
             inkscapeConnector-curvature="0" /></g><g
           id="g164"
           transform="translate(221.7616,144.5551)"><path
             d="m 0,0 c 0.054,0.286 0.099,0.575 0.164,0.859 0.177,0.772 0.358,1.542 0.546,2.311 0.311,1.271 0.627,2.541 0.943,3.81 0.188,0.752 0.374,1.505 0.571,2.254 0.184,0.702 0.38,1.4 0.574,2.099 0.227,0.819 0.456,1.638 0.689,2.456 0.112,0.393 0.232,0.784 0.352,1.175 0.27,0.877 0.536,1.755 0.816,2.629 0.278,0.866 0.569,1.728 0.86,2.59 0.223,0.664 0.454,1.327 0.683,1.989 0.251,0.726 0.504,1.451 0.758,2.176 0.336,0.961 0.671,1.923 1.01,2.883 0.281,0.795 0.564,1.589 0.848,2.383 0.272,0.763 0.552,1.524 0.906,2.254 0.335,0.694 0.704,1.368 1.153,1.998 0.204,0.286 0.419,0.562 0.668,0.814 0.32,0.325 0.692,0.548 1.143,0.633 0.293,0.056 0.584,0.045 0.865,-0.054 0.396,-0.139 0.716,-0.382 0.98,-0.712 0.42,-0.524 0.784,-1.083 1.111,-1.669 0.403,-0.727 0.704,-1.495 0.976,-2.277 0.55,-1.585 1.094,-3.172 1.619,-4.766 0.421,-1.276 0.847,-2.55 1.269,-3.826 0.147,-0.444 0.29,-0.888 0.432,-1.334 0.272,-0.859 0.541,-1.718 0.811,-2.578 0.192,-0.613 0.384,-1.226 0.575,-1.839 0.017,-0.056 0.029,-0.113 0.044,-0.17 0.033,-0.127 0.034,-0.13 -0.088,-0.186 -0.628,-0.282 -1.209,-0.644 -1.768,-1.043 -0.334,-0.238 -0.655,-0.493 -0.959,-0.769 -0.068,-0.062 -0.13,-0.13 -0.213,-0.174 -0.059,-0.031 -0.087,-0.017 -0.104,0.054 -0.126,0.527 -0.249,1.055 -0.381,1.58 -0.187,0.743 -0.379,1.486 -0.577,2.227 -0.177,0.668 -0.364,1.335 -0.549,2.001 -0.188,0.675 -0.372,1.351 -0.571,2.022 -0.287,0.968 -0.587,1.931 -0.882,2.896 -0.147,0.479 -0.292,0.958 -0.443,1.435 -0.287,0.898 -0.586,1.792 -0.862,2.694 -0.168,0.55 -0.41,1.059 -0.729,1.533 -0.145,0.216 -0.303,0.423 -0.533,0.559 -0.339,0.202 -0.676,0.216 -1.016,0 C 11.497,30.794 11.343,30.63 11.208,30.449 10.853,29.971 10.55,29.46 10.315,28.912 10.226,28.705 10.153,28.491 10.077,28.279 9.924,27.846 9.773,27.413 9.622,26.979 9.315,26.105 9.009,25.23 8.702,24.356 8.503,23.79 8.302,23.223 8.101,22.657 7.76,21.697 7.416,20.739 7.078,19.778 6.778,18.928 6.486,18.075 6.189,17.224 5.855,16.271 5.52,15.318 5.185,14.366 4.864,13.452 4.544,12.538 4.223,11.625 4.015,11.034 3.804,10.445 3.596,9.854 3.251,8.87 2.909,7.884 2.563,6.899 2.264,6.049 1.962,5.2 1.662,4.35 1.358,3.492 1.059,2.633 0.753,1.776 0.577,1.281 0.393,0.788 0.21,0.295 0.161,0.162 0.102,0.033 0.047,-0.098 -0.043,-0.102 -0.017,-0.049 0,0"
             style="fill:#bf9671;fill-opacity:1;fill-rule:nonzero;stroke:none"
             id="path166"
             inkscapeConnector-curvature="0" /></g><g
           id="g168"
           transform="translate(221.7616,144.5551)"><path
             d="M 0,0 C 0.008,-0.036 -0.001,-0.081 0.047,-0.098 0.029,-0.142 0.011,-0.185 -0.012,-0.237 -0.052,-0.107 -0.052,-0.107 0,0"
             style="fill:#d3b79a;fill-opacity:1;fill-rule:nonzero;stroke:none"
             id="path170"
             inkscapeConnector-curvature="0" /></g><g
           id="g172"
           transform="translate(214.6654,144.7807)"><path
             d="m 0,0 c -0.127,-0.31 -0.267,-0.614 -0.4,-0.921 -0.513,-1.183 -1.023,-2.367 -1.551,-3.543 -0.612,-1.364 -1.341,-2.662 -2.145,-3.92 -0.118,-0.184 -0.253,-0.354 -0.427,-0.491 -0.478,-0.375 -0.989,-0.418 -1.526,-0.142 -0.217,0.112 -0.408,0.264 -0.597,0.417 -0.97,0.788 -1.607,1.788 -1.889,3.007 -0.075,0.326 -0.124,0.658 -0.17,0.99 -0.071,0.515 -0.131,1.031 -0.192,1.547 -0.054,0.457 -0.103,0.916 -0.15,1.374 -0.01,0.092 -0.002,0.185 -0.002,0.256 -0.022,0.31 0.047,0.588 0.098,0.867 0.125,0.684 0.251,1.368 0.395,2.048 0.258,1.22 0.514,2.442 0.849,3.644 0.509,1.823 1.675,3.033 3.461,3.648 0.317,0.109 0.643,0.186 0.974,0.239 0.173,0.028 0.347,0.029 0.522,-0.021 C -2.447,8.912 -2.264,8.711 -2.175,8.42 -2.143,8.317 -2.126,8.207 -2.125,8.099 -2.103,6.704 -1.757,5.384 -1.222,4.105 -0.901,3.339 -0.518,2.604 -0.115,1.879 0.021,1.636 0.125,1.385 0.164,1.105 0.216,0.719 0.146,0.354 0,0 m 39.428,11.752 c -0.144,0.825 -0.412,1.606 -0.825,2.333 -0.568,1 -1.404,1.675 -2.519,1.981 -0.639,0.176 -1.291,0.277 -1.953,0.329 -0.698,0.054 -1.392,0.015 -2.082,-0.074 -0.665,-0.085 -1.315,-0.246 -1.956,-0.44 -1.564,-0.472 -2.957,-1.246 -4.172,-2.339 -0.767,-0.691 -1.535,-1.38 -2.304,-2.068 C 23.336,11.222 23.054,10.971 22.768,10.725 22.087,10.137 21.465,9.49 20.859,8.827 19.857,7.731 18.883,6.611 17.964,5.444 16.573,3.678 15.216,1.886 13.864,0.091 12.032,-2.341 10.209,-4.778 8.381,-7.213 8.125,-7.555 7.866,-7.896 7.578,-8.212 7.476,-8.324 7.371,-8.433 7.247,-8.521 7.01,-8.688 6.749,-8.751 6.461,-8.69 6.267,-8.65 6.104,-8.55 5.959,-8.419 5.462,-7.968 5.196,-7.41 5.181,-6.735 c -0.006,0.303 0.025,0.604 0.072,0.902 0.113,0.713 0.187,1.431 0.221,2.15 0.052,1.124 0.038,2.248 -0.097,3.368 C 5.282,0.475 5.138,1.257 4.935,2.028 4.48,3.755 3.749,5.353 2.717,6.812 2.396,7.264 2.049,7.694 1.687,8.114 1.457,8.38 1.308,8.687 1.261,9.036 1.225,9.304 1.237,9.573 1.283,9.838 c 0.062,0.364 0.13,0.726 0.194,1.089 0.053,0.305 0.1,0.612 0.155,0.917 0.115,0.635 0.259,1.263 0.402,1.891 0.052,0.229 0.087,0.462 0.066,0.699 C 2.041,15.102 1.71,15.617 1.195,16.026 0.891,16.268 0.441,16.246 0.148,16.002 0.044,15.916 -0.044,15.815 -0.105,15.693 -0.208,15.492 -0.314,15.292 -0.406,15.086 -0.628,14.589 -0.821,14.08 -1.007,13.568 -1.211,13.01 -1.398,12.446 -1.623,11.895 -1.875,11.277 -2.338,10.922 -2.986,10.794 -3.511,10.691 -4.03,10.559 -4.538,10.389 -6.099,9.866 -7.464,9.029 -8.604,7.836 -9.358,7.049 -9.964,6.157 -10.459,5.188 -10.852,4.419 -11.18,3.622 -11.475,2.811 c -0.444,-1.221 -0.798,-2.468 -1.111,-3.729 -0.248,-1 -0.47,-2.005 -0.638,-3.021 -0.115,-0.704 -0.208,-1.41 -0.278,-2.12 -0.072,-0.734 -0.134,-1.469 -0.178,-2.206 -0.045,-0.778 -0.084,-1.558 -0.071,-2.339 0.007,-0.646 0.006,-1.292 0.044,-1.937 0.051,-0.862 0.129,-1.722 0.26,-2.576 0.104,-0.681 0.271,-1.346 0.518,-1.989 0.163,-0.423 0.362,-0.83 0.606,-1.212 0.37,-0.583 0.916,-0.9 1.591,-0.983 0.524,-0.064 1.012,0.06 1.458,0.354 0.786,0.519 1.516,1.108 2.2,1.755 0.83,0.785 1.591,1.635 2.314,2.519 0.937,1.146 1.754,2.371 2.428,3.691 0.582,1.137 1.012,2.333 1.374,3.554 0.234,0.787 0.465,1.574 0.71,2.357 0.194,0.616 0.441,1.212 0.749,1.78 0.074,0.135 0.163,0.254 0.278,0.354 0.076,0.066 0.148,0.137 0.223,0.204 0.063,0.056 0.078,0.055 0.152,0.005 C 1.367,-2.87 1.368,-2.87 1.396,-3.128 1.401,-3.17 1.404,-3.212 1.406,-3.254 1.445,-4.092 1.484,-4.93 1.461,-5.77 1.446,-6.298 1.389,-6.822 1.281,-7.341 1.125,-8.096 0.968,-8.85 0.81,-9.604 c -0.259,-1.237 -0.518,-2.475 -0.781,-3.711 -0.128,-0.601 -0.199,-1.208 -0.216,-1.821 -0.013,-0.436 0.031,-0.872 0.101,-1.302 0.054,-0.339 0.141,-0.672 0.248,-0.999 0.091,-0.276 0.238,-0.518 0.459,-0.709 0.439,-0.378 0.928,-0.476 1.472,-0.257 0.203,0.082 0.391,0.192 0.57,0.316 0.434,0.302 0.853,0.624 1.25,0.973 0.737,0.648 1.359,1.388 1.822,2.26 0.149,0.281 0.311,0.555 0.475,0.828 0.43,0.71 0.86,1.418 1.227,2.164 0.132,0.27 0.276,0.536 0.426,0.798 0.661,1.157 1.363,2.29 2.093,3.405 1.018,1.557 2.043,3.111 3.065,4.666 0.23,0.349 0.445,0.71 0.694,1.048 1.435,1.943 2.928,3.842 4.443,5.723 1.156,1.436 2.464,2.727 3.921,3.858 1.384,1.074 2.783,2.13 4.203,3.157 0.523,0.378 1.05,0.751 1.606,1.08 0.565,0.335 1.163,0.588 1.798,0.756 0.659,0.175 1.328,0.271 2.009,0.286 0.646,0.014 1.29,0.006 1.931,-0.095 1.08,-0.17 1.997,-0.651 2.784,-1.397 0.245,-0.232 0.459,-0.489 0.639,-0.774 C 37.49,9.954 37.668,9.188 37.64,8.373 37.621,7.811 37.615,7.249 37.622,6.687 37.625,6.41 37.639,6.133 37.649,5.857 37.651,5.79 37.65,5.724 37.685,5.662 37.749,5.548 37.831,5.529 37.93,5.608 c 0.073,0.059 0.122,0.137 0.173,0.214 0.124,0.189 0.243,0.382 0.37,0.57 0.226,0.335 0.407,0.692 0.546,1.072 0.32,0.883 0.444,1.804 0.5,2.734 0.031,0.52 -0.002,1.039 -0.091,1.554"
             style="fill:#43181c;fill-opacity:1;fill-rule:nonzero;stroke:none"
             id="path174"
             inkscapeConnector-curvature="0" /></g></g></g></g></svg>