<?xml version="1.0" encoding="utf-8"?>
<!-- Generator: Adobe Illustrator 25.2.1, SVG Export Plug-In . SVG Version: 6.00 Build 0)  -->
<svg version="1.1" id="Layer_1" xmlns="http://www.w3.org/2000/svg" xmlns:xlink="http://www.w3.org/1999/xlink" x="0px" y="0px"
	 viewBox="0 0 841.9 956.1" style="enable-background:new 0 0 841.9 956.1;" xml:space="preserve">
<g>
	<path style="fill:#583D46;" d="M175.4,727.5c-0.1,3.8-0.4,7.6-1.1,11.4c-3.4,17.9-11.9,32.6-27.3,42.9c-8.6,5.7-18.2,8.8-28.6,9.1
		c-4.2,0.1-8.3-0.3-12.3-1.7c-2.3-0.8-4.4-2-6-3.8c-4.7-5.4-2.1-14,4.8-15.7c1.9-0.5,3.8-0.3,5.7-0.1c12.1,1.3,22.4-2.5,30.9-11
		c7.7-7.7,12.1-16.9,13.2-27.8c0.2-2.3,0.3-4.6,0.3-6.9c0-19.8,0-39.7,0-59.5c0-1.6,0-3.2,0.5-4.7c1.4-4.7,5.4-7.8,10.1-7.6
		c4.8,0.2,8.7,3.7,9.5,8.6c0.2,1.4,0.3,2.9,0.3,4.3c0.1,5.4-0.1,10.7,0.7,16c2,14,8.3,25.7,19.2,34.9c6.5,5.5,14.1,8.2,22.7,8.2
		c107.4,0,214.9,0,322.3,0c9,0,16.8-2.9,23.5-8.8c10.7-9.4,16.8-21.3,18.5-35.5c0.4-3.2,0.5-6.4,0.5-9.6c0-10,0-20,0-30
		c0-2,0.2-4,1-5.9c1.6-4,5.1-6.3,9.3-6.4c4.2,0,7.7,2.3,9.3,6.3c0.6,1.6,0.9,3.2,1,4.9c0.1,13.6,0.5,27.2-0.5,40.8
		c-1.7,21.8-10.7,40.1-27.6,54.2c-9.6,8.1-20.9,12.2-33.5,12.4c-0.9,0-1.8,0-2.6,0c-106.5,0-212.9,0-319.4,0
		c-8.4,0-16.5-1.4-24.2-4.9c-6.5-2.9-12.2-7-17.2-12c-0.8-0.8-1.5-1.7-2.2-2.5C175.8,727.3,175.6,727.4,175.4,727.5z"/>
	<path style="fill:#583D46;" d="M128.6,499.7c-0.8-0.7-1.6-1.3-2.6-2.1c1.9-2,3.6-3.8,5.1-5.8c1.5-2.1,2.9-4.2,4.1-6.5
		c5.2-10.3,6.6-21.2,4.3-32.4c-3.2-15.9-12.1-27.4-27.2-33.8c-6.3-2.7-12.9-3.4-19.7-3.4c-9.7,0-19.3,0-29,0
		c-3.6,0-7.2,0.2-10.8,0.8c-11,1.8-20,6.9-27,15.5c-7.2,8.8-10.5,19.1-10.5,30.4c0,40.4,0,80.8,0,121.1c0,0.6,0,1.3,0.1,1.9
		c0.4,4.4,3.3,8,7.5,9.4c1.5,0.5,3.1,0.6,4.7,0.6c22.1,0,44.1,0,66.2,0c3.5,0,7-0.4,10.5-1c22.2-4.1,40.8-24,43.2-46
		C149.5,528.8,143.4,512.6,128.6,499.7z M38,461.5c0.1-6.3,2.2-11.9,6.5-16.5c3.5-3.7,7.8-5.8,12.8-6.5c2.1-0.3,4.3-0.4,6.5-0.4
		c9.8,0,19.5,0,29.3,0c3,0,5.9,0.2,8.8,1.1c9.1,2.8,14,9.3,15.8,18.4c0.8,4.4,0.6,8.8-0.7,13c-2.8,9.7-10.9,16-21.3,16.2
		c-7.8,0.2-15.7,0.1-23.5,0.1H40.7c-0.6,0-1.1,0-1.7,0c-0.7,0-1.1-0.2-1-1c0-0.3,0-0.6,0-1C38,477.2,37.9,469.4,38,461.5z
		 M100.1,572.1c-2,0.4-4.1,0.6-6.2,0.6H40.4c-0.4,0-0.8,0-1.2,0c-1,0.1-1.3-0.4-1.2-1.3c0-0.6,0-1.1,0-1.7v-57.3c0-0.6,0-1.3,0-1.9
		c0-0.6,0.3-0.8,0.9-0.9c0.4,0,0.8,0,1.2,0c18.1,0,36.1-0.1,54.2,0c14.5,0.1,27.2,10.6,30.3,24.7
		C128.3,551.6,117.3,568.6,100.1,572.1z"/>
	<path style="fill:#583D46;" d="M403.2,355c-10.6-1.3-21.1-3.4-31.4-6.7c-50-15.8-90.2-55.9-105.8-105.9c-0.2-0.6-0.3-1.2-0.5-1.9
		c3.1-0.5,6.2-0.9,9.3-1.4c7.4-1.2,14.6-3.3,22-4.7c10.7-2.1,21.5-4.3,32.2-6.4c1-0.2,2-0.1,3,0.4c3.6,1.7,7.3,3.1,11.1,4.5
		c13.1,4.9,25.6,11.2,38.1,17.5c9.1,4.6,18,9.4,26.9,14.3c1.4,0.8,1.8,1.5,1.7,3.2c-0.7,7.2-1.1,14.5-1.6,21.8
		c-0.8,10.4-1.5,20.7-2.3,31.1c-0.5,7.4-1,14.8-1.6,22.2C403.9,346.9,403.5,351,403.2,355L403.2,355z"/>
	<path style="fill:#583D46;" d="M438.8,350.2c-0.6-3.3-0.6-6.7-0.9-10c-1.3-16.7-2.4-33.3-3.6-50c-0.5-7.3-1.1-14.7-1.7-22
		c-0.2-1.8,0.2-2.8,1.9-3.8c17-9.3,34-18.3,51.7-26.3c5.7-2.6,11.6-4.5,17.4-6.9c2.2-0.9,4.4-1.8,6.6-2.9c1.2-0.6,2.2-0.7,3.5-0.4
		c15.3,3.1,30.7,5.9,46,9.5c5.6,1.3,11.3,2.2,17.1,2.8c-0.1,1.7-0.7,3-1.2,4.4C558,297.5,513.9,338.1,460,351.2
		c-5.5,1.3-11.1,2.4-16.7,3.2c-0.9,0.1-1.7,0.1-2.6,0.2c-1.1,0.4-1.8,0.2-1.8-1.2C438.9,352.4,439.2,351.3,438.8,350.2z"/>
	<path style="fill:#583D46;" d="M827,582.5v-89c0-3-0.1-6.1-0.3-9.1c-1.1-15.1-6-28.7-15.1-40.7c-12.8-16.7-29.2-26.9-50.7-27.9
		c-14.5-0.7-28,2.7-39.8,11.2c-20.8,14.9-31.9,35.4-32.6,61c-0.4,15.6-0.1,31.2-0.1,46.8h-0.1V582c0,1,0,2.1,0.1,3.1
		c0.4,5.5,4.2,9.5,10,10.1c4.4,0.5,9.9-1.6,11.8-7.4c0.5-1.7,0.7-3.4,0.7-5.2c0-18.1,0-36.1,0-54.2c0-3-0.3-2.7,2.6-2.7
		c29.4,0,58.9,0,88.3,0c3.1,0,2.7-0.2,2.7,2.7c0,18.1,0,36.1,0,54.2c0,1.4,0,2.9,0.3,4.3c1.4,5.5,6,8.7,11.6,8.4
		c6.1-0.3,10.3-4.6,10.7-10.6C827,583.9,827,583.2,827,582.5z M804.4,501.5c0,1.7,0,1.7-1.8,1.7c-0.5,0-1,0-1.4,0h-87.8
		c-2.7,0-2.7,0.4-2.6-2.5c0-4.5-0.1-9,0.1-13.4c1-17.8,9-31.7,23.4-42c7.8-5.5,16.7-7.5,26.1-6.9c13.8,0.8,24.2,7.8,32.6,18.3
		c6.6,8.4,10.2,17.9,11.2,28.6C804.6,490.6,804.3,496,804.4,501.5z"/>
	<path style="fill:#583D46;" d="M464.3,491.6c0-3.4-0.1-6.9-0.5-10.3c-1.6-14.5-6.8-27.6-15.9-39c-12.7-16-28.9-25.7-49.7-26.7
		c-15.9-0.8-30.4,3.4-43,13.4c-19.8,15.7-29.6,36.3-29.7,61.4c-0.2,30.8,0,61.5,0,92.3c0,0.6,0,1.1,0,1.7c0.4,6,4.4,10.3,10.6,10.7
		c5.1,0.4,10.2-2.3,11.7-8.5c0.3-1.3,0.3-2.7,0.3-4c0-18.1,0-36.1,0-54.2c0-3-0.4-2.8,2.8-2.8c29.3,0,58.5,0,87.8,0
		c3.5,0,3-0.4,3,3.1c0,17.9,0,35.8,0,53.7c0,1.3,0.1,2.6,0.3,3.8c0.9,5,4.8,8.5,10.1,8.9c5.1,0.5,9.9-2.6,11.5-7.3
		c0.6-1.7,0.6-3.4,0.6-5.2v-48.2C464.3,520.3,464.3,506,464.3,491.6z M440.1,503.2c-0.5-0.1-1.1,0-1.7,0h-88.3c-2.1,0-2.1,0-2.1-2.1
		c0.1-5.6-0.3-11.2,0.4-16.8c2.1-17.9,10.8-31.8,26.3-40.9c13.9-8.2,33.7-7.1,47.3,4.7c10.1,8.7,16.7,19.5,18.9,32.7
		c0.6,3.2,0.8,6.5,0.8,9.8c0,3.7,0,7.4,0,11C441.8,502.7,441.4,503.3,440.1,503.2z"/>
	<path style="fill:#583D46;" d="M283.5,575c-6.4-5.1-12.9-10-19.3-15c-4.8-3.7-9.6-7.4-14.7-11.4c2.3-0.6,4.1-1,5.9-1.5
		c30.2-8.5,57.4-41.2,45.8-83.3c-7.9-28.7-39.4-56.1-81.3-46.1c-23.3,5.6-50,29-50.1,64.2c-0.1,33.9,0,67.8,0,101.7
		c0,1.2,0,2.4,0.3,3.6c1.4,5.1,5.7,8.3,11.3,8.1c5.6-0.1,9.8-3.8,10.6-9.2c0.2-1.3,0.3-2.5,0.2-3.8c0-15.5,0-31,0-46.5
		c0-0.8-0.2-1.7,0.3-2.5c1.4,1.1,2.7,2.2,4,3.2c16.1,12.4,32.1,24.8,48.2,37.3c8.2,6.4,16.4,12.7,24.7,19.1
		c4.6,3.5,10.6,3.3,14.7-0.5C289.5,587.3,289.2,579.5,283.5,575z M209.5,517.7c-0.2-0.2-0.5-0.4-0.8-0.6c-4.5-3.9-10.7-4.7-16.1,0.5
		c-0.5-0.8-0.3-1.4-0.3-2c0-11.1,0-22.2,0-33.3c-0.1-23,17.8-38.6,32.7-42.4c23.5-6.1,48,7.4,54.4,30.5
		c8.2,29.6-12.3,50.6-30.8,55.3C234.5,529.1,221.2,526.8,209.5,517.7z"/>
	<path style="fill:#583D46;" d="M665.9,490.8c1.1-10.9,0.1-21.5-3.7-31.8c-7.3-19.8-28.5-41.6-58.1-43.2
		c-10.9-0.6-21.4,0.9-31.4,5.2c-24.7,10.7-40.4,34.8-40.4,62c0,33.2,0,66.5,0,99.8c0,0.6,0,1.3,0,1.9c0.4,6,4.8,10.3,10.9,10.6
		c5.8,0.2,10.6-3.7,11.5-9.4c0.2-0.9,0.1-1.9,0.1-2.9c0-15.8,0-31.5,0-47.2c0-0.8-0.2-1.7,0.2-2.7c1.4,1.1,2.6,2.2,3.9,3.1
		c16.6,12.8,33.1,25.6,49.7,38.4c7.8,6.1,15.7,12.1,23.5,18.2c4.5,3.5,10.6,3.3,14.7-0.6c4.7-4.4,5.3-12.5-1-17.4
		c-6.7-5.2-13.4-10.4-20.1-15.5c-4.5-3.5-9-7-13.8-10.7c3.9-0.8,7.3-1.7,10.6-2.9C641.4,539,663,519.3,665.9,490.8z M609.1,526
		c-13.4,2.8-25.9,0.3-36.9-8.3c-1.5-1.1-2.8-2.3-4.6-3c-4.1-1.6-7.8-0.9-11.2,1.8c-0.2,0.2-0.3,0.3-0.5,0.5
		c-0.2,0.1-0.4,0.3-0.7,0.5c-0.4-0.8-0.3-1.4-0.3-2c0-10.9-0.1-21.7,0-32.6c0.2-17.9,8.6-31,24-39.8c6-3.4,12.7-4.6,19.6-4.8
		c24.5-0.8,41.2,18.6,44.5,35.2C647.7,497.2,632.7,521,609.1,526z"/>
	<path style="fill:#583D46;" d="M369.7,169.4c-0.4,4.1-0.7,8.3-1.3,12.4c-0.4,2.9,0,5.4,1.3,8.1c9.7,19.1,19.3,38.2,29.1,57.2
		c0.2,0.4,0.6,0.8,0.4,1.5c-0.8,0.2-1.5-0.4-2.1-0.7c-14.1-6.3-28.2-12.3-42.5-18.2c-4.7-1.9-9.5-3.6-14.3-5.4
		c-7.5-2.8-13.9-7.4-19.9-12.7c-1.1-1-0.9-1.9-0.7-3c2.3-9.7,4.6-19.4,6.9-29.1c0.6-2.5,1.1-5,1.7-7.5c0.5-1.9,0.3-3.6-0.2-5.4
		c-4.3-15.7-7.4-31.7-9.8-47.8c-0.2-1.5-0.4-3-0.6-4.5c-0.1-0.4-0.4-0.7-0.8-0.7c-0.4,0-0.5,0.3-0.6,0.7c-0.5,2-0.8,4.1-0.9,6.2
		c-0.7,9.2,0.4,18.3,2.2,27.4c1.3,6.6,2.8,13.1,4.5,19.6c0.6,2.1-0.1,4.1-0.5,6.1c-2.3,10-5,20-8.2,29.8c-0.1,0.2-0.2,0.4-0.4,0.6
		c-0.8,0-1.1-0.6-1.5-1.1c-8.4-9-16.2-18.5-23.1-28.7c-0.7-1.1-1-2.1-0.9-3.3c0.5-10.4,1-20.7,1.8-31.1c0.6-7,0.9-14-0.3-21
		c-0.1-0.7-0.3-1.4-0.5-2.1c-0.1-0.3-0.3-0.6-0.6-0.6c-0.3,0-0.6,0.2-0.8,0.5c-0.2,0.5-0.4,1-0.6,1.6c-1.3,4.2-2,8.6-2.3,12.9
		c-0.7,9.2-1,18.3-2,27.5c-0.2,1.5-0.3,3-0.5,4.5c-0.8,0-0.9-0.7-1.2-1.1c-4.6-7.2-8.2-15-11.4-22.9c-0.5-1.2-0.4-2.3,0.1-3.4
		c9.4-24.4,23.9-45.3,43.2-62.8c3.3-3,6.8-5.8,10.3-8.6c0.5-0.4,1-0.7,1.5-1.1c0.9,0.3,0.7,1.1,0.8,1.6c4.7,15.3,9.3,30.5,14,45.8
		c1.3,4.4,2.8,8.7,4.1,13c1.1,3.7,2.9,7.1,5.5,10c4.8,5.4,9.5,10.8,14.3,16.2c2.6,2.9,4.7,6.1,7.4,8.8c0.5,0.5,0.5,1.1,0.4,1.8
		c-0.3,2.1-0.5,4.3-0.8,6.4c-0.5,0.3,0.4,1.7-1,1.4c-0.8-1.4-0.9-3-1.3-4.6c-1.9-7.2-8-8.9-13.3-9.1c-1.4,0-1.9,0.8-1.7,2.2
		c0.8,7.2,4.2,10.8,11.4,12c1.1,0.2,2.2,0.3,3.3,0.3c0.4,0,0.9,0,1.3-0.1c0.2,0,0.4,0,0.6,0C369.6,168.9,369.9,169,369.7,169.4z"/>
	<path style="fill:#583D46;" d="M472.4,166.9c-0.3-2.1-0.6-4.3-0.9-6.4c-0.2-1.1,0.1-1.9,0.9-2.8c6.9-8.5,14.5-16.4,21.6-24.8
		c2.2-2.6,3.9-5.5,4.9-8.7c5.8-18.8,11.6-37.5,17.4-56.3c0.5-1.7,0.9-3.3,1.4-5c0.9,0.1,1.4,0.7,2,1.1
		c24.4,18.7,42.3,42.5,53.5,71.1c0.6,1.4,0.6,2.6,0,4.1c-3.1,7.4-6.6,14.7-10.8,21.6c-0.4,0.7-0.8,1.3-1.3,2.2
		c-0.6-0.9-0.6-1.8-0.6-2.6c-1-9.4-1.3-18.8-2-28.2c-0.4-4.9-1.1-9.8-2.6-14.6c-0.2-0.7-0.2-1.9-1.2-1.8c-1,0-0.9,1.1-1,1.9
		c-1,5.3-1.1,10.6-0.7,16c0.9,12.1,1.5,24.3,2.1,36.4c0.1,1.6-0.3,2.9-1.2,4.2c-6.8,9.8-14.2,19.1-22.3,27.8c-0.5,0.5-1,1-1.5,1.5
		c-0.1,0.1-0.3,0.1-0.7,0.2c-0.4-1.3-0.8-2.7-1.3-4c-3-9.5-5.4-19-7.7-28.7c-0.2-0.8-0.2-1.5-0.1-2.3c1.3-7.3,3.4-14.4,4.8-21.8
		c1.5-8.1,2.5-16.3,2.2-24.5c-0.1-2.6-0.4-5.1-0.9-7.6c-0.1-0.6-0.1-1.5-0.8-1.5c-0.9,0-0.9,1-1,1.7c-0.4,2.4-0.7,4.7-1,7.1
		c-2.1,14.5-5.1,28.8-8.9,42.9c-0.8,2.9-0.8,5.6-0.1,8.5c2.7,11.6,5.4,23.2,8.2,34.7c0.4,1.6,0,2.4-1.1,3.5
		c-6.7,6.1-14.3,10.7-22.8,13.7c-18.4,6.6-36.2,14.7-54.1,22.6c-0.4,0.2-0.9,0.4-1.5,0.6c-0.1-0.8,0.4-1.4,0.7-2
		c9.8-19.1,19.6-38.2,29.2-57.4c1.7-3.4,2.2-6.8,1.7-10.4c-0.4-2.8-0.9-5.7-1.3-8.5c-0.4-1.1,0.4-1.4,1.2-1.6c1.5-0.1,3-0.2,4.5-0.4
		c6.2-1,9.9-5,10.5-11.3c0.2-2.5-0.4-3.1-3-2.8c-7.7,1-10.5,3.6-12.4,11.1c-0.1,0.5-0.2,1.1-0.6,1.6
		C473.1,167.2,472.7,167.2,472.4,166.9z"/>
	<path style="fill:#583D46;" d="M721.5,727.5c-0.4,9.4-2,18.4-5.8,26.9c-7.4,16.6-19.2,28.5-36.8,34.1c-7.7,2.4-15.5,3.3-23.4,1.7
		c-2.8-0.6-5.5-1.5-7.9-3.3c-3.4-2.6-4.7-7-3.3-11.2c1.2-3.7,4.7-6.1,9.1-6.2c1.1,0,2.2,0,3.4,0.1c12.4,1.3,22.8-2.7,31.4-11.6
		c8.7-8.9,12.8-19.7,12.8-32.1c0-20.1,0-40.1,0-60.2c0-1.4,0.1-2.7,0.2-4.1c0.7-5.8,5-9.8,10.4-9.6c5.5,0.2,9.6,4.4,9.9,10.4
		c0.1,3.4,0,6.9,0.1,10.3c0.1,7.1,1.2,14,3.8,20.6c3.4,8.8,8.7,16.3,15.9,22.4c13,11.1,33.1,11.2,46.4-0.7
		c10.6-9.5,16.7-21.4,18.4-35.6c0.4-3.3,0.5-6.5,0.5-9.8c0-9.9,0-19.8,0-29.7c0-1.9,0.2-3.8,1-5.6c1.6-4.1,5.2-6.4,9.5-6.4
		c4.2,0,7.6,2.5,9.2,6.5c0.6,1.6,0.9,3.2,0.9,4.9c0,11.4,0.2,22.9,0,34.3c-0.5,21.9-8,41.1-23.8,56.6c-8.1,8-17.7,13.4-29,15.4
		c-17.1,2.9-32.3-1-45.7-12.1c-1.8-1.5-3.6-3.2-5.3-4.9C722.7,728.2,722.4,727.6,721.5,727.5z"/>
	<path style="fill:#583D46;" d="M376.7,97.2c-6.6-15-14.1-29.4-20.5-44.3c-0.8,1.1-0.5,2.2-0.4,3.2c0.7,5.7,2.5,11,4.4,16.4
		c4.6,12.9,9.6,25.6,14.4,38.3c0.6,1.7,0.9,3.4,0.7,5.1c-1,9.9-2,19.9-2.9,29.8c0,0.1-0.1,0.3-0.2,0.4c-0.7,0.2-0.9-0.5-1.3-0.8
		c-5.7-6.3-11.7-12.3-17.8-18.1c-0.8-0.8-1.2-1.8-1.7-2.8c-5.9-13.7-10.4-28-14.9-42.2c-2.3-7.1-4.2-14.4-6.4-21.6
		c-0.4-1.4,0-2,1.1-2.7c7.3-4.8,14.9-9,22.8-12.6c13.1-5.9,26.7-10.1,40.9-12.3c1.9-0.3,1.9-0.3,2.2,1.6c1,6.4,1.9,12.8,2.5,19.2
		c0.2,2.6,1.2,4.9,2.7,7.1c4.7,7.1,9.3,14.3,14.1,21.4c0.9,1.4,1,2.4,0.2,3.9c-3.7,6.4-7.2,12.8-10.8,19.2c-0.3,0.6-0.6,1.1-0.9,1.7
		c-2,3.5-2.1,7.1-0.4,10.8c5.5,12.7,10.9,25.5,16.4,38.3c0.8,1.9,1.5,3.9,2.5,5.7c1.1,2.2,1.4,4.4,1.2,6.9
		c-0.9,8.2-1.7,16.4-2.5,24.6c0,0.5,0,1-0.5,1.3c-0.7-0.3-1-1-1.4-1.6c-6.9-9.6-13.7-19.3-19.9-29.4c-3-4.9-6.3-9.7-10.1-14
		c-0.5-0.6-0.9-1.5-2-1.6c-0.3,1,0.3,1.7,0.6,2.5c2.1,5.6,4.9,10.7,8.1,15.7c7.9,12.3,15.4,24.9,22.8,37.5c0.8,1.3,1.1,2.6,0.9,4.1
		c-1.1,11.2-2.2,22.4-3.3,33.6c-0.4,4.4-0.9,8.7-1.3,13.1c-0.1,0.5,0.2,1.3-0.5,1.4c-0.7,0.1-0.8-0.6-1.1-1.1
		c-4.3-8.3-8.6-16.6-12.9-24.9c-7.6-14.7-15.3-29.3-23-43.9c-0.7-1.3-0.9-2.6-0.8-4.1c0.8-9.8,1.6-19.6,2.4-29.4
		c0.9-10.9,1.9-21.8,2.7-32.7c0.8-10.5,1.5-21,2.1-31.6c0.8-12.3,1.3-24.6,1.4-36.9c0-1.7-0.1-3.4-0.2-5c0-0.4-0.1-0.8-0.2-1.2
		c-0.1-0.4-0.4-0.7-0.9-0.7c-0.4,0-0.6,0.2-0.7,0.6c-0.1,0.4-0.2,0.8-0.3,1.2c-1.5,9-2.9,18-3.9,27c-0.9,7.7-1.8,15.4-2.5,23.1
		C377.1,96.6,377,96.7,376.7,97.2z"/>
	<path style="fill:#583D46;" d="M464.7,97.4c-1.2-10.4-2.3-20.8-3.5-31.2c-0.7-6.2-1.3-12.4-2.4-18.5c-0.1-0.8-0.3-1.6-0.5-2.3
		c-0.1-0.3-0.3-0.6-0.7-0.6c-0.5-0.1-0.8,0.2-0.9,0.6c-0.2,0.5-0.2,1.1-0.3,1.6c-0.5,10.6-0.1,21.1,0.7,31.6
		c0.6,7.7,1.1,15.5,1.6,23.2c0.7,10.6,1.5,21.2,2.2,31.8c0.5,7.6,1.1,15.1,1.6,22.7c0.7,8.8,1.3,17.5,2.1,26.3
		c0.1,1.4-0.1,2.5-0.8,3.6c-11.2,20.9-22.1,42-32.9,63.1c-1,1.9-2,3.8-2.7,5.8c-0.3,0.7-0.5,1.4-1.5,1.2c-1-0.2-0.6-1-0.6-1.5
		c1-10.9,2.1-21.8,3.1-32.7c0.9-9.4,1.8-18.8,2.7-28.2c0.9-9.2,1.8-18.4,2.8-27.7c0.2-2.2-0.2-4.1-1.2-6c-2.7-5.3-4.8-10.8-7.3-16.2
		c-0.5-1.2-0.5-2,0.2-3.1c3.7-5.6,7.2-11.3,10.9-16.9c1.4-2.1,2.2-4.4,2.4-6.9c0.6-8.1,2.2-16,3.2-24c0.4-2.8,0.7-5.7,1.1-8.6
		c0.1-0.6,0.2-1.2-0.5-1.5c-0.7-0.3-1,0.4-1.3,0.8c-3,4.1-4.6,8.7-5.7,13.6c-1.5,6.2-2.2,12.6-2.9,18.9c-0.2,1.3-0.5,2.4-1.2,3.6
		c-2.8,4.1-5.6,8.2-8.5,12.2c-0.5,0.7-1.1,1.3-1.6,1.9c-0.8-0.3-0.8-1-1-1.4c-2.6-6-5.2-12-7.9-18c-0.6-1.3-0.4-2.3,0.2-3.6
		c4.8-8.9,9.6-17.9,14.2-26.9c2.2-4.2,4-8.5,6.2-12.7c1.5-2.9,1.6-5.8,0.8-8.8c-0.4-1.5-0.7-3.1-1.3-4.6c-3.1-7.5-4.8-15.4-6.7-23.2
		c-0.3-1.2-0.6-2.3-0.9-3.8c2.8,0.1,5.4,0.2,8,0.4c4.7,0.3,9.4,1,14,1.7c0.1,1.3-1,1-1.7,1c-1.5,0.2-3,0.5-4.4,1
		c-5.6,2-8.7,7-8,12.9c0.1,1.2,0.7,1.6,1.9,1.6c7.4-0.4,12.1-5.2,12.2-12.7c0-1.3-0.4-2.7,0.8-3.8c5.4,1.2,10.8,2.2,16.1,3.7
		c16.4,4.6,31.6,11.6,45.8,20.9c1.9,1.3,1.9,1.3,1.3,3.4c-4.4,15.1-8.9,30.1-14.3,44.9c-2.2,5.9-4.3,11.9-6.4,17.8
		c-0.4,1-0.8,1.9-1.5,2.7c-6.3,6-12.4,12.3-18.3,18.6c-0.4,0.4-0.8,0.7-1.4,1.2c-0.7-2.6-0.7-5-1-7.4c-0.9-7.7-1.7-15.4-2.5-23.1
		c-0.2-1.4,0.1-2.7,0.6-4c5.2-13.8,10.5-27.4,15.4-41.3c1.8-5.2,3.4-10.5,3.8-16c0-0.6,0.3-1.3-0.7-1.9c-6.2,15-13.6,29.4-20.2,44.1
		C465.3,97.2,465.2,97.6,464.7,97.4z"/>
	<path style="fill:#583D46;" d="M487.1,505.5c0-25.7,0-51.5,0-77.2c0-1.5-0.1-3,0.4-4.5c1.5-5.4,6.3-8.5,11.9-8
		c6,0.5,10,4.6,10.4,10.6c0,0.6,0,1.3,0,1.9c0,51.5,0,103,0,154.4c0,1.3-0.1,2.5-0.3,3.8c-0.9,4.8-5.1,9.2-11.7,8.8
		c-6-0.3-10.2-4.6-10.6-10.4c0-0.8,0-1.6,0-2.4C487.1,556.8,487.1,531.1,487.1,505.5z"/>
	<path style="fill:#583D46;" d="M15.3,701.2c0-25.8,0-51.6,0-77.4c0-1.6,0-3.2,0.5-4.7c1.4-4.9,5.4-7.7,10.4-7.5
		c4.7,0.2,8.5,3.7,9.3,8.5c0.2,1.3,0.3,2.7,0.3,4.1c0,51.5,0,102.9,0,154.4c0,2.1-0.1,4.2-1,6.1c-1.7,4-4.8,6.1-9.1,6.3
		c-4.1,0.1-7.7-2.3-9.4-6.2c-0.8-1.8-1-3.7-1-5.6c0-9,0-18.1,0-27.1C15.3,735.1,15.3,718.1,15.3,701.2z"/>
	<path style="fill:#583D46;" d="M712.1,926.4c-37.3,0-74.6,0-111.8,0c-3.6,0-3.2,0.2-3.2-3.2c0-1.2,0.1-2.4,0-3.6
		c-0.1-1.3,0.5-1.7,1.7-1.6c0.6,0,1.1,0,1.7,0c74.4,0,148.8,0,223.2,0c3.8,0,3.4-0.2,3.4,3.4c0,1.1,0,2.2,0,3.4
		c-0.1,1.6-0.1,1.7-1.8,1.8c-0.6,0-1.1,0-1.7,0C786.3,926.4,749.2,926.4,712.1,926.4z"/>
	<path style="fill:#583D46;" d="M130.3,917.9c37,0,74.1,0,111.1,0c0.6,0,1.1,0,1.7,0c2.1,0,2.1,0,2.1,2.2c0,1.5,0,3,0,4.6
		c0,1.2-0.4,1.8-1.6,1.7c-0.6,0-1.1,0-1.7,0c-74.5,0-148.9,0-223.4,0c-3.6,0-3.2,0.2-3.2-3.3c0-1.6-0.7-3.7,0.4-4.8
		c1.1-1.1,3.1-0.4,4.6-0.4C57.1,917.9,93.7,917.9,130.3,917.9z"/>
	<path style="fill:#583D46;" d="M259,186.2c3,0.3,6.1,0.6,9.2,1c7,0.9,13.9,1.9,20.9,2.7c1.8,0.2,3,0.9,4.1,2.4
		c8.1,10.7,17.2,20.6,27.7,29c0.4,0.3,0.8,0.5,1,1.2c-4,1.1-8,2.2-11.9,3.4c-11.8,3.6-23.7,6.3-35.7,9.1c-2.6,0.6-5.2,1.4-7.8,2.2
		c-1.9,0.5-1.9,0.6-2.4-1.4c-1.6-6.1-2.9-12.3-3.9-18.5c-1.4-9.6-1.9-19.2-1.6-28.9c0-0.6,0-1.1,0.1-1.7
		C258.8,186.6,258.9,186.5,259,186.2z"/>
	<path style="fill:#583D46;" d="M520.3,222.6c0.2-0.7,0.6-0.9,0.9-1.2c10.5-8.5,19.5-18.4,27.7-29.1c1.2-1.5,2.5-2.3,4.3-2.4
		c8.4-0.7,16.9-1.6,25.3-2.4c1.2-0.1,2.4-0.3,3.6-0.5c1.2-0.2,1.5,0.2,1.5,1.4c0,4.3,0.1,8.6-0.1,12.9c-0.6,11.3-2.2,22.4-5.2,33.3
		c-1,3.7-0.3,3.1-3.8,2.1c-7-2.1-14.1-3.5-21.2-5.1C542.3,229.1,531.4,225.7,520.3,222.6z"/>
	<path style="fill:#583D46;" d="M438.8,350.2c0.8,0.9,0.4,1.9,0.4,2.9c0,1.1,0.5,1.5,1.5,1.5c-1.3,0.2-1.7,0.9-1.5,2.3
		c1.1,7.7,2.1,15.5,3.1,23.2c0.1,0.6,0.1,1.1,0.2,1.7c0.2,1.1-0.3,1.4-1.3,1.4c-2.6,0-5.1,0-7.7,0c-10.3,0-20.6,0-30.9,0
		c-0.5,0-1,0-1.4,0c-1.6,0-1.6-0.1-1.5-1.6c0.4-3.2,0.8-6.3,1.2-9.5c0.7-5.7,1.5-11.4,2.3-17.1c0,0,0,0,0,0c0.8-0.3,1.6-0.1,2.4-0.1
		c10,0,20,0,30,0c0.5,0,1,0,1.4,0c1.9,0,1.9,0,1.8-1.8C438.8,352.1,438.8,351.2,438.8,350.2z"/>
	<path style="fill:#583D46;" d="M747.2,770.1c0-9.2,7.5-16.7,16.6-16.6c9.2,0,16.6,7.5,16.6,16.7c0,9.2-7.5,16.6-16.6,16.6
		C754.7,786.7,747.2,779.3,747.2,770.1z"/>
	<path style="fill:#583D46;" d="M434.4,772.9c-0.3,1.1-0.6,2.2-1,3.2c-2.9,7.4-10.5,11.7-18.5,10.3c-7.6-1.3-13.4-8.1-13.6-15.8
		c-0.2-8,5.3-15.1,13-16.8c8.7-1.9,17.1,3.2,19.6,11.7c0.2,0.5,0.3,1.1,0.5,1.6C435.1,769.1,435.1,771,434.4,772.9z"/>
	<path style="fill:#583D46;" d="M435.3,768.6c0.7-5.1,2.9-9.2,7.2-12.2c5.6-3.9,13.1-3.9,18.7-0.1c5.6,3.8,8.4,10.7,7,17.2
		c-1.5,6.8-6.7,11.8-13.5,13c-8.9,1.5-17.1-4-19-12.8c-0.2-0.7-0.3-1.4-0.4-2.1C434.7,770.5,434.7,769.5,435.3,768.6z"/>
	<path style="fill:#583D46;" d="M395.1,910.7c-1-0.7-2.2-1.2-3.3-1.9c0.7-0.8,1.6-1.1,2.5-1.5c4.4-2.4,4-8.7,0.9-11.2
		c-1.3-1-2.7-1.8-4.2-2.3c-2.7-0.9-5.5-1.2-8.3-1.2h-18.2c-0.6,0-1.1,0-1.7,0.1c-0.2,0-0.4,0.2-0.5,0.4c-0.1,0.3,0.1,0.5,0.3,0.6
		c1.4,0.3,1.4,1.3,1.4,2.4c0,8.9,0,17.9,0,26.8c0,1,0.1,2-1.3,2.2c-0.3,0-0.5,0.4-0.4,0.8c0.1,0.4,0.4,0.5,0.7,0.5
		c0.4,0,0.8,0,1.2,0c7.2,0,14.4,0,21.6,0c1.5,0,3-0.2,4.5-0.5c2.2-0.5,4.2-1.4,5.9-3C399.6,919.3,399.2,913.5,395.1,910.7z
		 M371.4,899.3c0-1,0.4-1.2,1.3-1.2c4.1,0,8.2,0,12.2,0.1c0.9,0,1.9,0.2,2.8,0.5c1.7,0.5,2.5,1.7,2.5,3.4c0,1.6-0.8,2.7-2.4,3.1
		c-1.1,0.3-2.3,0.6-3.5,0.6c-1.8,0-3.5,0-5.3,0c-2,0-4,0-6,0c-1.1,0-1.7-0.2-1.6-1.4C371.5,902.7,371.4,901,371.4,899.3z
		 M388.5,919.6c-1,0.4-2,0.7-3,0.7c-4.2,0-8.5,0-12.7,0.1c-1.1,0-1.4-0.4-1.4-1.4c0-2.1,0-4.2,0-6.2c0-1,0.4-1.4,1.4-1.4
		c2.2,0,4.3,0,6.5,0v0.1c2.1,0,4.2,0,6.2,0c1.1,0,2.1,0.2,3,0.7c1.6,0.7,2.6,2,2.6,3.7C391.1,917.7,390,918.8,388.5,919.6z"/>
	<path style="fill:#583D46;" d="M284.1,910c-0.7-0.4-1.4-0.7-2.3-1.1c0.7-0.8,1.6-1,2.4-1.4c4.7-2.4,4.2-9,0.8-11.5
		c-1.2-0.9-2.6-1.6-4-2.1c-2.7-0.9-5.5-1.1-8.3-1.1h-18c-0.6,0-1.1,0-1.7,0.1c-0.2,0-0.5,0.2-0.5,0.3c-0.2,0.3-0.1,0.6,0.3,0.7
		c1.4,0.4,1.2,1.5,1.2,2.5c0,8.8,0,17.6,0,26.4c0,1,0.2,2.2-1.2,2.5c-0.3,0-0.4,0.4-0.3,0.8c0.1,0.4,0.4,0.4,0.7,0.4
		c0.2,0,0.5,0,0.7,0c7.6,0,15.2,0,22.8,0c2.6,0,5.2-0.5,7.6-1.9c2.7-1.6,4.3-3.9,4.3-7.2C288.5,913.8,287,911.5,284.1,910z
		 M261.5,899.3c0-1,0.5-1.2,1.3-1.2c4,0,8,0,12,0.1c1,0,2.1,0.2,3.1,0.5c1.7,0.5,2.5,1.7,2.4,3.4c0,1.6-0.8,2.6-2.4,3.2
		c-1.8,0.6-3.6,0.5-5.5,0.5c-1.1,0-2.2,0-3.4,0c-2.1,0-4.2,0-6.2,0c-0.9,0-1.3-0.2-1.3-1.2C261.6,902.8,261.6,901.1,261.5,899.3z
		 M279.2,919.3c-1,0.6-2,0.9-3.2,0.9c-1.1,0.1-2.2,0.1-3.3,0.1c-1.1,0-2.2,0-3.4,0c0,0,0,0,0,0c-2.2,0-4.3,0-6.5,0
		c-0.9,0-1.3-0.3-1.3-1.2c0-2.2,0-4.3,0-6.5c0-0.9,0.3-1.3,1.2-1.3c4.5,0.1,9-0.2,13.4,0.2c1.1,0.1,2.1,0.4,3,0.9
		C281.9,914.1,281.9,917.6,279.2,919.3z"/>
	<path style="fill:#583D46;" d="M421.4,77.2c-2.6-3.6-5-6.8-7.3-10c-2.5-3.5-4.9-7.1-7.4-10.6c-0.6-0.9-0.9-1.8-1-2.9
		c-0.7-6.7-1.5-13.5-2.7-20.1c-0.3-1.6-0.2-1.7,1.5-1.9c4.5-0.5,9.1-0.6,13.6-0.8c1.9-0.1,1.9,0,2.4,1.9c2.4,10.8,5,21.6,6.6,32.6
		c0.1,0.7,0.3,1.4-0.1,2.1C425.1,70.5,423.4,73.7,421.4,77.2z"/>
	<path style="fill:#583D46;" d="M546.6,908c-0.5-8-4.8-13.2-12.2-14.9c-1.6-0.4-3.2-0.4-4.8-0.4h-18.5c-0.6,0-1.1,0-1.7,0
		c-0.3,0-0.6,0.1-0.7,0.5c0,0.3,0,0.5,0.2,0.6c1.3,0.5,1.1,1.6,1.1,2.6v12.9c0,4.4,0,8.8,0,13.2c0,1,0.3,2.1-1.1,2.6
		c-0.3,0.1-0.3,0.5-0.2,0.8c0.1,0.4,0.5,0.3,0.8,0.4c0.4,0,0.8,0,1.2,0c6.3,0,12.6,0,19,0c1.6,0,3.2-0.2,4.8-0.5
		c5.4-1.2,9.2-4.3,11-9.6C546.5,913.6,546.8,910.8,546.6,908z M538.6,914.7c-0.8,3-2.9,4.9-6,5.6c-1.7,0.4-3.3,0.5-5,0.5
		c-2.8,0-5.6,0-8.4,0c-1.7,0-1.7,0-1.7-1.7c0-3.2,0-6.4,0-9.6v-9.8c0-0.7-0.1-1.5,1-1.5c4.5,0.1,9.1-0.4,13.6,0.5
		c3.4,0.6,5.7,2.5,6.5,5.9S539.5,911.3,538.6,914.7z"/>
	<path style="fill:#583D46;" d="M443.5,896.4c-7.9-5.5-19.9-5.6-27.8,0.1c-3.1,2.2-5.3,5-6.3,8.8c-1.8,7.1,0.9,13.7,7,17.6
		c4,2.6,8.5,3.5,13.2,3.5c5.2,0,9.7-1.3,13.4-3.7C452.6,916.6,452.8,902.9,443.5,896.4z M440.2,916.6c-2.9,2.9-6.6,4.1-10.7,4.1
		c-3.9-0.1-7.5-1.3-10.4-4.1c-4.3-4.2-4.1-10.9,0.5-14.8c5.5-4.8,14.5-4.8,20,0C444.2,905.7,444.5,912.3,440.2,916.6z"/>
	<path style="fill:#583D46;" d="M581.9,821.2c-9.9-0.4-19.3,8.1-19.3,19c0,10.6,8.5,19.2,19.2,19.3c10.5,0.1,19.2-8.5,19.2-19.1
		C601,829.6,592.7,821.2,581.9,821.2z M581.6,854c-7.4-0.1-13.4-6.2-13.4-13.8c0-7.6,6.2-13.6,13.8-13.5c7.5,0.1,13.4,6.2,13.4,13.8
		C595.4,848,589.2,854.1,581.6,854z"/>
	<path style="fill:#583D46;" d="M167.8,821.1c-10.8,0.2-19.1,8.5-19.1,19.2c0,10.7,8.7,19.3,19.2,19.2c10.7-0.1,19.2-8.7,19.2-19.3
		C187,829,177.5,820.9,167.8,821.1z M167.8,854c-7.5,0-13.7-6.2-13.7-13.8c0.1-7.4,6.2-13.5,13.7-13.5c7.6,0,13.7,6.2,13.6,13.8
		C181.4,847.9,175.3,854,167.8,854z"/>
	<path style="fill:#583D46;" d="M636.3,853.3c-1.5-1.2-3-2.3-4.4-3.4c0.2-0.7,0.7-0.6,1.1-0.8c6.1-2.5,9.5-7.7,9.3-14.3
		c-0.2-7.4-6.5-13.4-14-13.6c-7.9-0.3-14.5,6-14.7,13.2c-0.3,7.4-0.1,14.9-0.1,22.3c0,1.7,1.1,2.8,2.6,2.9c1.6,0.1,2.8-1,2.9-2.8
		c0.1-1.5,0-3,0-4.6V847c1.1,0.8,1.8,1.3,2.5,1.9c4,3.1,8,6.2,12,9.2c0.5,0.3,0.9,0.7,1.3,1c1.3,0.7,2.8,0.4,3.6-0.8
		c0.8-1.1,0.7-2.5-0.3-3.5C637.6,854.2,636.9,853.8,636.3,853.3z M623.1,843c-1.2-0.8-2.3-1.6-4-1.2c0-2.5-0.1-4.8,0-7.1
		c0.4-4.8,4.6-8.3,9.4-8c4.6,0.3,8.3,4.3,8.2,9c0,3.5-1.8,6.1-4.8,7.8C628.9,845,625.9,844.8,623.1,843z"/>
	<path style="fill:#583D46;" d="M411.8,835.5c-1-2.8-3.7-4.4-6.9-4c-2.6,0.3-4.9,2.5-5.1,4.7c0,0.4-0.2,0.9,0.2,1.1
		c0.9,0.6,2,0.3,3,0.5c0.8,0.2,1-0.3,1.3-1c0.4-0.9,1.3-1.2,2.2-0.8c0.9,0.3,1.2,1,1.2,1.9c0,1.3-0.7,2.1-2,2.3
		c-1.2,0.2-2.4,0.1-3.6-0.3c-2.1-0.7-4.3-0.8-6.6-0.6c0.3-1.1,0.2-2.3,0.3-3.5c0-1-0.3-1.3-1.4-1.4c-2.4-0.2-4-2-4-4.2
		c0-1.9,1.2-3.6,3-4.2c1.6-0.5,3.5,0.1,4.7,1.5c1.1,1.4,1.1,1.4,2.6,0.6c0.4-0.2,0.7-0.4,1.1-0.6c1-0.4,0.9-1,0.4-1.9
		c-2.2-4-7.7-5.5-11.7-3.1c-4.4,2.6-5.8,8.1-3.1,12.2c0.4,0.7,1,1.3,1.6,2.2c-0.3,0.2-0.7,0.4-1,0.7c-0.3,0.2-0.6,0.5-0.9,0.8
		c-3.1,3.3-4.3,7.1-3.3,11.5c1.6,7.1,8.8,11.4,15.9,9.4c6.9-1.9,10.2-8.9,8.3-13.5c-0.5-1.2,0.1-1.4,1-1.9
		C411.8,842,412.9,838.6,411.8,835.5z M403.7,849.7c-1.1,3.2-3.5,5.1-6.6,5.3c-3.8,0.2-6.8-1.4-8.4-4.7c-1.5-3.1-1-6.1,1.1-8.7
		c1.4-1.7,3.1-3.2,5.7-2.4c-1.1,0.6-2.3,1-3.2,1.8c-2.3,2.1-3.1,4.6-2.4,7.5c0.6,2.5,2.9,4.5,5.7,4.8c3.1,0.4,5.4-1,7.2-3.4
		c0.3-0.4,0.4-0.9,0.6-1.3c0-0.5,0-1-0.1-1.4c-0.8-0.1-1.6-0.3-2.3-0.4c-0.9-0.1-1.6-0.5-2.2,0.9c-0.6,1.5-2.8,1.6-3.9,0.6
		c-1.1-1-1-2.7,0.2-3.8c0.2-0.2,0.5-0.4,0.8-0.6c2.4-1.5,6.8,0,8,2.7C404.4,847.7,404.4,848.7,403.7,849.7z"/>
	<path style="fill:#583D46;" d="M487.8,893.4c0.4-0.8,0.8-0.7,1.2-0.8c2.6,0,5.3,0,7.9,0c0.4,0,1-0.1,1.2,0.5
		c0.2,0.5-0.3,0.6-0.7,0.8c-1,0.5-0.7,1.5-0.7,2.4c0,5.6,0,11.2,0,16.8c0,1.1-0.1,2.2-0.2,3.3c-0.7,5.4-3.6,8.6-8.9,9.5
		c-5.4,0.9-10.8,0.9-16.2,0c-5.6-0.9-8.9-4.6-9-10.4c-0.2-6.2-0.1-12.5-0.1-18.7c0-1.3,0.3-2.7-1.5-3c-0.2,0-0.3-0.3-0.2-0.6
		c0.1-0.3,0.3-0.4,0.5-0.4c0.7-0.1,1.4-0.1,2.2-0.1c2.2,0,4.5,0,6.7,0c0.4,0,0.8-0.1,1,0.5c0.1,0.4-0.1,0.6-0.4,0.7
		c-0.8,0.4-0.8,1.1-0.8,1.8c0,6.3,0,12.6,0,18.9c0,3.2,1.5,5.1,4.6,5.9c3.6,0.9,7.3,1,10.9,0c3.2-0.8,4.6-2.6,4.6-5.8
		c0.1-6.3,0-12.6,0.1-18.9C489.8,894.2,488.7,894,487.8,893.4z"/>
	<path style="fill:#583D46;" d="M452.2,853.2c-1.5-1.2-2.9-2.3-4.6-3.6c1-0.4,1.7-0.7,2.3-1c6.9-3.2,10.1-11.3,7.4-18.4
		c-2.7-7-10.7-10.7-17.9-8.5c-4.5,1.4-10,6.2-9.9,13.6c0,6.9,0,13.7,0,20.6c0,0.4,0,0.8,0,1.2c0.3,1.7,1.6,2.6,3.3,2.2
		c1.4-0.3,2.1-1.2,2.1-3c0-3,0-5.9,0-9c1,0.1,1.4,0.6,1.9,1c4.2,3.2,8.3,6.4,12.5,9.7c0.5,0.4,1,0.8,1.6,1.1
		c1.2,0.6,2.6,0.3,3.4-0.8c0.9-1.1,0.9-2.4-0.1-3.5C453.6,854.3,452.9,853.8,452.2,853.2z M438.8,842.8c-1.1-0.9-2.3-1.4-3.8-1
		c0-2.5-0.2-4.8,0-7.1c0.4-4.5,4.1-8,8.6-8.1c4.4-0.1,8.4,3.2,9,7.4c0.7,4.6-2.1,8.9-6.5,10.1C443.5,844.8,441,844.4,438.8,842.8z"
		/>
	<path style="fill:#583D46;" d="M134.4,840.4c0,5.1,0,10.2,0,15.3c0,2.5-0.9,3.8-2.6,3.8c-1.9,0.1-2.9-1.2-2.9-3.8c0-3.5,0-7,0-10.5
		c0-2,0-2.1-1.9-2.1c-3.5,0-7,0-10.6,0c-1.2,0-1.7,0.4-1.7,1.7c0.1,3.8,0,7.7,0,11.5c0,1.4-0.3,2.5-1.7,3.1c-1.6,0.6-3.3-0.3-3.7-2
		c-0.1-0.6-0.1-1.3-0.1-1.9c0-10.1,0-20.1,0-30.2c0-0.4,0-0.8,0-1.2c0.1-1.9,1.1-2.9,2.8-2.8c1.6,0.1,2.5,1,2.6,2.8
		c0.1,2.3,0,4.6,0,7c0,1.6,0,3.2,0,4.8c0,1.7,0,1.8,1.7,1.8c3.6,0,7.2,0,10.8,0c1.3,0,1.7-0.4,1.7-1.7c-0.1-3.5,0-7,0-10.5
		c0-0.7,0-1.5,0.1-2.1c0.3-1.4,1.2-2,2.6-2c1.4,0,2.5,0.8,2.8,2.1c0.1,0.6,0.1,1.3,0.1,1.9C134.4,830.3,134.4,835.4,134.4,840.4z"/>
	<path style="fill:#583D46;" d="M265.7,145.8c5.9,12.9,12.4,25.1,20.5,36.9c-8.9-0.9-17.3-1.7-25.8-2.2c-1-0.1-1.4-0.4-1.3-1.4
		c0.4-3.2,0.6-6.4,1.1-9.5c1.1-7.3,2.7-14.6,4.7-21.7C265.2,147.3,265.4,146.7,265.7,145.8z"/>
	<path style="fill:#583D46;" d="M576.7,146.2c1.8,5.5,3,10.8,4,16.1c1.1,5.4,1.8,10.9,2.3,16.4c0.2,1.6,0.1,1.7-1.4,1.8
		c-8.4,0.6-16.7,1.3-25.5,2.2c3.9-6.1,7.6-11.9,10.9-18C570.3,158.6,573.4,152.5,576.7,146.2z"/>
	<path style="fill:#583D46;" d="M531.9,854c1.8,0,3.7,0,5.5,0c4.3-0.1,6.8-2.8,5.8-7.8c-0.3-1.4-1.2-2.4-2.7-2.8
		c-2.1-0.5-4.3-0.7-6.4-0.8c-1.4-0.1-2.9-0.3-4.3-0.7c-3.8-0.9-6.1-3.3-6.9-7.1c-0.7-3.6-0.2-7,2.2-10c1.5-2,3.5-3.4,6.1-3.4
		c4.2-0.1,8.5-0.1,12.7-0.1c1.7,0,2.8,1.3,2.7,2.7c0,1.5-1.2,2.6-2.8,2.7c-0.5,0-1,0-1.4,0c-3,0-5.9,0-8.9,0c-4.2,0-6.7,4.5-4.6,8.2
		c0.5,0.9,1.3,1.3,2.3,1.6c1.8,0.4,3.6,0.6,5.5,0.7c2,0.1,4,0.4,5.9,1c1.7,0.5,3.3,1.4,4.3,2.9c2.6,3.7,2.8,7.8,1.2,11.9
		c-1.5,3.8-4.6,5.8-8.6,6.4c-4.5,0.6-9.1,0.3-13.7,0.2c-2,0-3.1-1.3-3-3c0.1-1.6,1.2-2.5,3.1-2.6C527.9,853.9,529.9,854,531.9,854
		C531.9,854,531.9,854,531.9,854z"/>
	<path style="fill:#583D46;" d="M721.8,821.2c1.9,0,3.8,0,5.8,0c2,0.1,3,1,3,2.6c0,1.7-1.1,2.8-3.1,2.8c-3.4,0-6.7,0.1-10.1,0
		c-1.9,0-3.5,0.6-4.4,2.3c-1,2-1,4-0.1,6c0.6,1.1,1.7,1.4,2.8,1.6c1.7,0.3,3.3,0.5,5,0.6c2,0.1,4,0.4,5.9,1c1.9,0.6,3.4,1.7,4.6,3.3
		c4.9,7.1,0.4,16.8-8.1,17.8c-4.4,0.5-8.8,0.2-13.2,0.2c-0.8,0-1.6-0.2-2.2-0.7c-0.9-0.8-1.2-2-0.8-3c0.5-1.3,1.5-1.8,2.8-1.8
		c3.4,0,6.7,0,10.1,0c0.7,0,1.4,0,2.2,0c4.5-0.4,6.9-4.8,4.9-8.8c-0.5-1-1.4-1.5-2.4-1.8c-2-0.5-4.1-0.6-6.2-0.8
		c-1.1-0.1-2.2-0.3-3.3-0.5c-5.4-1.1-8.1-4.3-8.2-9.8c0-2.5,0.5-4.8,1.9-6.8c1.8-2.7,4.3-4.2,7.6-4.2
		C718.1,821.2,719.9,821.2,721.8,821.2z"/>
	<path style="fill:#583D46;" d="M347.8,854c1.8,0,3.7,0,5.5,0c4.6-0.1,6.9-3.4,5.8-7.8c-0.4-1.6-1.3-2.5-2.9-2.8
		c-2.1-0.5-4.3-0.6-6.4-0.8c-1.8-0.1-3.5-0.4-5.2-1c-2.8-1-4.8-2.9-5.5-5.8c-1-3.9-0.7-7.6,1.9-10.9c1.7-2.2,3.9-3.5,6.8-3.6
		c3.9-0.1,7.8,0,11.7,0c2.4,0,3.4,2,2.8,3.7c-0.4,1.2-1.3,1.8-3.1,1.8c-3.3,0-6.6,0.2-9.8-0.1c-4.2-0.4-6.5,4.5-4.7,8.2
		c0.6,1.2,1.8,1.6,3,1.8c1.7,0.3,3.3,0.4,5,0.6c1.9,0.2,3.8,0.4,5.6,1c3,0.9,5.1,2.9,5.9,6.1c2.1,8-1.8,13.3-7.5,14.8
		c-1.1,0.3-2.4,0.5-3.5,0.5c-3.8,0.1-7.5,0-11.3,0c-0.3,0-0.6,0-0.9-0.1c-1.6-0.3-2.4-1.4-2.3-2.9c0.1-1.5,1-2.5,2.6-2.6
		C343.5,853.9,345.7,854,347.8,854C347.8,854,347.8,854,347.8,854z"/>
	<path style="fill:#583D46;" d="M478.2,839.9c0.1-2.1-0.2-4.7,0.3-7.2c1-6,6.2-11,12.2-11.4c2.7-0.2,5.4-0.1,8.1-0.1
		c1.1,0,1.9,0.6,2.4,1.7c0.4,1.1,0.2,2-0.5,2.9c-0.6,0.8-1.5,0.9-2.4,0.9c-2,0-4,0-6,0c-5,0.1-8.5,3.8-8.5,8.8c0,1.9,0,1.9,1.8,1.9
		c3.1,0,6.2,0,9.3,0c0.7,0,1.4,0,2.1,0.1c1.6,0.3,2.4,1.4,2.3,2.9c-0.1,1.5-1,2.5-2.6,2.5c-3.4,0.1-6.7,0-10.1,0c-0.6,0-1.3,0-1.9,0
		c-0.5,0-0.8,0.2-1,0.8c-1,5,2.9,9.9,8,10.2c2.2,0.1,4.5,0,6.7,0.1c2.3,0.1,3.6,2.3,2.4,4.2c-0.5,0.8-1.3,1.3-2.2,1.3
		c-3.4,0.1-6.9,0.4-10.3-0.5c-6-1.5-10.1-7-10.3-13.4C478.2,843.8,478.2,842.1,478.2,839.9z"/>
	<path style="fill:#583D46;" d="M248.2,839.9c0.2-2.3-0.3-5,0.3-7.7c1.3-6.1,6.4-10.6,12.6-11c2.4-0.1,4.8-0.1,7.2-0.1
		c2.1,0,3.1,1.1,3,2.9c-0.1,1.7-1,2.5-3.1,2.6c-1.9,0-3.8,0-5.8,0c-5.4,0.1-8.9,4-8.7,9.3c0,1,0.4,1.4,1.4,1.4c3.2,0,6.4,0,9.6,0
		c0.7,0,1.4,0,2.2,0.1c1.7,0.3,2.6,1.4,2.4,3c-0.1,1.5-1.1,2.4-2.7,2.5c-3.4,0.1-6.9,0-10.3,0c-2.6,0-2.6-0.6-2.5,2.6
		c0.1,4.8,3.5,8.3,8.4,8.4c2,0.1,4,0,6,0c2,0,3,0.9,3.1,2.5c0.1,1.8-0.9,2.9-2.9,3c-3,0.1-6.1,0.2-9.1-0.3
		c-6-1.1-10.9-6.8-11.1-13.1C248.2,844.2,248.2,842.3,248.2,839.9z"/>
	<path style="fill:#583D46;" d="M589.4,927.5c-1.2-1.3-2.7-1.2-4.1-1.2c-9,0-17.9,0-26.9,0c-0.6,0-1.3,0-1.9,0c-0.2,0-0.5,0-0.5-0.4
		c-0.1-0.4,0-0.8,0.3-0.8c1.7-0.3,1.5-1.5,1.5-2.7c0-8.7,0-17.4,0-26.1c0-1.2,0.1-2.3-1.5-2.5c-0.3,0-0.4-0.3-0.4-0.5
		c0-0.4,0.3-0.5,0.6-0.5c3.2,0,6.4,0,9.6,0c0.3,0,0.6,0.2,0.7,0.5c0,0.4-0.2,0.5-0.6,0.6c-1.1,0.3-1.2,1.2-1.2,2.1
		c0,7.6,0,15.2,0,22.8c0,1.3,0.4,1.7,1.7,1.7c6.3,0,12.6,0,19,0c1.1,0,2.2-0.1,2.9-1.3c0.2-0.4,1-0.5,1,0.2
		C589.8,922,589.8,924.7,589.4,927.5z"/>
	<path style="fill:#583D46;" d="M314.9,906.3c0.4,0.3,0.6,0.1,0.7-0.1c2.5-3.4,5-6.8,7.5-10.3c0.6-0.9,1.1-1.7-0.5-2.1
		c-0.4-0.1-0.5-0.4-0.4-0.7c0.1-0.2,0.3-0.3,0.5-0.4c0.1,0,0.2,0,0.2,0c3.1,0,6.2,0,9.4,0c0.4,0,0.8,0.1,0.9,0.6
		c0,0.4-0.3,0.5-0.6,0.6c-1.3,0.4-2.1,1.4-2.8,2.4c-3.5,5-7.1,10.1-10.6,15.1c-0.6,0.9-0.9,1.8-0.9,2.9c0,2.7,0,5.4,0,8.1
		c0,1.1-0.2,2.2,1.1,2.8c0.6,0.3,0.4,1.1-0.4,1.1c-2.9,0-5.8,0.1-8.6,0c-0.8,0-1.1-0.8-0.3-1.2c0.9-0.6,0.9-1.4,0.9-2.3
		c0-3,0-5.9,0-8.9c0-0.8-0.2-1.5-0.7-2.2c-3.8-5.3-7.6-10.6-11.4-16c-0.6-0.9-1.5-1.4-2.5-1.8c-0.4-0.1-0.7-0.3-0.6-0.8
		c0.1-0.4,0.5-0.4,0.8-0.4c0.1,0,0.2,0,0.2,0c3.7,0,7.4,0,11,0c0.5,0,1.1-0.1,1.1,0.6c0.1,0.5-0.5,0.5-0.8,0.7
		c-0.8,0.3-0.9,0.8-0.5,1.5c0.2,0.4,0.5,0.8,0.7,1.2C310.5,899.9,312.7,903.2,314.9,906.3z"/>
	<path style="fill:#583D46;" d="M671,842.2c0-4.6,0-9.3,0-13.9c0-1.2-0.3-1.7-1.6-1.7c-1.8,0.1-3.7,0.1-5.5,0
		c-1.8-0.1-2.8-1.3-2.6-3c0.1-1.4,1-2.3,2.5-2.4c1.6-0.1,3.2,0,4.8,0c4.5,0,9,0,13.4,0c0.6,0,1.1,0,1.7,0c1.7,0.2,2.7,1.2,2.7,2.8
		c0,1.6-1,2.6-2.8,2.7c-1.7,0.1-3.4,0-5,0c-1.9,0-1.9,0-1.9,2c0,8.8,0,17.6,0,26.4c0,0.6,0,1.3,0,1.9c-0.2,1.6-1.4,2.6-3,2.5
		c-1.4-0.1-2.4-1.1-2.6-2.7c-0.1-1,0-1.9,0-2.9C671,850,671,846.1,671,842.2z"/>
	<path style="fill:#583D46;" d="M211.1,842.2c0-4.6,0-9.1,0-13.7c0-1.8,0-1.8-1.9-1.9c-1.8,0-3.5,0.1-5.3,0
		c-2.3-0.2-3.4-2.5-2.1-4.4c0.6-0.8,1.3-1.1,2.3-1.1c6.6,0,13.1,0,19.7,0c1.7,0,2.7,1.2,2.7,2.8c0,1.5-1.1,2.6-2.8,2.7
		c-1.8,0.1-3.7,0.1-5.5,0c-1.1,0-1.6,0.3-1.6,1.5c0.1,1.3,0,2.6,0,3.8c0,7.9,0,15.8,0,23.7c0,2.6-0.8,3.7-2.6,3.8
		c-1.9,0.1-2.8-1.2-2.9-3.8C211,851.2,211.1,846.7,211.1,842.2z"/>
	<path style="fill:#583E47;" d="M293.8,835.3c0-3.7,0-7.4,0-11c0-1.9,0.8-2.9,2.4-3.1c1.6-0.2,2.9,0.6,3.2,2.2
		c0.1,0.6,0.1,1.3,0.1,1.9c0,6.5,0.2,13-0.1,19.4c-0.2,5.3,4.2,9.6,9.3,9.2c2-0.1,4-0.1,6,0c1.9,0,3,1,3.1,2.6
		c0.1,1.6-1,2.8-2.8,2.9c-3.4,0.1-6.9,0.3-10.3-0.3c-6-1.2-10.7-6.9-10.8-13.3C293.8,842.4,293.8,838.8,293.8,835.3z"/>
	<path style="fill:#FFFFFF;" d="M449,33.2c0.1,2.6,0.1,5.1-0.6,7.6c-1.1,4.3-3.8,7.1-7.9,8.5c-1.8,0.6-3.7,0.9-5.6,1.1
		c-1.1,0.1-1.6-0.2-1.6-1.4c-0.1-8.5,3.2-14.3,13-15.4c0.7-0.1,1.5,0.2,2-0.4C448.5,33.1,448.7,33.2,449,33.2z"/>
	<path style="fill:#DFDADC;" d="M435.3,768.6c0.2,1,0.2,1.9,0,2.9c-0.3,0.5-0.6,0.9-0.9,1.4c0-1.9,0-3.8,0-5.8
		C434.7,767.6,435,768.1,435.3,768.6z"/>
	<path style="fill:#A0959A;" d="M474.8,169.3c-0.6,0.2-1.5,0-1.6,1.1c-0.6-1.1-0.6-2.3-0.8-3.5c0.3,0,0.5,0,0.8,0
		C473.9,167.6,474.5,168.3,474.8,169.3z"/>
	<path style="fill:#806E75;" d="M369.7,169.4c-0.2-0.2-0.3-0.4-0.5-0.5c-0.3-0.3-0.3-0.7,0.1-1c0.3-0.5,0.6-0.9,0.8-1.4
		C370.1,167.5,370.2,168.5,369.7,169.4z"/>
	<path style="fill:#7A6D74;" d="M464.7,97.4c0.3-0.2,0.6-0.3,0.9-0.5c-0.1,0.3-0.1,0.6-0.3,0.8c-0.1,0.2-0.3,0.3-0.5,0.5
		C464.6,98,464.6,97.7,464.7,97.4z"/>
	<path style="fill:#FFFFFF;" d="M279.4,252.2c0.1-4.6,1.9-8.2,5.9-10.6c1.5-0.9,3.1-1.6,4.8-2.2c1.9-0.6,2-0.6,2.4,1.3
		c0.3,1.5,0.6,3,0.7,4.5c0.1,4.8-1.7,8.5-5.9,11c-1.5,0.9-3.1,1.6-4.8,2.2c-1.9,0.6-2,0.6-2.4-1.3
		C279.7,255.6,279.4,253.9,279.4,252.2z"/>
	<path style="fill:#FFFFFF;" d="M550.3,239.1c2.9,0.5,5.5,1.7,7.8,3.4c2.7,2,4.2,4.7,4.5,8.1c0.2,2.3,0,4.6-0.6,6.9
		c-0.4,1.5-0.4,1.5-2,1.1c-2.2-0.6-4.3-1.6-6.2-3c-4.3-3.2-5.2-7.6-4.6-12.6C549.4,241.7,549.6,240.3,550.3,239.1z"/>
	<path style="fill:#FFFFFF;" d="M369.2,167.9c0,0.3,0,0.7-0.1,1c0,0,0,0,0,0c-0.3,0.3-0.7,0.2-1,0.4c-1.9,0.1-3.8-0.1-5.7-0.5
		c-4.3-0.9-7.4-3.2-9-7.3c-0.8-2-1.2-4.1-1.4-6.3c-0.1-0.8,0.1-1.3,1-1.5c6.1-1.3,12.7,2.3,14.9,8.1
		C368.6,163.8,369,165.8,369.2,167.9z"/>
	<path style="fill:#FFFFFF;" d="M327,147.3c0.1-8.6,4.6-12.7,13.2-14.2c0.7-0.1,1,0.2,1.1,0.9c0.5,3.3,0.5,6.5-0.8,9.6
		c-0.9,2.2-2.4,3.9-4.4,5.2c-2.3,1.4-4.8,2.1-7.4,2.7c-1.1,0.2-1.4-0.2-1.5-1.2C327.1,149.2,326.9,148.1,327,147.3z"/>
	<path style="fill:#FFFFFF;" d="M305.7,134.2c1.4,0.1,2.9,0.1,4.3,0.5c0.7,0.2,1.1,0.4,0.9,1.3c-0.7,2.9-1.7,5.7-3.6,8
		c-1.9,2.4-4.4,3.7-7.3,4.1c-2.2,0.3-4.5,0.3-6.7-0.2c-1.6-0.4-1.7-0.4-1.2-2.1c0.3-1.2,0.7-2.3,1.1-3.4
		C295.6,136.7,299.4,134.1,305.7,134.2z"/>
	<path style="fill:#FFFFFF;" d="M335,192.9c-2.3,0-4.3-0.5-6.4-1.2c-0.9-0.3-1.3-0.6-0.9-1.7c1-2.6,2.3-4.9,4.2-6.9
		c3.3-3.4,7.4-4,11.7-3c5.4,1.2,5.2,0.7,2.7,5.6C344,190.2,340.4,193.1,335,192.9z"/>
	<path style="fill:#FFFFFF;" d="M316.4,180.7c-0.1,3.9,0.4,4-3.8,3.1c-1.3-0.3-2.6-0.7-3.9-1.2c-3.8-1.7-6.1-4.5-6.9-8.6
		c-0.4-2-0.5-4-0.3-6c0.1-1.6,0.2-1.8,1.9-1.5C311.3,167.6,316.6,171.6,316.4,180.7z"/>
	<path style="fill:#FFFFFF;" d="M369.8,213.2c-5.9,0.2-9.9-2.7-12.1-8c-2.1-5.2-2.7-5.1,3.4-5.7c8.7-0.9,12.6,4.4,14.7,11.5
		c0.3,0.9-0.1,1.4-1,1.5c-0.6,0.1-1.2,0.3-1.9,0.4C371.8,213.1,370.8,213.1,369.8,213.2z"/>
	<path style="fill:#FFFFFF;" d="M318.5,86.7c6.2-0.1,10.3,2.6,12.6,8.8c1.6,4.3,2.2,4.2-2.8,4.9c-1.5,0.2-3,0.2-4.5,0
		c-3.6-0.5-6.3-2.3-8.2-5.2c-1.2-1.8-2-3.8-2.6-5.9c-0.4-1.6-0.4-1.6,1.3-2C315.6,86.9,317.1,86.8,318.5,86.7z"/>
	<path style="fill:#806E75;" d="M368.1,169.3c0.3-0.1,0.7-0.3,1-0.4C368.9,169.4,368.5,169.4,368.1,169.3z"/>
	<path style="fill:#FFFFFF;" d="M540.9,169.8c0,1.8-0.2,3.3-0.6,4.8c-0.9,3.5-3,6.1-6.3,7.7c-1.6,0.8-3.3,1.3-5,1.6
		c-3.1,0.6-3.2,0.6-3.3-2.6c-0.1-1.9,0.2-3.8,0.7-5.7c0.9-3.3,2.9-5.6,5.9-7.2c2.1-1.1,4.3-1.6,6.6-2c1.3-0.2,1.8,0.3,1.8,1.5
		C540.8,168.6,540.9,169.4,540.9,169.8z"/>
	<path style="fill:#FFFFFF;" d="M474.8,169.3c-1.4-0.2-1.6-1.2-1.6-2.4c0.1-1.7,0.5-3.3,1.1-4.9c1.4-4,4.2-6.7,8.4-7.7
		c2-0.5,4.1-0.8,6.2-0.6c1.1,0.1,1.5,0.5,1.4,1.7c-0.2,2.1-0.6,4.1-1.3,6c-1.6,4.1-4.7,6.6-9,7.4
		C478.3,169.2,476.5,169.4,474.8,169.3z"/>
	<path style="fill:#FFFFFF;" d="M516,100.6c-1.6-0.2-3.3-0.3-5-0.7c-0.6-0.2-0.9-0.4-0.9-1.1c0.3-4.8,4.8-10.3,9.5-11.6
		c3-0.8,6-0.5,9,0.2c0.8,0.2,0.9,0.7,0.8,1.4C528.6,95.6,522.9,100.6,516,100.6z"/>
	<path style="fill:#FFFFFF;" d="M507.2,192.9c-4.2,0.1-7.4-1.6-9.8-4.8c-1.3-1.7-2.2-3.5-3-5.4c-0.4-0.9-0.1-1.4,0.9-1.8
		c2.2-0.7,4.5-1.2,6.8-1.2c4.1,0,7.4,1.8,9.7,5.2c1.1,1.6,2,3.3,2.7,5.1c0.4,0.9,0.1,1.5-0.9,1.8
		C511.5,192.3,509.3,192.9,507.2,192.9z"/>
	<path style="fill:#FFFFFF;" d="M544.9,148.3c-6.6,0-10.8-3-12.8-9.7c-1.1-3.6-2-3.7,2.8-4.2c1.2-0.1,2.4-0.1,3.6,0
		c3.9,0.2,7,2,9.1,5.3c1.3,2,2.1,4.3,2.7,6.6c0.3,1.1-0.1,1.4-1.1,1.6C547.8,148.2,546.4,148.3,544.9,148.3z"/>
	<path style="fill:#FFFFFF;" d="M472.3,213.2c-1.5-0.1-3-0.3-4.5-0.6c-1.1-0.2-1.5-0.7-1.2-1.8c0.8-2.8,1.9-5.4,3.9-7.6
		c1.9-2.2,4.4-3.4,7.3-3.6c2.3-0.2,4.6-0.1,6.9,0.5c1.4,0.4,1.5,0.4,1.1,2c-0.4,1.5-0.9,2.9-1.6,4.2
		C481.6,211.2,477.8,213.4,472.3,213.2z"/>
	<path style="fill:#FFFFFF;" d="M501.3,133c2.8,0.3,5.3,1,7.6,2.3c3.7,2,5.7,5.1,6.1,9.2c0.2,1.8,0.2,3.7,0,5.5
		c-0.2,1.6-0.3,1.7-1.8,1.4c-0.9-0.2-1.9-0.4-2.8-0.7C503.7,148.9,498.8,143.4,501.3,133z"/>
	<path style="fill:#FFFFFF;" d="M407.1,197.8c0.1,8-4.7,12.3-12.5,13.8c-1,0.2-1.4-0.1-1.6-1.1c-0.5-2.8-0.5-5.6,0.3-8.3
		c0.7-2.5,2.1-4.4,4.2-5.9c2.3-1.6,4.8-2.4,7.5-3.1c1.4-0.3,1.7,0.2,1.8,1.3C407,195.6,407,196.7,407.1,197.8z"/>
	<path style="fill:#FFFFFF;" d="M409.4,155.9c5.8-0.2,9.7,2.6,11.9,7.7c2.3,5.4,2.8,5.2-3.3,5.9c-9.3,1-13-5.3-14.7-11.6
		c-0.3-0.9,0.4-1.1,1-1.3C406,156.2,407.7,155.8,409.4,155.9z"/>
	<path style="fill:#FFFFFF;" d="M337.8,76.2c0-6.3,2.8-10.2,9.2-12.4c4.6-1.6,4.2-1.6,4.7,3c0.8,8.3-3.2,13-11.9,15.2
		c-0.9,0.2-1.3-0.1-1.5-1C338,79.3,337.8,77.8,337.8,76.2z"/>
	<path style="fill:#FFFFFF;" d="M409.7,90.6c-0.2,1.7-0.2,3.2-0.6,4.7c-0.2,0.7-0.4,1.1-1.3,0.9c-3.2-0.7-6.1-1.9-8.5-4.1
		c-2.4-2.1-3.4-5-3.7-8.1c-0.2-1.9,0.2-3.8,0.5-5.7c0.1-0.6,0.2-1.2,1.2-1.2c5.2,0.1,11.3,5.2,12.1,10.3
		C409.6,88.5,409.6,89.7,409.7,90.6z"/>
	<path style="fill:#FFFFFF;" d="M365.9,110c0.1,7.2-4.9,12.7-12.2,13.6c-0.8,0.1-1.1-0.2-1.2-0.8c-1.5-7-0.5-13.8,7.8-17.1
		c5.2-2,5.1-2.4,5.6,3.6C365.9,109.5,365.9,109.8,365.9,110z"/>
	<path style="fill:#FFFFFF;" d="M386.9,141c-2.6,0-2.7,0-2.6-2.2c0-0.6,0.1-1.1,0.1-1.7c1.3-9.2,7.4-12.3,15.5-12
		c0.8,0,1.2,0.3,1.1,1.2c-0.2,2.1-0.4,4.1-1.1,6.1c-1.4,4.1-4.1,6.7-8.3,7.9C390,140.7,388.3,140.9,386.9,141z"/>
	<path style="fill:#FFFFFF;" d="M366,64.2c0.1-7.1,3.8-11.5,11.1-13.3c2.2-0.5,2.2-0.5,2.6,1.7c0.3,2,0.5,3.9,0.2,6
		c-0.6,4.4-3,7.4-6.9,9.4c-1.6,0.8-3.2,1.4-5,1.7c-0.9,0.2-1.3-0.1-1.5-1C366.1,67.1,366.2,65.5,366,64.2z"/>
	<path style="fill:#FFFFFF;" d="M444.2,125.1c1.1,0.1,2.4,0.1,3.6,0.5c6.5,1.6,10.8,7.6,10.1,14.3c-0.1,0.8-0.4,1.1-1.2,1.1
		c-8.1,0.1-13.6-2.9-15.2-11.1c-0.1-0.6-0.2-1.3-0.3-1.9C440.9,125.1,441,124.9,444.2,125.1z"/>
	<path style="fill:#FFFFFF;" d="M490.3,118.6c-0.1,1.1-0.1,2.6-0.5,4.1c-0.2,0.7-0.5,1-1.3,0.8c-2.9-0.7-5.6-1.7-8-3.6
		c-3-2.4-4-5.6-4.2-9.3c-0.1-1.6,0.2-3.2,0.5-4.8c0.2-1.4,0.5-1.6,2-1.2c2.6,0.6,5,1.6,7.1,3.2C489.2,110.5,490.4,114.1,490.3,118.6
		z"/>
	<path style="fill:#FFFFFF;" d="M490.5,67.9c0.1-1.1,0.1-2.5,0.4-3.9c0.2-1,0.7-1.3,1.6-1.1c9,2.2,12.7,7.3,11.8,15.8
		c-0.4,3.8-0.5,3.8-4.3,2.5c-1.9-0.6-3.7-1.5-5.3-2.8C491.5,75.8,490.3,72.3,490.5,67.9z"/>
	<path style="fill:#FFFFFF;" d="M431,115.6c-0.2,2.9-1.1,5.8-2.7,8.6c-0.3,0.6-0.7,0.8-1.4,0.5c-4.3-2.5-7.9-5.5-8.5-10.8
		c-0.4-3.7,0.9-7.1,2.7-10.2c0.2-0.4,0.5-0.5,1-0.4C426.3,104.4,431,110.8,431,115.6z"/>
	<path style="fill:#FFFFFF;" d="M462.2,56c-0.1-1.5,0.2-3,0.5-4.6c0.1-0.7,0.5-0.9,1.2-0.7c10,2.2,13.8,8.4,11.7,18.1
		c-0.2,0.9-0.7,1.1-1.5,0.9C467.1,68,461.9,64.1,462.2,56z"/>
	<path style="fill:#FFFFFF;" d="M450.9,154.8c2.1,0,4.1,0.4,6.1,1.1c0.8,0.3,1,0.6,0.7,1.4c-1,3.1-2.5,5.9-4.9,8.1
		c-1.8,1.7-4,2.5-6.5,2.7c-2.7,0.2-5.2-0.2-7.8-1c-0.6-0.2-1-0.5-0.8-1.2c1.4-4.5,3.6-8.4,8.2-10.3
		C447.5,154.9,449.2,154.8,450.9,154.8z"/>
	<path style="fill:#FFFFFF;" d="M449.5,207.7c-0.1,0.7-0.2,1.8-0.3,2.8c-0.1,1-0.6,1.4-1.6,1.2c-7.8-1.5-12.5-5.6-12.5-13.5
		c0-1.2,0.1-2.4,0.3-3.6c0.2-1.5,0.3-1.6,1.8-1.3c1.1,0.2,2.2,0.5,3.2,0.8C446.8,196.3,449.7,200.6,449.5,207.7z"/>
	<path style="fill:#FFFFFF;" d="M278.6,190.5c0.4,0,0.8,0,1.2,0c1.1-0.1,1.6,0.4,1.5,1.5c-0.3,2.8-0.8,5.5-2.1,8
		c-2.3,4.2-6.2,5.9-10.7,6.2c-4.6,0.3-4.3,0.8-3.8-4.1c0-0.5,0.2-0.9,0.3-1.4c1.5-6.3,5.5-9.7,12.2-10.2
		C277.6,190.5,278.1,190.5,278.6,190.5C278.6,190.5,278.6,190.5,278.6,190.5z"/>
	<path style="fill:#FFFFFF;" d="M289.2,211.6c6.5,0,10.6,2.8,12.8,8.9c1.7,4.8,1.9,4.6-3.1,5.1c-9.2,0.8-13.2-4.9-14.9-12.3
		c-0.2-0.9,0.4-1.1,1.1-1.2C286.4,211.9,287.9,211.5,289.2,211.6z"/>
	<path style="fill:#FFFFFF;" d="M539.2,224.7c0.2-1.6,0.6-3.1,1.2-4.6c2.5-6.2,6.9-9.1,14.4-8.4c0.5,0,0.9,0.2,1.4,0.2
		c2.3,0.4,2.3,0.5,1.7,2.8c-0.2,0.8-0.5,1.7-0.8,2.5C554.5,224.2,548.3,227.6,539.2,224.7z"/>
	<path style="fill:#FFFFFF;" d="M564,190.5c1.4-0.1,3,0.3,4.6,0.7c4,1.1,6.7,3.5,8.1,7.4c0.8,2.1,1.2,4.3,1.2,6.6
		c0,0.8-0.3,1.1-1.1,1.2c-3.3,0.1-6.6-0.3-9.5-2c-4.2-2.4-5.5-6.4-6.1-10.8c0-0.1,0-0.2,0-0.2C560.9,190.4,560.9,190.4,564,190.5z"
		/>
	<path style="fill:#FAFAFB;" d="M395.6,839.2C395.6,839.2,395.5,839.2,395.6,839.2C395.5,839.2,395.5,839.2,395.6,839.2
		C395.6,839.2,395.6,839.2,395.6,839.2z"/>
	<path style="fill:#FAFAFB;" d="M403.7,848.8c0,0.1,0,0.2-0.1,0.4c0,0,0,0,0-0.1v0C403.6,849,403.6,848.9,403.7,848.8
		C403.7,848.8,403.7,848.8,403.7,848.8z"/>
	<path style="fill:#D6D0D2;" d="M403.7,848.8c0,0.1,0,0.2-0.1,0.4c0,0,0,0,0-0.1v0C403.6,849,403.6,848.9,403.7,848.8
		C403.7,848.8,403.7,848.8,403.7,848.8z"/>
</g>
</svg>
