<?xml version="1.0" encoding="utf-8"?>
<!-- Generator: Adobe Illustrator 25.2.1, SVG Export Plug-In . SVG Version: 6.00 Build 0)  -->
<svg version="1.1" xmlns="http://www.w3.org/2000/svg" xmlns:xlink="http://www.w3.org/1999/xlink" x="0px" y="0px"
	 viewBox="0 0 730.1 600.4" style="enable-background:new 0 0 730.1 600.4;" xml:space="preserve">
<g id="Layer_1">
	<path id="SA-02" style="fill:#6D6D6D;" d="M143.7,343.8L143.7,343.8l0.1,0L143.7,343.8z M258.4,324l-0.4,3.6l0.4,3.1l4.1,3.3
		l1.1,4.9l2.1,4.7l0.9,5.6l5.1,11.3l3,1.6l14.1,0.6l3.1,0.9l1.8,1.9l-0.9,2.9l-0.3,5.3l1.3,2.3l3.7,1.3l5.6-1.5l6.5,1.4l0.3,1.6
		l-1,6.2l1.8,13.1l-0.7,2.3l-2.3,3.4l0.5,6.9l-1.8,8.5l0.6,1.5l4.8,6.4l4.3,7.1l0,0l-4,1.5l-5.7,3.8l-5.2-1.3l-2.3,0.2L296,440
		l-4.5,0.3l-4.3,3.8l-6.4,3.1l-10.1,9.2l-2.3,1.1l-2.3-0.2l-1.4-1l-4.7-9.1l0,0l-2-1.9l-1.5-0.2l-5.4,2.8l-4.2-0.2l-4.6,1.8
		l-1.9-1.5l-1.3-3.8l-1.2-1.5l-1.4-0.6l-2.3,0.3l-1.4,1.4l-0.7,2.1l1.1,4.5l-0.1,2.4l-2.7,4.6l-1.4,3.6l-7.7,1.9l-4,4.1l0.2,1.4
		l0.7,0.7l3.7,1.1l1,1.5l-0.3,5.3l0.9,3.9l-0.3,4.4l1.3,1.5l3.7,2.1l2.1,3.1l1.6,1h2.6l2.2-1.1l2.6-9l2.4-4.5l1.5-0.6l4.6,0l0.8-0.5
		l0,0l1.5-0.7l2.3,0.1l1.9,1.9l0.2,1.5l-1.3,6.9l2.2,4.4l-1.3,4.6l-0.8,1.4l-1.5,0.8l-4.7-0.4l-2.2,0.4l-3.9,2.8l-0.8,0.1l-2-1.9
		l-0.5,10l0.6,3l1,1.5l1.4,0.5l6.7,0.2l2.1,1.2l3,9.1l-1.5,6.4l0,0l-1,1.9l-3.6,2l-2,3.2l0,0l-0.4-1.9l-0.3-0.3l-0.9-1.2l0-0.5
		l-0.3-0.6l-0.4-0.4l-0.5,0.8l-0.4-0.3l0.4-1.2l-0.5-0.2l-0.5-0.7l0.1-0.9l-0.7-0.9l-0.5-2l0.1-0.8l-0.2-1.4l-0.8-0.8l0.1-1.2
		l-1.4-1.1l-0.6-1.3l-2.3-0.1l-1.1-0.8l-0.2-1.6l-1.7-2.2l1.2-4.9l-1.6-0.4l-1.1-0.9l-1.2-2.7l1.3-3l-0.2-1.7l-3.1-1.3l-1.1-2.6
		l0.4-1.5l-0.4-1.4l-0.8-0.6l-0.6-1.4l-1.6-0.8l0.3-0.4l-0.5-2l0.5-2.8l-1.2-1.3l-2.3-0.6l-2.8-2.1l-0.3-1l1,0.9l0.3-2.1l-1.1-3.1
		l-1.4-1.6l-2.1,0.6l-1-0.3l0.2,0.8l1.1,0.5l-0.3,0.3l-1.4-0.8l-0.4-1.5l-1.4-0.7l-0.3-2l-1.3-0.6l0.4-1.3l-0.4-1.1l-5.7-3.9l-3-1
		l-1.2-2l-0.6,0l0.1-1.2l-2.3,0.1l-1.4-1.5l-0.5-1.5l-1.6-0.6l-1.9,0.3l0.1,0.5l-0.8,0.1l-2.1-1.6l-1.1,0.2l1.5,0.8l0.3,0.7
		l-2.7-1.3l-5.1-3.9l-1.8-2l0.6-0.5l-1.1-0.8l0.2-1.1l-1,0.3l-0.7-0.7l-1-1.3l0.2-0.4l1,0.7l-0.4-1.2l-1,0.1l-1.5-2l-1.6-3l0.5-0.8
		l-0.2-0.7l-1.4-0.9l-0.1,0.6l0.6,1l-0.6-0.2l-0.8-2.2l0.9,0.4l0.3-0.2l-0.5-0.4l0.3-0.2l-0.7-0.1l-0.6,0.2l-2.1-1.7l0.2-1.3
		l-0.8-0.8l-1.3-0.1l-1.2-1.9l0.2-1.2l-1.3-2.4l-1.7-1l-0.9-4.2l-0.8-0.7l-1.3-2.5l0.1-0.8l0.9-0.4l1.3-0.9l0.7-1.9l-1.2-1l0.1-0.8
		l-0.3-0.7l0.9-0.1l-0.9-1.3l0.2-0.4h-0.6l-0.2,0.3l-0.8-0.7l-0.9-6.1l-1.4-3.1l-3.2-4.2l-0.4-1.9l0.4-0.5l-0.5-1.4l0.6-0.8l1.4-0.3
		l-1,1.9l0.5,0.6l0.5-0.9l0.8,0.2l0.2-2.8l1.2,0.1l-0.2-0.9l0.6-2.2l-0.3-0.7l-0.6,2.9l-0.6-0.3l0.8-2l-0.3-1.5l2.2-4.2l0-1.7
		l0.4-0.7l0.8-0.2l0.3-1.4l-1.2,0l-0.1,0.9l-0.3-0.2l-0.7-0.6l0.5-2.1l-0.1-3.6l-1.9-3.1l-0.4-1.8l-1.2-1.4l0.9-0.9l-0.9-0.1
		l-0.4,0.3l-4.3-7.1l1.3,0.5l1.4,2.2l-0.2,0.5l1.2,0.2l0.5-0.7l-1.6-2.2l-0.1-1.5h-2.3l0.3-0.5l-0.9,0.1l-0.3,0.4l-1.4-2.2l0.7-1.6
		l-0.7-3.8l-0.2-0.8l-0.7,0.7l-1.7-2.5l-0.1-1.3l-0.3-0.4l-0.2-0.1l-1-2.2l-0.1-2.6l0,0l5.1-0.4l3.1-0.9l0.8,0.3l2.1,3.4l2.4,1.9
		l3.4,4.1l1.7,1.3l1.6,0.2l4.9-1.1l1.6,0.4l0.4,3.9l0.7,0.6l10.4-3.2l4.8-0.3l1.1,1.4l0.3,3.2l-2.6,6.9l0.1,0.9l0.6,0.7l4,1.2
		l2.1,1.9l0.4,2.3l-0.8,3.9l0.6,1.6l4.8,0.6l2.3-1.1l4.6-4.1l6.8,2.2l1.6,0l4.5-6.7l9.3-7.1l5.1-5.3l2.4-1.8l5.7-2.3l0.6-0.8
		l-0.4-1.6l-5.4-2.9l-0.8-0.7l-0.2-1.5l3.6-2.9l11.8-5.8l1.1-1.5l0.7-2.2l-0.2-3.2l-1.1-2.5l0.6-2.3l3.2-1L258.4,324L258.4,324z"/>
	<path id="SA-03" style="fill:#6D6D6D;" d="M130.8,324.7l-0.9-0.6l-0.3,0.6l-0.7-0.3l-0.3-0.4l-1.1-1l0.4-0.9l-1,0.4l-1-1.5
		l-1.8-1.2l0.2-0.3l-0.6-0.3l-1.1,0.5l-3.6-2.8l0.6-0.5l-0.6-0.3l0.6-1.7L118,315l0.4,0.4l-0.4,1.3l-1.7-0.2l-2.8-2.1l-1.2-2.1
		l-0.8,0.2l-0.4-0.7l-0.7-0.1l-0.1-0.8l-1.6,0.6l-1-0.4l-0.1,0.8l0.5,0.2l-0.4,0.9l-1.5,0l-0.7-1l-1.2,0.1l-1.8-2.7l-1.5-1.1
		l0.3-1.8l0.7,0.5l0.3-1.1l-1.2-1.5l-0.4-1.5l-1-0.9l0,0l0.6-3.2l0.9-1.5l5.7-0.5l0,0l2.4-0.9l0,0l0.8-0.7l0,0l1.2-1.8l0,0l0.6-0.7
		l0,0l1.6-0.4l2.3,0.5l0,0l2.6,0l1.6-0.8l0.9-1.5l0.2-1.6l0,0l-0.1-3.2l0,0l-0.2-10.3l0,0l0.8-4.8l0,0l0.1-0.7l0,0l0.2-2.3l0,0
		l-1.1-1.4l0,0l-3.2-0.1l0,0l-0.7-0.3l0,0l-1.8-6.3l0,0l-1.8-3.9l-3.7-3.3l0,0l-2.2-1.9l-0.7-1.6l0,0l-0.5-2.3l-0.7-0.6l0,0
		l-2.2-1.1l0,0l-4-2.5l-1.5,0.2l0,0l-1.9,1.8l-0.3-1.6l0,0l-0.8-3.1l-1.7-3.2l0,0l-0.7-1.7l0,0l0.2-2.3l0,0l3.2-5.5l0.3-1.8l0,0
		l-0.4-1.2l0,0l-1.5-0.9l0,0l-4.8-1.4l0,0l-1.6-1.3l0,0l-1-1.6l-0.7-2.6l0.8-8.9l0,0l-1-4.2l0,0l-1.4-1.4l0,0l-1.5-0.2l0,0l-3.1,0.7
		l0,0l-0.8-0.5l-0.1-0.8l1-1.5l0,0l3.1-0.7l0,0l1.6-0.4l0,0l1.7-0.8l0,0l1.6-0.6l0,0l3.2-1.5l0,0l1.6-1.1l0,0l0.8-0.3l0,0l1.6-0.4
		l0,0l4,1.7l0,0l2.4,1.7l0,0l2.4,0.3l1.7-0.4l5.8-3.3l0,0l1.6-0.5l0,0l0.8,0.3l0,0l1.1,1.5l0,0l0.8,3.2l0,0l0.6,1.7l0,0l2.4,4.3l0,0
		l1.1,1.6l0,0l0.8,0.6l0,0l1.5,0.3l0,0l5.4,0.2l1,1.2l0,0l-0.2,1.6l0,0l0.1,0.8l1.5,1l0,0l2.3,1.4l0,0l0.1,0.8l0,0l-0.4,2.4l0.2,0.8
		l0.7,0.3l0,0l0.8,0l1.6-1.2l0,0l1.5-1.4l0,0l1.7-1.3l1.6-0.3l6.2,2.5l0.8-0.6l-0.5-1.5l0,0l-0.3-1.5l0.4-0.7l0.8,0l0,0l1.3,1.2
		l1,3.1l0,0l2.4,0.8l0,0l2.4,0.6l2.3,1.4l0,0l1.5,1.2l0,0l2.4,1.8l2.3,0.4l0,0l6.6-0.5l0,0l10.4-2l0,0l1.5-0.1l0,0l0.8,0.4l0,0
		l1.2,1.4l0,0l0.6,1l0,0l0.7,1.6l0.2,2.7l-0.8,2.4l-1.6,2.2v1.6l1.2,1.5l0.8,0.2l3.3-0.8l0.7,0.2l0.4,0.8l-0.1,4.2l-1.9,10.9
		l2.1,9.8l-0.5,10.1l0.6,1.6l1.3,1.5l1.6,0.7l1.6,0l9.4-3.2l8.1-0.4l2.4-1.2l3.9-4.6l3.3-1.2l6.7-0.1l11.8,2.3l0,0l6.9,1.8l1.4,1.2
		l0.3,2l-0.6,11.3l1.7,2l5.3,1.4l1.4,1.1l3.1,10.8l4.1,3.4l0,0l-0.4,3.1l-3,4.2l0.9,3.6l-1.4,4.9l0,9l0,0l-5.1-0.9l-3.2,1l-0.6,2.3
		l1.1,2.5l0.2,3.2l-0.7,2.2l-1.1,1.5l-11.8,5.8l-3.6,2.9l0.2,1.5l0.8,0.7l5.4,2.9l0.4,1.6l-0.6,0.8l-5.7,2.3l-2.4,1.8l-5.1,5.3
		l-9.3,7.1l-4.5,6.7l-1.6,0l-6.8-2.2l-4.6,4.1l-2.3,1.1l-4.8-0.6l-0.6-1.6l0.8-3.9l-0.4-2.3l-2.1-1.9l-4-1.2l-0.6-0.7l-0.1-0.9
		l2.6-6.9l-0.3-3.2l-1.1-1.4l-4.8,0.3l-10.4,3.2l-0.7-0.6l-0.4-3.9l-1.6-0.4l-4.9,1.1l-1.6-0.2l-1.7-1.3l-3.4-4.1l-2.4-1.8l-2.1-3.4
		l-0.8-0.3l-3.1,0.9l-5.1,0.4l0,0l-0.2,0l0,0l-0.1,0l0,0l-0.6-3.2l-1.3-1.3l0.2-1l-1,0.4l-0.6-0.4l-0.1,0.8l0.8,0.4l-0.4,0.4
		l-0.9-0.5l0.1-1.5l-0.6-1.4l0.1-0.5l-0.8-0.4l-0.7-0.8l-0.9-2.8l0-1.6l-1-1.1l-0.9-0.1l-0.9-1.6l-2.4-1.6l-0.6-1L130.8,324.7
		L130.8,324.7z"/>
	<path id="SA-04" style="fill:#6D6D6D;" d="M545.1,262.6l1.2,0.5l0.3,2.1l-0.6-1.3l-1-0.6L545.1,262.6L545.1,262.6z M536.7,223.6
		l0.9,0.7l0,1.6l-1.2-1.2l-1-0.1l0.2-0.6L536.7,223.6L536.7,223.6z M518.4,194.5l1.8,1.1l4.1,1.1l-1.9,0.1l-0.5-0.3l-2.4,0.8
		l-0.5-0.6l0.5-0.2l-0.1-0.5l-1.2-0.6l-2.1,2.3l0.3,0.6L516,198l-0.2-0.8l0.5-1.6l0.7-0.9L518.4,194.5L518.4,194.5z M537.9,228
		l0.4,1l0.5-1.6l0.5,0.1l-0.1,2.4l0.8,0.4l1.2-1.8l-0.4-0.3l0.4-1.8l0.2,0.4l0.1,1.1l0.4-0.6l0,1.2l-1,0.6l0.1,1.1l-0.6,0.1l1.7,1.5
		l0.5,1.6l-0.5,4.1l0.5,0.7l-0.4,0l-0.1,1.5l-1,1.1l0.2-0.8l-0.9-1.2l-0.2,2.2l0.4,0.5l-0.8,2.1l0.2,1.3l-0.8,0.4l-2.6-6l-0.8-0.5
		l-0.5,0.3l-1.2,2.8l0.9,1.3l-0.5,0.7l0,3l0.6,0.2l0.8-0.9l0.8,0.7l1.4,0.1l0.5,0.8l-0.2,0.8l0.6,0.6l-0.7,0.2l-0.4,1l1.3,2.9
		l1.8,2.7l1.1,0.7l0.7,2l0.8,0.4l-0.2,0.9l-0.4,0.2l-0.4-1.5l-1.4-0.3l-1-1.5l-0.5,0.2l-0.5-0.6l0.7,1.7l1.1,0.8l0,0.6l0.5-0.7
		l0.2,0.3l0.2,1.8l1.3,1.2l0.7,1.5l1.3,0.4l0.1,1.1l2,2.5l0.4,0l0-1.1l-0.7-0.9l0.7-0.5l0.6,1.6l3.2,2.5l1.3,4l-0.3,2.4l1.2,2
		l-0.4,1.8l0.8,2.6l-0.3,0.9l0.9,0.5l-0.5-0.6l0.3-0.8l2.5,3.5l1,3.3l1,0l0.5,0.7l1.5,6.5l0.6-1.8l1.6-0.3l-0.2,0.5l1.1,2.1l3.7,4.4
		l4.6,0.8l2.5-1l1.6-1.8l1.2,0.4l1-0.3l-0.1,0.5l0.6,0.4l0.8-0.4l-0.7,1.3l0.1,2.4l1.5-0.9l0.4-1.4l1.6-1.3l-0.1-1l0.9,0.5l0.5-0.4
		l0.4,1.6l1-0.6l0.8,0.8l-0.6,0.6l-1.2,0.1l-0.5,1l-0.4-0.2l-0.4,1.5l-3.1,2.4l-0.6,3.1l-0.6,0.1l0.1,1.7l2.2,0.4l0.9-1.2l2-0.2
		l1.7,0.7l1.5,2.1l1.6-0.1l0.8,1.2l-0.5,4.2l34.3,41.6l23.8,4.8l59.7,13.8l7-7.5l15.7,26l-23,73.2l-103.4,36.4l-40,7.9l-57.9,6.3
		l-32.1,15.7l-20.9,25.6l-4.9,12.2l-1.5,0.9l0,0l2.6-24.5l8-63.5l0,0l19.5-152.8l0-7.8l-1.4-6.9l-3-5.8l-1.7-2.1l-9.2-9.1l-9.4-6.3
		l-2.3-1.8l-1.1-1.8l-0.7-3.7l-0.3-7.4l0.6-15.1l-0.4-22.6l-0.4-5l-1.1-2.6l-3.9-2.1l-8.9-3.2l-1.5-2.5l-6.5-6.1l-1.5-0.2l-4.4,1
		l-2.4,0l-2.5-1.2l-9.9-6.9l-3-0.8l-5.6-0.1l-2.4-0.6l-4.1-3.4l-3.5-4.2l-5.7-1.1l-10.4-6.1l-1.2-1.5l-1.4-5.1l-2.1-2.2l-3.3-2.3
		l0,0l-1.5-1.8l-0.4-1.5l1.3-4.7l9.1-12.1l12.7-23.7l8.3-8.7l12.5-4.4l0,0l5.1,0.1l2.6-1.3l4.1-3.2l31.4,4.1l0.9,0.7l3.4,5.4
		l0.6,2.6l0.2,4.6l3.5,4.7l-0.2,0.7l25-0.4l1.2,1.1l1.3,0.5l0,2.2l0.8,0.7l-0.2,0.3l0.9,0.1l-1,3l1,2l1.5,1l1.7,2.2l-0.7,0.5
		l-0.2,2.7l0.4,1l2,2.4l3.9,1.1l-0.8,0.9l-0.8-0.1l0.1,1.1l1.6,1.8l1,0.1l0,1.4l2,1.3l-0.4,2.1l0.5,0.4l-0.1,0.5l-0.9,0.6v-0.9
		l-0.5,0l0.3-2l-0.7,1l-0.3-1.4l-1.3,4.4l0.6,0.1l0.5-1.2l0.4,2.4l0.6-0.9l0.4,0.7l-0.3,1.2l1.1-0.3l-0.3,0.6l-0.5,0.1l0,0.8
		l-0.3,0.7l1.1,0.5l0.8-1.3l0.6,0.2l-0.6,1l0.1,1.3l0.8-0.4l-0.1-1l1.6-0.8l0.9,0.4l1.1,1.6l2.6,1.2l3.7-0.1l1.7,0.8l0.6,1.3
		l1.1,0.6l0.2,1.8l-0.6-0.1l0.2-0.7l-0.4-0.5l-0.7,1.1l-0.5-0.6l-0.7,0.7l-0.8-0.7l-0.7,0.5l-0.3-0.4l-0.7,0.9l-0.8-0.3l-0.3,0.7
		l0.4-0.2l1.5,0.9l0.6,0.7l1-0.2l0-1.1l1.4,0.8l-0.6,0.8l-0.7,0.1l0.3,0.9l-0.7,1.2l1.7-1.1l1.6,0.5l0,3.7l0.7,1.1l0.5,0l0.4-0.1
		l0.5-0.2l1.1,0.6l-0.5,1.9l-0.7-0.2l-0.4,0.4l0.5,0l-0.2,0.6l0.8-0.3l0.5,1l0.7-1.7l0.5,0.4l-0.2,1.1l1.2-0.7l1.5,0.5l-0.9-1.7
		l1.3-1.3l-1.7-1.6l-0.7,0.1l0.7-1l-0.2-0.5l0.7-0.5l0.5,2l1.1,0.1l0.2,1.5l-0.7,0.3l1,1l0.9-0.7l0.6-2.7l1-1.3l-1,2.9l-0.4,1.6
		l-0.6,1l0.5,2l1.2,1.2l2.4-1.4l1.1,0.4l0,0.1l-0.5,0l-0.1,0l-0.3,0.5l-0.3-0.5l-2.3,1.2l1,1.2l1.5-0.4l-0.2,0.7l-0.6,0l0,1.2l0.7,0
		l0.2,0.9l0.1,0.2l2.3,1.8l0.4,0.1l1.2,0.7l1.1,0.4l0.8,0.6l3,0.3l2.1,2.2l4.5,5.3l0.5,0.4l0.4,0.4l-0.6,0.1l-1.3-1.7l-1.7-0.4
		l-1,0.7l-1.2-1.9l-0.1-0.9l-0.5,2.2l0.2,0.9l0.8,0.2l-0.3,1.1l0.3,2.7l0.9,2.3l1.4,1.8l0.1-1.1L537.9,228L537.9,228z"/>
	<path id="SA-05" style="fill:#6D6D6D;" d="M238.6,264.1l1.2-1.4l4.9-0.7l6-3.6l6-0.8l0.8-0.6l0-0.8l-2.4-4.8l0.3-2.4l1.3-1.5
		l0.9-0.2l4,1.4l2.4,0.2l0.5-0.8l-0.8-6.3l1.9-4.8l0.8-0.4l1.6,0.5l3.3-0.8l0.9-4.3l4.8-4.8l11.9-9.2l11.3-5.2l2.8-5.8l2.7-2.8
		l14.5-7.4l4.1-1.3l2.4,0.9l4.4,4.5l6,4.1l7.5,0.5l5-5.8l0,0l2.4,0.9l3.6,3l1.3,2.5l0.1,2.5l-0.6,1.5l-4.2,1.8l-2.5,2.1l-4.5,5.9
		l-4,1.1l0.4,5.1l-0.8,5.7l0.5,1.5l3.6,3.6l6.7,10.2l0.1,0.9l-1.1,2.9l2.5,4.9l0.3,3.2l-0.8,3.9l-5.5-0.2l-7.2,0.7l-8.3-1.1
		l-3.1,0.8l-2,2l-2.3,4.5l-3.1,1.7l-2.8,2.8l-12.9,3.1l-3.3,2.5l-5.4,6.7l-0.1,2.3l1.9,3.8l-0.9,2.2l-2.4,1.8l-5.7-0.9l-5.7,0.9
		l-5.7-0.5l-3.9-0.8l-5.2-2.5l-1.5-0.1l-2.2,1.6l-3,5.1l0,0l-4.1-3.4l-3.1-10.8l-1.4-1.1l-5.3-1.4l-1.7-2l0.6-11.3l-0.3-2l-1.4-1.2
		L238.6,264.1z"/>
	<path id="SA-06" style="fill:#6D6D6D;" d="M183.7,221.4l2-2.4l2.3-7.8l3.1-3.7l0,0l4.4-4.1l0.3-2.4l0,0l-0.4-0.8l0,0l-2.9-1.8l0,0
		l-0.8-0.4l0,0l-3.7-2.2l-1.4-3.9l0,0l-0.1-0.9l0,0l-0.4-1.6l0,0l-2.2-9.4l-1.1-2.5l0,0l-1.4-1.6l-2.4-1l0,0l-0.8-0.5l-1.3-2.4
		l-0.8-0.3l0,0l-2.3-0.7l0,0l-1.3-1.6l0,0l-2.9-2.3l-4.9-1.3l0,0l-1.5-0.2l0,0l-4.1-0.7l0,0l-2.4-0.5l-1.1-1.3l0,0l3.7-4.2l6.3-3.5
		l9.9-4.4l4.3-0.7l13.1-7.6l12.9-5.5l3,0.7l0,0l4.4,1.9l2.4,0.4l21-4.9l12.2,3.5l4.8-1.4l4.5-0.4l14.5,3.5l2.4,2l4.2,5.2l2.5,1.5
		l4-0.2l4.6-2.5l2.7-0.5l0.7,0.8l0.9,6.2l1.4,1.5l1,0.3l6.5-0.3l6,3.1l2.5-0.8l5-3.4l1.6-0.2l1.6,1.2l1.1,1.6l5.3,9.7l2.8,7.7l2,2.5
		l2.4,1.4l10,1.3l3.3,1.3l1.6,0.9l6.1,5.5l1,1.9l0,0l-3.1,1.6l-2.4,3.3l-1,3.1l-0.1,1.6l0.7,1.9l0,0l-5,5.8l-7.5-0.5l-6-4.1
		l-4.4-4.5l-2.4-0.9l-4.1,1.3l-14.5,7.4l-2.7,2.8l-2.8,5.8l-11.3,5.2l-11.9,9.2l-4.8,4.8l-0.9,4.3l-3.3,0.8l-1.6-0.5l-0.8,0.4
		l-1.9,4.8l0.8,6.3l-0.5,0.8l-2.4-0.2l-4-1.4l-0.9,0.2l-1.3,1.5l-0.3,2.4l2.4,4.8l0,0.8l-0.8,0.6l-5.9,0.8l-6,3.6l-4.9,0.7l-1.2,1.4
		l0,0l-11.8-2.3l-6.7,0.1l-3.3,1.2l-3.9,4.6l-2.4,1.2l-8.1,0.4l-9.4,3.2l-1.6,0l-1.6-0.7l-1.3-1.5l-0.6-1.6l0.5-10.1l-2.1-9.8
		l1.9-10.9l0.1-4.2l-0.4-0.8l-0.7-0.2l-3.3,0.8l-0.8-0.2l-1.2-1.5v-1.6l1.6-2.3l0.7-2.4l-0.2-2.7L183.7,221.4z"/>
	<path id="SA-07" style="fill:#6D6D6D;" d="M89.2,285l1.2,0.8v0.7l-1.5-0.7L89.2,285z M81.3,267.7l0.9,0.6l0.4-0.2l1,2.7h-0.7
		l0.1-1.2l-2-1.1L81.3,267.7z M85.8,266.4l0.7,0.2l0.4,1.3l0.6-0.2l-0.3,0.8l-0.2-0.5l-1.2,0l0.4-1.1l-0.7-0.4
		C85.4,266.5,85.8,266.4,85.8,266.4z M85,264.9l0.9,0.9l-1.3-0.1L85,264.9z M81.4,262.7l0.6,0.9l-0.8,0.6l-0.4-0.7L81.4,262.7
		L81.4,262.7z M83.4,262.3l0.9,2.3l-1-0.9L83.4,262.3z M83.8,261.5l0.4,0.4l-0.3,0.6l-0.6-0.8C83.3,261.8,83.8,261.5,83.8,261.5z
		 M69.6,259.3l1.4,1.6l-1.6,0.1l-0.6-1L69.6,259.3L69.6,259.3z M72.2,257.3l0.7,0.5l-0.7,0.1l-1.3-1.4l0-1.7l0.5,1.8l1.1-0.6
		C72.3,256,72.2,257.3,72.2,257.3z M7.1,171.1l0.9,0.2l0.6,1.5l-1,0.4l-0.7-1.5l-0.4,0l-0.1,0.8l-0.6-0.1l0.2-0.9
		C5.9,171.6,7.1,171.1,7.1,171.1z M1.7,169l0.5,0.7L1,170.2l-0.4-0.3l0,0.4l1.1,0.8l1.9-0.3l-0.1,0.8l1.2,1.1L2.3,173l-1.7-1.2
		l-0.3-2.2L1.7,169L1.7,169z M49.7,131.6l5.1,1.6l0,0l2.5,1.9l2,2.4l0,0l1.2,1.6l0,0l6.2,8.1l0,0l1.7,0.6l1.8-0.3l0,0l3.3-1.4l4.4-1
		l0,0l4.5-0.8l0,0l5.2,0.7l4.6,1.8l8.6,0.7l0,0l1.6-0.6l0,0l2.6-6.1l0,0l1.3-1.5l0,0l1.6-0.7l0,0l2.9-2.9l0,0l0.8-0.4l1.6,0.9l0,0
		l0.5,1.6l0,0l-0.4,7.2l0.3,4.4l0,0l0.6,2.6l0,0l0.8,1.6l0,0l3.5,3.6l2.4,1.2l0,0l3.3,1.1l0,0l10.1,1.2l0,0l2.4-1.8l0.8,0l0,0
		l1.5,1.3l0,0l0.8,0.5l0,0l1.6-0.3l0,0l0.8,0.2l0.8,2.5l1.3,1.1l0,0l1.7-0.1l3.6-1.9l0,0l3.4-1l1.6,0.5l1.4,1.2l0,0l1.1,1.3l2.4,0.5
		l0,0l4.1,0.7l0,0l1.5,0.2l0,0l4.9,1.3l2.9,2.3l0,0l1.3,1.6l0,0l2.3,0.7l0,0l0.8,0.3l1.3,2.4l0.8,0.5l0,0l2.4,1l1.4,1.6l0,0l1,2.5
		l2.2,9.4l0,0l0.4,1.6l0,0l0.1,0.9l0,0l1.4,3.9l3.7,2.1l0,0l0.8,0.4l0,0l3,1.8l0,0l0.4,0.8l0,0l-0.3,2.4l-4.4,4.1l0,0l-3.1,3.7
		l-2.3,7.8l-2,2.4l0,0l-0.6-1l0,0l-1.2-1.4l0,0l-0.8-0.4l0,0l-1.5,0.1l0,0l-10.4,2l0,0l-6.6,0.5l0,0l-2.3-0.4l-2.4-1.8l0,0l-1.5-1.2
		l0,0l-2.3-1.4l-2.4-0.6l0,0l-2.4-0.8l0,0l-1-3.1l-1.3-1.2l0,0l-0.8,0l-0.4,0.7l0.3,1.5l0,0l0.5,1.5l-0.8,0.6l-6.1-2.5l-1.6,0.3
		l-1.7,1.3l0,0l-1.5,1.4l0,0l-1.6,1.2l-0.8,0l0,0l-0.7-0.3l-0.2-0.8l0.4-2.4l0,0l-0.1-0.8l0,0l-2.3-1.4l0,0l-1.5-1l-0.1-0.8l0,0
		l0.2-1.6l0,0l-1-1.2l-5.4-0.2l0,0l-1.5-0.3l0,0l-0.8-0.6l0,0l-1.1-1.6l0,0l-2.4-4.3l0,0l-0.6-1.7l0,0l-0.8-3.2l0,0l-1.1-1.5l0,0
		l-0.8-0.3l0,0l-1.6,0.5l0,0l-5.8,3.3l-1.7,0.4l-2.4-0.3l0,0l-2.4-1.7l0,0l-4-1.7l0,0l-1.6,0.4l0,0l-0.8,0.3l0,0l-1.6,1.1l0,0
		l-3.2,1.5l0,0l-1.6,0.6l0,0l-1.7,0.8l0,0l-1.6,0.4l0,0l-3.1,0.7l0,0l-1,1.5l0.1,0.8l0.8,0.5l0,0l3.1-0.7l0,0l1.5,0.2l0,0l1.4,1.4
		l0,0l1,4.2l0,0l-0.8,8.9l0.7,2.6l1,1.6l0,0l1.6,1.3l0,0l4.8,1.4l0,0l1.5,0.9l0,0l0.4,1.2l0,0l-0.3,1.8l-3.2,5.5l0,0l-0.2,2.3l0,0
		l0.7,1.7l0,0l1.7,3.2l0.8,3.1l0,0l0.3,1.6l1.9-1.8l0,0l1.5-0.2l4,2.5l0,0l2.2,1.2l0,0l0.7,0.6l0.5,2.3l0,0l0.7,1.6l2.2,1.9l0,0
		l3.7,3.3l1.8,3.9l0,0l1.8,6.3l0,0l0.7,0.3l0,0l3.2,0.1l0,0l1.1,1.4l0,0l-0.2,2.3l0,0l-0.1,0.7l0,0l-0.8,4.8l0,0l0.2,10.3l0,0
		l0.1,3.2l0,0l-0.2,1.6l-0.9,1.5l-1.6,0.8l-2.6,0l0,0l-2.3-0.5l-1.6,0.4l0,0l-0.6,0.7l0,0l-1.2,1.8l0,0l-0.8,0.7l0,0l-2.4,0.9l0,0
		l-5.7,0.5l-0.9,1.5l-0.6,3.2l0,0l-1.6-2.9l0.1-0.7l-0.8,0.3l-0.6-1.6l-2.8-1.5l0.3-0.5l-0.8-1.7l0.8,0.1l-0.1-1.2l-0.9-0.4l0.4,0.4
		l-0.8,0.6l-1.3-1.8l0.7-0.6l1.3,0.3l-0.9,0.4l1.2,0.4l0.3-1.2l1.2-0.9l-0.7-1.5l1.3-3.1l-1.4-2.8l0.8-1.5l-0.6-2.6l-4.7-5.2
		l-1.4-3.5l0.1-1.6l-2.7-2.2l0-1.8l-0.9-0.2l-0.2-2.1l-1.1-1.6l-2.1-0.9l-2.2-3.2l-0.4,0l0.5,1.5l-0.4,0.2l-0.6-0.1l-0.5-0.9
		l-0.9-0.1l-1.1-0.9l0.2-1.1l-0.5,0.4l-0.4-0.5l-0.6-1.9l-1-0.3l1.6-2.6l0.6-2.3l-0.2-1.9l-1.8-1.1l-2.8-0.2l-0.3-0.2l-2.3-2
		l-1.1-3.7l-3.1-5l-2.2-5.7l-2.6-4.5l-2-2.2l-1-2l-1.8-1l-1.8-4.2l-0.2-1.7l-3-3.3l-1.9-1.1l-0.3-0.8l-3.1-3.1l-0.4-2.1l1-1.1
		l-0.3-1.1l-2.3-3.8l-2.6-1.3l-2.6-3l-0.2-1.4l-1.8-2.4l-0.4-3.1l-1.5-1.9l-0.4-2l-1-1.9L32,178l-1.9-0.6l-0.2-2.5l-2.5-2l-0.6-1.6
		l-3.3-1.7l-0.2-0.6l2.2-0.6l-0.1-0.6l-2-0.4l-0.7-0.6l-1.3,0.1l-1.7-1.7l-0.6,0.2l-0.9-0.6v0.3l0.5,0.8l-1.1-0.6l-2.4,1.3l-2.2-0.2
		l-0.5,0.4l-0.2-1l1-0.6l-1.7,0.1l-0.6,1.4l-0.3-0.4l0.6-1.1l-0.6,0.1l-0.5,0.7l-1-0.2l0.4,1.3l-1,0l0.4-1.7l-1.3-0.2l0.3-0.3
		l-0.4-0.8l-0.2,0.5l-0.7-0.3l-1.1,1.6l0.6,1.1l-0.7,0.1l-0.7,1.4l-0.8-1.4l0.2-1.3l-0.5-0.2L3,166.1l0-0.8l2-2.5l1,0.4l-0.4-1
		l0.6-0.4l0.8-2.5l-0.3-0.1l3.3-8.2l1.1-1.7l-0.3-3.5l-0.8-1.9l1.9-5.8l0-2.9l0,0l3.2,0.2l1.6-0.6l2.5,0.8l0,0l5.2,0.7l0,0l1.9-0.1
		l2.3-2.2l0,0l3.3-0.8l0,0l6-1.1l0,0l2.3,0.2l0,0l3.3-0.7l0,0l3.4-0.2l0,0L49.7,131.6L49.7,131.6z"/>
	<path id="SA-08" style="fill:#6D6D6D;" d="M403.9,130.7l-12.5,4.4l-8.2,8.7l-12.7,23.7l-9.1,12.1l-1.3,4.7l0.4,1.5l1.5,1.8l0,0
		l-1.3,2.2l-1.8,0.9l-1.5-0.5l-1.9-2.1l0,0l-1-1.9l-6.1-5.5l-1.6-0.9l-3.3-1.3l-10-1.3l-2.4-1.4l-2-2.5l-2.8-7.7l-5.3-9.7l-1.1-1.6
		l-1.6-1.2l-1.6,0.2l-5,3.4l-2.5,0.8l-6-3.1l-6.5,0.3l-1-0.3l-1.4-1.5l-0.9-6.2l-0.7-0.8l-2.7,0.5l-4.6,2.5l-4,0.2l-2.5-1.5
		l-4.2-5.2l-2.4-2l-14.5-3.5l-4.4,0.4l-4.8,1.4l-12.2-3.5l-21,4.9l-2.4-0.4l-4.4-1.9l0,0l5.6-5.7l0.9-6.1l0.4-9.4l1.4-2.5l6.2-4.7
		l27.3-16.8l5.3-4.7l-0.1-1.6l-7.8-6.3l-3.1-6.4l-2.1-2.5l-3.6-1.6l-5.4,0l-3.2-0.7l-7.6-6.1l-2.7-1.3l-7,0.9l-17.9-0.6l-3.7-1.1
		l-4-3.4l-1.8-0.8l-4.4-0.1l-19-3.5l-8.1,0.1l-7.2,1.4L133.4,56l-3.4,0l-2.3-0.6l-2.2-1.9l-3.9-7l-4.7-3.7l-0.6-6.7l2.8-8.3l1.3-6.1
		l0,0l35-10.3l10.5-9.2l-0.4-2l1.2,1.5l2.3,1.4l18.6,5.4l6.1,2.8l3.4,2.3l88.7,62.7l66,45.6l7,1.6L403.9,130.7z"/>
	<path id="SA-09" style="fill:#6D6D6D;" d="M260.5,593.8l0.4,0.2l0.2-0.1l0.3,0.3l-0.6,1.1l-0.7-0.8L260.5,593.8L260.5,593.8z
		 M260.1,590.6l0.4,0.5l-0.4,1.5l-0.1-1l-0.5,0.8l-0.6-1.2l0.4-0.6L260.1,590.6L260.1,590.6z M253.6,590.1l1.4,1.1l-0.8-0.2
		L253.6,590.1z M250.1,587.7l1.9,0.5l1.1,1.6l-3.2-1l-0.6-0.8L250.1,587.7L250.1,587.7z M259.8,583.9l0.5,0.3l-1.6,0.1L259.8,583.9
		L259.8,583.9z M250.6,582.1l3.2,1.8l1.5,3.1l2.3,0.7l1.6-0.4l1,1.3l1.6-0.5l-0.3-0.9l-0.4-0.1l0.3,0.6l-0.8,0l-0.4-0.6l0.5-0.6
		l0.1-1.3l0.6,0.1l0.2-0.6l0.9,0.1l0.2,1.4l0.8,1l0.4-0.1l0.6,1l0.9-0.2l0,0.5l0.5-0.1l-0.1,0.9l-0.6,0.7l0.4,3l-0.9,0.1l-1.2-1.4
		l-1.8-0.4l1.2-0.6l-0.1-1.3l-1.8-0.4l-3,0.9l-2-1.6l-1.1-0.3l-1.2-1l-1-1.9l-1.3,0l0.5-1.2l-1-0.8L250.6,582.1L250.6,582.1z
		 M244.1,581.9l2.1,3l-1.6-0.6l0.2-0.3l-0.8-0.7L244.1,581.9L244.1,581.9z M256,579.9l1.1,0.8l-0.6,0.9l0.6,0.9l1.4,0.4l-0.1,0.9
		l-1.3-0.3l-0.7,0.6l2.2,1.7l0.7,1l-0.3,0.5l-0.8-1.2l-3-1l-1.8-2.6l0-1.1l1.6-0.2L256,579.9L256,579.9z M248,579.6l1.5,1.1
		l-0.7,1.2l-1,0.3l-0.9-1.2L248,579.6L248,579.6z M251.6,578.8l1.1,0.7l-0.5,0.6l-0.4-0.1L251.6,578.8L251.6,578.8z M256.8,579
		l0.4,1.4l-2.1-2.1L256.8,579L256.8,579z M251,531.1l4.5-0.5l1.3,1l-0.8,7.3l0.3,1.5l0.7,0.5l3-0.5l2.1,0.2l1.1,1.3l0.9,2.9l0.7,0.6
		l8.3,0.4l1.3,1.2l1.6,3.7l3.2,3.2l1.5,0.6l1.4-0.1l0.6-0.7l1.7-6.8l1.2-2.1l2.9-2.2l2.2-0.9l1,1.1l-0.1,4.4l3.6,1.8l2.6,4.6
		l0.7,0.6l3,0.6l2,3l0,0l1,1.4l-1.9,2.9l0.1,2.4l1.5,0.9v0.7l0.8,0.3l0.3,0.7l-4.5,1.4l0.4,1.9l-1.5,1.4l0,1.5l-0.6,0.3l-0.1,0.9
		l0.1,0.3l1-0.4l1.6,0.5l0.8,1.6l-0.5,0.9l-2.3-0.3l0.3,2.8l-1.5,0.7l0,0.6l1.5,1.9l1.5,0.3l0.3,0.8l1,0.5l-0.2,1.3l0.5,0.9
		l-1.4,0.1l-0.3,0.8l0.5,2.6l-0.8,0.2l-2.1-1.1L298,590l0.4,0.9l-1,2.7l0,1.1l-4.4,1.2l-1.7,1.2l0.4,2.7l-1.7,0.4l-4.8-0.5l-0.3-0.7
		l0.6-1.8l-1.2-1.2l-0.8-2.2l0.6-3.6l-0.3-0.3l-0.5-0.6v-0.9l0-0.6l-2.5-3.1l-1.4-0.7l-0.6,0.2l-0.4-1.3l-0.5-0.2l-0.7-0.3l1.1-1
		l-0.5-1.4l0.3-1.8l-1.4-1.1l-2.2-0.7l-1.3-1.9l0.2-1.8l-0.5-0.2l-1.1-0.7l-0.3,0.3l1.1,2l-0.7,0.7l0,2l-0.3,1l-0.2-3.7l-1-3.2
		l-0.5-4.2l-0.6-0.3l0.7-2.1l-0.3-1.6l-1.4-0.4l-1.6-2.5l-2-1.5l-1,0l-0.2-1.5l-0.8-0.9l-7.3-5.2l-0.6-1l-1.4-0.3l-1.2-1l-1.1,0
		l0.2-0.8l-3.8-3.5l0.7,0l-1-0.9l0.3-1.1l-0.6,0.8l-0.5-0.3l-0.1-0.5l0.6-0.2l-0.2-1l-1.4-0.5l-0.8-1.8l0,0l2-3.2l3.6-2L251,531.1
		L251,531.1z"/>
	<path id="SA-10" style="fill:#6D6D6D;" d="M399.9,569.4l-17.2-2.4l-6.2-0.4l-6.2-4h-19.7l-1.4,1l-2,0.3l-2.6-1.4l-2.7,0.1l-8.8,1.1
		l-0.8,1.5l-1.1-1.3l-3,0.5l-1.4,1.9l-2.6-0.7l-1.6,0.4l-2-0.3l-0.7-0.9l-2,0.4l-2.6-2.7l0.1-1l0,0l1.1-3.2l-1.3-5.9l0.7-1.5
		l0.8-8.4l-1.4-6.1l0.1-1.7l0.9-1.7l3.1-3.4l8.2-7.6l1.1-1.5l1.1-3l1-1l6.3-2l2.4-1.4l1.2-1.4l1-2.2l0.2-2.1l-1.8-8.6l0.7-1.6
		l3.9-1.9l1.1-1.4l0-6.1l0,0l8.5,5.6l5.2,2.4l3.2,0.7l8.9,0.7l58.9-5l16.4-2.4l10.1-2.6l0,0l-8,63.5l-2.6,24.5l0,0l-7.5,4.7l-7-0.4
		l-8.2-11l-10.7,1.5L399.9,569.4z"/>
	<path id="SA-11" style="fill:#6D6D6D;" d="M260,447.1l-2.1,6.4l0.2,0.8l2,2l0.1,1.6l-1,1.5l-5.8,4l-0.8,1.8l0.2,3.5l-4.3,8.7l0,0
		l-0.8,0.5l-4.6,0l-1.5,0.6l-2.4,4.5l-2.6,9l-2.2,1.1h-2.6l-1.6-1l-2.1-3.1l-3.7-2.1l-1.3-1.5l0.3-4.4l-0.9-3.9l0.3-5.3l-1-1.5
		l-3.6-1.1l-0.7-0.7l-0.2-1.4l4-4.1l7.7-1.9l1.4-3.6l2.7-4.6l0.1-2.4l-1.1-4.5l0.7-2.1l1.4-1.4l2.3-0.3l1.4,0.6l1.2,1.5l1.3,3.8
		l1.9,1.5l4.6-1.8l4.2,0.2l5.4-2.8l1.5,0.2L260,447.1z"/>
	<path id="SA-12" style="fill:#6D6D6D;" d="M13.4,126.1l0.7-2.8l0.7-0.8l-0.2-0.8l1-0.6l-0.5-1.9l0.8-0.5l-0.2-0.9l0.6-1.4l38.2,6.8
		l14.7-12.1l8.8-14.8l25.8-5.2l5.8-13.2l11.3-6.8L86.7,31.5l33.7-9.9l0,0l-1.3,6.1l-2.8,8.3l0.6,6.7l4.7,3.7l3.9,7l2.2,1.9l2.3,0.6
		l3.4,0l13.6-1.5l7.2-1.4l8.1-0.1l19,3.5l4.4,0.1l1.8,0.8l4,3.4l3.7,1.1l17.9,0.6l7-0.9l2.7,1.3l7.6,6.1l3.2,0.7l5.4,0l3.6,1.6
		l2.1,2.5l3.1,6.4l7.8,6.3l0.1,1.6l-5.3,4.7l-27.3,16.8l-6.2,4.7l-1.4,2.5l-0.4,9.4l-0.9,6.1l-5.6,5.7l0,0l-3-0.7l-12.9,5.5
		l-13.1,7.6l-4.3,0.7l-9.9,4.4l-6.3,3.5l-3.7,4.2l0,0l-1.4-1.2l-1.6-0.5l-3.4,1l0,0l-3.6,1.9l-1.7,0.1l0,0l-1.3-1.1l-0.8-2.5
		l-0.8-0.2l0,0l-1.6,0.3l0,0l-0.8-0.5l0,0l-1.5-1.3l0,0l-0.8,0l-2.4,1.8l0,0l-10.1-1.2l0,0l-3.3-1.1l0,0l-2.4-1.2l-3.5-3.6l0,0
		l-0.8-1.6l0,0l-0.6-2.6l0,0l-0.3-4.4l0.4-7.2l0,0l-0.5-1.6l0,0l-1.6-0.9l-0.8,0.4l0,0l-2.9,2.9l0,0l-1.6,0.7l0,0l-1.3,1.5l0,0
		l-2.6,6.1l0,0l-1.6,0.6l0,0l-8.6-0.7l-4.6-1.8l-5.2-0.7l0,0l-4.5,0.8l0,0l-4.4,1l-3.3,1.4l0,0l-1.8,0.3l-1.7-0.6l0,0l-6.2-8.1l0,0
		l-1.2-1.6l0,0l-2-2.4l-2.5-1.9l0,0l-5.1-1.5l0,0l-2.6-0.5l0,0l-3.4,0.2l0,0l-3.3,0.7l0,0l-2.3-0.2l0,0l-6,1.1l0,0l-3.3,0.8l0,0
		l-2.3,2.3l-1.9,0.1l0,0l-5.2-0.7l0,0l-2.5-0.8l-1.6,0.6l-3.2-0.2l0,0l0.4-3l0.6-1.3l-0.4-1.7l0.8-1.4L13.4,126.1z"/>
	<path id="SA-14" style="fill:#6D6D6D;" d="M303.2,558.2l-2-3l-3-0.6l-0.7-0.6l-2.6-4.6l-3.6-1.8l0.1-4.4l-1-1.1l-2.2,0.9l-2.9,2.2
		l-1.2,2.1l-1.7,6.8l-0.6,0.7l-1.4,0.1l-1.5-0.6l-3.2-3.2l-1.6-3.7L273,546l-8.3-0.4l-0.7-0.6l-0.9-2.9l-1.1-1.3l-2.2-0.2l-2.9,0.5
		l-0.7-0.5l-0.3-1.5l0.8-7.3l-1.3-1l-4.5,0.5l0,0l1.5-6.4l-3-9.1l-2.1-1.2l-6.7-0.2l-1.4-0.5l-1-1.5l-0.6-3l0.5-10l2,1.9l0.8-0.1
		l3.9-2.8l2.2-0.4l4.7,0.4l1.5-0.8l0.8-1.4l1.3-4.6l-2.2-4.4l1.3-6.9l-0.2-1.5l-1.9-1.9l-2.3-0.1l-1.5,0.7l0,0l4.3-8.7l-0.2-3.5
		l0.8-1.8l5.8-4l1-1.5l-0.1-1.6l-2-2l-0.2-0.8l2.1-6.4l0,0l4.7,9.1l1.4,1l2.3,0.2l2.3-1.1l10.1-9.2l6.4-3.1l4.3-3.8l4.5-0.3l3.2-1.5
		l2.3-0.2l5.2,1.3l5.7-3.8l4-1.5l0,0l5.8,5l3.1,4.9l3.6,3.6l1.1,1.7l-0.1,3l-3.3,6.1l-1.2,6.1l0.2,1.6l2.8,3l3.9,6.4l13.5,12.1l0,0
		l0,6.1l-1.1,1.4l-3.9,1.9l-0.7,1.6l1.8,8.6l-0.2,2.1l-1,2.2l-1.2,1.4l-2.4,1.4l-6.3,2l-1,1l-1.1,3l-1.1,1.5l-8.2,7.6l-3.1,3.4
		l-0.9,1.7l-0.1,1.7l1.4,6.1l-0.8,8.4l-0.7,1.5l1.3,5.9l-1.1,3.2l0,0l-0.1,1.8l-2.4-2.3l-5.3-3.4l-2.5-0.3L303.2,558.2z"/>
	<path id="SA-01" style="fill:#E6E6E6;" d="M456.8,487l-10.1,2.6l-16.4,2.4l-58.9,5l-8.9-0.7l-3.2-0.7l-5.2-2.4l-8.5-5.6l0,0
		l-13.5-12.1l-3.9-6.4l-2.8-3l-0.2-1.6l1.2-6.1l3.3-6.1l0.1-3l-1.1-1.7l-3.6-3.6l-3.1-4.9l-5.8-5l0,0l-4.3-7.1l-4.8-6.4l-0.6-1.5
		l1.8-8.5l-0.5-7l2.3-3.4l0.7-2.3l-1.8-13.1l1-6.2l-0.3-1.6l-6.5-1.4l-5.6,1.5l-3.7-1.3l-1.3-2.3l0.3-5.3l0.9-2.9l-1.8-1.9l-3.1-0.9
		l-14.1-0.6l-3-1.6l-5.1-11.3l-0.9-5.6l-2.1-4.7l-1.1-4.9l-4.2-3.3l-0.4-3.1l0.4-3.6l0,0l0-9l1.4-4.9l-0.9-3.6l3-4.2l0.4-3.1l0,0
		l3-5.1l2.2-1.6l1.5,0.1l5.2,2.5l3.9,0.8l5.7,0.5l5.7-0.9l5.7,0.9l2.4-1.8l0.9-2.2l-1.9-3.8l0.1-2.3l5.4-6.7l3.3-2.5l12.9-3.1
		l2.8-2.8l3.1-1.7l2.3-4.5l2-2l3.1-0.8l8.3,1.1l7.2-0.7l5.5,0.2l0.8-3.9l-0.3-3.2l-2.5-4.9l1.1-2.9l-0.1-0.9l-6.7-10.2l-3.6-3.6
		l-0.5-1.5l0.8-5.7l-0.4-5.1l4-1.1l4.5-5.9l2.5-2.1l4.2-1.8l0.6-1.5l-0.1-2.5l-1.3-2.5l-3.6-3l-2.4-0.9l0,0l-0.7-1.9l0.1-1.6l1-3.1
		l2.4-3.3l3.1-1.6l0,0l1.9,2.1l1.5,0.5l1.8-0.9l1.3-2.2l0,0l3.3,2.3l2.1,2.2l1.4,5.1l1.2,1.5l10.4,6.1l5.8,1.1l3.5,4.2l4.1,3.4
		l2.3,0.6l5.6,0.1l3,0.8l9.9,6.9l2.5,1.2l2.4,0.1l4.4-1l1.5,0.2l6.5,6.1l1.5,2.5l8.9,3.2l3.9,2.1l1.1,2.6l0.4,5l0.4,22.6l-0.6,15.1
		l0.4,7.4l0.7,3.7l1.1,1.8l2.3,1.8l9.4,6.3l9.2,9.2l1.7,2.1l3,5.8l1.4,6.9l0,7.8L456.8,487z"/>
	<rect x="274.8" y="334" style="fill:none;" width="203.4" height="33.5"/>
	<text transform="matrix(1 0 0 1 333.5409 355.0261)" style="fill:#2D2D2D; font-family:'Roboto-Bold'; font-size:28px;">Riyadh</text>
</g>
<g id="Layer_2">
	<rect x="-176.9" y="51.4" style="fill:#2D2D2D;" width="160" height="160"/>
	<rect x="-176.9" y="240.4" style="fill:#E6E6E6;" width="160" height="160"/>
</g>
</svg>
