<?xml version="1.0" encoding="utf-8"?>
<!-- Generator: Adobe Illustrator 25.2.1, SVG Export Plug-In . SVG Version: 6.00 Build 0)  -->
<svg version="1.1" id="Layer_1" xmlns="http://www.w3.org/2000/svg" xmlns:xlink="http://www.w3.org/1999/xlink" x="0px" y="0px"
	 viewBox="0 0 257.1 257.1" style="enable-background:new 0 0 257.1 257.1;" xml:space="preserve">
<path d="M68.1,155.6c6.6-11.5,13.1-22.7,19.8-34.4c3.8,6.6,7.5,13.1,11.2,19.5c2.8,4.9,5.7,9.9,8.6,14.9H68.1z M232.7,81.9
	c-9-34.8-38.7-57.2-74.6-57.2c-41.6,0-83.1,0-124.7,0l16.3,28.7c36.2-0.1,72.3-0.1,108.4,0c11.9,0,22.7,3.5,31.7,11.4
	c14.1,12.4,18.4,28.4,16.5,46.4c-2.1,20.8-15.8,38.3-34.5,42.8c-7.9,1.9-16.4,1.2-24.6,2c-4.6,0.5-7-1.4-9.2-5.3
	c-15.1-26.6-30.4-53-45.7-79.5c-2.8-4.8-5.8-4.9-8.6-0.1c-4.1,7-8.1,14-12.2,21c-17.1,29.7-34.2,59.3-51.3,89
	c-0.5,0.9-0.9,1.9-1.6,3.5h4.6c32.1,0,64.3,0.1,96.4-0.1c2.3,0,4,0.5,5.3,1.6c0.8,0.7,1.5,1.6,2.2,2.9c8.4,14.8,17,29.6,25.4,44.4
	h33.2c-4-6.9-7.8-13.4-11.5-20c-5.4-9.3-10.7-18.6-16-27.9c0.6-0.5,0.8-0.8,1.1-0.8c1-0.1,1.9-0.1,2.9-0.2
	c14.7-0.6,28-5.2,40.1-13.5C232.3,150.5,240.7,113.1,232.7,81.9z"/>
</svg>
